<svg width="160" height="160" viewBox="0 0 160 160" fill="none" xmlns="http://www.w3.org/2000/svg">
<path d="M80 132C79.2902 132 78.6248 131.889 78.0038 131.668C77.3828 131.447 76.8061 131.07 76.2738 130.539L46.4639 100.787C45.488 99.8127 45 98.573 45 97.0677C45 95.5624 45.488 94.3227 46.4639 93.3487C47.5285 92.2861 48.7928 91.7769 50.2567 91.8212C51.7205 91.8655 52.9404 92.3746 53.9163 93.3487C53.9163 93.3487 57.7712 99.2069 65.641 105.103C73.5108 111 74.6768 97.931 74.6768 97.931V33.3129C74.6768 31.8076 75.1869 30.5458 76.2072 29.5275C77.2275 28.5092 78.4918 28 80 28C81.5082 28 82.7725 28.5092 83.7928 29.5275C84.8131 30.5458 85.3232 31.8076 85.3232 33.3129V97.931C85.3232 97.931 86.29 112 94.359 105.103C102.428 98.2069 105.951 93.3487 105.951 93.3487C107.015 92.2861 108.279 91.7548 109.743 91.7548C111.207 91.7548 112.471 92.2861 113.536 93.3487C114.512 94.4112 115 95.673 115 97.1341C115 98.5951 114.512 99.8127 113.536 100.787L83.7262 130.539C83.1939 131.07 82.6172 131.447 81.9962 131.668C81.3752 131.889 80.7098 132 80 132Z" fill="#0158FF"/>
</svg>
