<svg width="195" height="181" viewBox="0 0 195 181" fill="none" xmlns="http://www.w3.org/2000/svg">
<path d="M2.20857 94.0001C14.8551 62.227 42.6476 44.1538 54.5001 40.2821C71.8295 34.6213 90.5322 31.6432 107.5 40.2821C118.681 45.9744 122.756 59.6593 120.5 68C118.134 76.7483 111 86.5 97.7112 82.485C93.2248 80.2483 89.8074 73.9163 92.9454 66.963C97.7252 56.3717 111.259 53.9676 118.681 52.9918C150.304 48.8337 171.327 70.062 168.768 105.123C167.855 111.632 165.229 121.693 162.702 127.737" stroke="#0158FF" stroke-width="3" stroke-linecap="round"/>
<path d="M152.687 112.422C155.293 117.365 157.741 122.04 161.181 126.723C163.272 129.125 163.11 128.896 165.643 126.724C169.698 123.246 172.702 120.849 175.701 116.258" stroke="#0158FF" stroke-width="3" stroke-linecap="round"/>
</svg>
