<svg width="287" height="202" viewBox="0 0 287 202" fill="none" xmlns="http://www.w3.org/2000/svg">
<path d="M225.456 48.4869C233.29 36.0337 230.277 23.4921 225.858 15.8638C220.905 7.31412 205.123 -0.109746 191.371 2.04296C180.024 3.81936 169.164 9.48388 160.577 18.7052C155.798 23.8377 151.778 32.5596 153.702 43.5015C154.124 45.9008 156.662 53.1087 157.828 56.2475C154.978 50.6922 141.347 34.5162 122.471 34.6454C102.264 34.7838 87.427 46.7411 83.8169 63.4575C78.4981 88.0856 99.1178 113.409 126.711 120.023C157.604 127.429 171.243 127.763 202.615 124.003C226.73 121.113 265.467 109.576 278.341 89.6904C291.214 69.8051 287.365 47.1606 268.912 38.0602C255.9 31.6432 235.145 39.1907 225.456 48.4869Z" fill="#B1F1FF" stroke="#1F1F1F" stroke-width="2" stroke-linecap="round"/>
<path d="M87.7226 151.46C92.4749 143.863 90.691 136.062 88.0473 131.281C85.0843 125.923 75.0884 119.346 66.0186 120.596C55.2213 122.085 51.0796 125.867 47.6927 131.279C44.9734 135.624 43.6063 142.058 44.4943 147.391C44.7425 148.881 46.254 153.376 46.9489 155.334C45.2451 151.858 37.0717 141.662 25.6962 141.483C13.5185 141.291 4.54714 148.486 2.32936 158.779C-0.938053 173.944 11.424 189.895 28.0355 194.367C46.6342 199.373 55.4871 202.129 74.4024 200.233C88.9424 198.776 111.68 189.807 119.489 177.68C127.297 165.553 125.034 151.489 113.937 145.605C106.112 141.457 93.5853 145.842 87.7226 151.46Z" fill="#F9FFB1" stroke="#1F1F1F" stroke-width="2" stroke-linecap="round"/>
</svg>
