<svg width="88" height="152" viewBox="0 0 88 152" fill="none" xmlns="http://www.w3.org/2000/svg">
<path d="M40.9705 1.96265C13.9624 14.4533 4.93494 36.7581 2.06321 55.1337C0.909564 62.5157 3.02846 72.7549 8.32052 79.2164C13.7196 85.8086 21.6075 88.8336 30.8182 88.7658C37.8198 88.7143 44.0119 86.0924 46.2887 80.6593C47.3491 78.129 47.8774 74.3632 44.6443 71.5673C41.4111 68.7714 36.2665 69.1851 31.9325 71.9215C23.6661 77.1406 19.4241 86.7861 18.1185 93.1975C16.2964 102.145 18.9727 114.564 24.5219 122.528C33.0992 134.837 48.5015 139.65 60.8896 140.207C73.2777 140.764 77.9472 139.744 83.2972 139.065" stroke="#0158FF" stroke-width="3" stroke-linecap="round"/>
<path d="M66.0743 129.188C69.4218 129.825 75.4933 132.212 77.8286 133.428C80.6147 134.878 82.9147 136.906 85.0515 138.921C85.5752 139.415 85.7018 140.065 85.2288 140.441C83.807 141.573 77.7581 145.51 72.3828 147.611C67.0074 149.712 65.5471 149.873 65.5471 149.873" stroke="#0158FF" stroke-width="3" stroke-linecap="round"/>
</svg>
