<svg width="434" height="178" viewBox="0 0 434 178" fill="none" xmlns="http://www.w3.org/2000/svg">
<path d="M103.776 166.371C104.399 167.706 105.2 168.952 106.09 170.108C107.781 172.422 109.828 174.468 112.32 175.803V175.002C111.341 175.358 110.095 175.358 109.027 175.18C106.001 174.824 103.42 173.134 101.462 170.909C101.106 170.464 100.483 171.087 100.839 171.532C102.975 173.846 105.734 175.536 108.849 175.981C110.095 176.159 111.519 176.159 112.765 175.803C113.121 175.714 113.21 175.18 112.854 175.002C110.362 173.757 108.404 171.621 106.802 169.486C106.001 168.418 105.2 167.172 104.666 166.015C104.399 165.482 103.687 166.015 103.865 166.46L103.776 166.371Z" fill="#17171E"/>
<path d="M97.9023 168.328C98.8813 170.998 99.7713 173.578 100.75 176.248L101.195 177.404C101.373 177.938 102.263 177.671 102.085 177.137C101.106 174.468 100.216 171.888 99.2373 169.218L98.7923 168.061C98.6143 167.528 97.7243 167.795 97.9023 168.328Z" fill="#17171E"/>
<path d="M113.566 154.536C114.367 155.782 115.346 156.85 116.414 157.918C118.372 159.964 120.686 161.744 123.445 162.722V161.922C123.178 161.922 123.445 161.922 123.178 161.922C122.911 161.922 122.733 162.1 122.466 162.189C121.665 162.367 120.864 162.545 120.063 162.545C117.037 162.545 114.278 161.299 111.964 159.43C111.519 159.074 110.896 159.697 111.341 160.053C113.744 162.011 116.77 163.434 119.885 163.434C121.131 163.434 122.555 163.256 123.801 162.633C124.157 162.455 123.979 161.922 123.712 161.833C121.131 160.943 118.906 159.163 117.037 157.206C116.058 156.227 115.168 155.248 114.456 154.092C114.1 153.647 113.388 154.092 113.655 154.536H113.566Z" fill="#17171E"/>
<path d="M108.137 157.295C109.472 159.787 110.718 162.278 112.053 164.77L112.587 165.837C112.854 166.371 113.655 165.837 113.388 165.392C112.053 162.901 110.807 160.409 109.472 157.918L108.938 156.85C108.671 156.317 107.87 156.85 108.137 157.295Z" fill="#17171E"/>
<path d="M12.9044 52.211C12.9044 52.211 8.54337 45.1816 5.25032 46.1604C0.533251 47.584 -1.78078 53.9015 3.9153 55.1472" fill="white"/>
<path d="M13.2612 51.9445C12.7272 51.0547 12.0152 50.1649 11.3032 49.3641C10.2352 48.0294 8.90013 46.6058 7.20911 45.894C5.51808 45.1822 3.73806 46.0719 2.40304 47.1396C1.06802 48.2074 0.0890014 49.898 0 51.5886C0 53.7241 1.69102 55.0588 3.64905 55.5037C4.18306 55.5926 4.45007 54.7918 3.91606 54.6139C2.49204 54.258 0.979015 53.4572 0.890013 51.7666C0.890013 50.254 1.69102 48.9192 2.75904 47.9405C3.82706 46.9617 5.34008 46.0719 6.85311 46.6947C8.36613 47.3176 9.52315 48.5633 10.5022 49.72C11.2142 50.5208 11.8372 51.4107 12.4602 52.3004C12.7272 52.8343 13.5282 52.3004 13.2612 51.8556V51.9445Z" fill="#17171E"/>
<path d="M40.5843 74.5452C40.5843 74.5452 29.0141 70.4522 25.721 67.2489C23.318 64.9355 15.3079 51.7666 15.3079 51.7666C15.3079 51.7666 5.96274 59.5077 4.80572 60.3975C3.6487 61.2873 16.0199 74.901 17.7109 76.0578C21.716 78.8161 34.4432 85.5786 34.4432 85.5786L40.6733 74.5452H40.5843Z" fill="#FDD900"/>
<path d="M44.7677 74.7229C44.7677 74.7229 55.9819 74.189 58.7409 72.8544C64.348 70.274 76.5412 61.2871 76.5412 61.2871C76.5412 61.2871 84.9963 71.7867 85.7973 73.1213C86.5983 74.456 63.636 83.7099 61.678 84.1547C53.0448 86.4682 47.7048 87.8029 47.7048 87.8029L44.6787 74.7229H44.7677Z" fill="#FDD900"/>
<path d="M113.832 152.847C113.832 152.847 97.7232 123.84 95.3202 121.259C92.9172 118.679 90.2471 118.946 88.0221 119.658C87.7551 119.658 87.2211 120.013 86.3311 120.458C85.4411 119.213 84.7291 118.323 84.284 117.878C81.881 115.298 79.211 115.565 76.9859 116.276C74.8499 116.988 51.1756 131.848 51.1756 131.848C51.1756 131.848 40.3174 132.382 40.3174 139.055C40.3174 145.728 50.9976 153.647 53.1336 153.825C56.7826 154.003 73.0699 145.995 81.881 139.322C83.394 142.08 97.6343 166.816 97.6343 166.816L103.953 164.592L95.4982 140.657L107.78 155.427L113.832 152.847Z" fill="#17171E"/>
<path d="M63.0132 113.25L66.3063 122.504C66.3063 122.504 41.5639 140.923 39.2499 142.258C36.9358 143.592 33.8208 145.639 29.5487 142.258C25.2766 138.876 30.7947 87.8025 30.7947 87.8025C33.5538 71.2524 46.281 73.4768 47.972 76.5021C49.574 79.3494 57.8511 99.9036 58.2961 100.704L63.0132 113.25Z" fill="#FDD900"/>
<path d="M53.6676 65.6468C53.6676 69.4729 50.9975 72.6762 47.4375 73.9219C43.7884 75.0786 39.6054 74.0999 37.1133 71.2526C34.6213 68.4052 34.3543 64.4011 36.3123 61.2869C38.3593 57.9946 42.4534 56.3931 46.1915 57.1049C50.3745 57.9057 53.6676 61.3758 53.7566 65.7358C53.7566 66.2697 54.6466 66.2697 54.6466 65.7358C54.6466 61.5538 51.7985 57.9947 47.8825 56.66C43.9664 55.3253 39.0713 56.482 36.3123 59.7743C33.7313 62.8885 33.3753 67.4265 35.6003 70.8077C37.8253 74.1889 42.2754 75.9683 46.3695 75.1675C50.9085 74.2778 54.4686 70.4517 54.5576 65.7358C54.5576 65.2019 53.6676 65.2019 53.6676 65.7358V65.6468Z" fill="#17171E"/>
<path d="M44.3228 56.4822C43.4328 56.4822 42.6318 56.5712 41.8308 56.8381C41.8308 52.8341 38.6267 49.6309 34.7997 49.6309C30.9726 49.6309 27.7686 52.8341 27.7686 56.8381C27.7686 60.8422 30.9726 64.0454 34.7997 64.0454C34.7107 64.5793 34.6217 65.2021 34.6217 65.825C34.6217 67.6045 35.1557 69.2951 36.1347 70.7188C36.1347 70.7188 38.4487 71.0748 44.3228 67.7826C50.1969 64.4904 52.2439 60.3083 52.2439 60.3083C50.4639 58.0839 47.6158 56.6602 44.4118 56.6602L44.3228 56.4822Z" fill="#17171E"/>
<path d="M7.65411 54.7027C6.8531 53.9909 6.2301 53.1011 5.96309 52.0334C5.78509 51.5885 5.78509 51.1436 5.42908 50.8767C5.16208 50.6098 4.71707 50.5208 4.36107 50.5208C3.91606 50.5208 3.47105 50.3428 3.56005 49.8089C3.56005 49.364 4.00506 49.0081 4.36107 48.7412C5.42908 48.2073 6.6751 48.7412 7.56511 49.275C8.63313 49.8979 9.61214 50.6098 10.3242 51.6775C10.5912 52.0335 11.3032 51.6775 11.0362 51.3216C10.4132 50.2539 9.34514 49.453 8.27713 48.8302C7.20911 48.2073 5.78509 47.5844 4.45007 47.9404C3.38205 48.2963 2.40304 49.3641 2.75904 50.4318C2.93704 50.9657 3.38205 51.2326 3.91606 51.3216C4.36107 51.3216 4.98408 51.3216 5.16208 51.8555C5.34008 52.5673 5.60709 53.1901 6.05209 53.724C6.4971 54.2579 6.9421 54.7028 7.56511 55.0587C7.74312 55.0587 7.83212 54.9698 7.74312 54.7918L7.65411 54.7027Z" fill="#17171E"/>
<path d="M79.3896 63.9567C79.3896 63.9567 85.2637 58.0841 88.2008 59.8637C92.4728 62.3551 93.1848 69.0284 87.4888 68.9395" fill="white"/>
<path d="M79.656 64.2235C80.279 63.6007 80.991 62.9779 81.792 62.355C83.038 61.3762 84.4621 60.3974 86.0641 59.9525C86.6871 59.7746 87.3991 59.7746 87.9331 59.9525C88.6451 60.3084 89.3571 60.9313 89.8021 61.5542C90.6922 62.7109 91.3152 64.2235 91.0482 65.6472C90.7812 67.5157 89.0901 68.1386 87.3991 68.1386C86.8651 68.1386 86.8651 69.0284 87.3991 69.0284C89.1791 69.0284 90.9592 68.4055 91.6712 66.6259C92.2942 65.1133 91.8492 63.2448 91.0482 61.9101C90.2471 60.5754 88.7341 58.8848 86.9541 58.7958C85.1741 58.7069 83.394 59.8635 82.059 60.8423C80.991 61.6431 79.923 62.4439 79.033 63.4227C78.588 63.7786 79.211 64.4904 79.656 64.0455V64.2235Z" fill="#17171E"/>
<path d="M84.0167 67.6045C85.2627 67.2486 86.2417 66.3589 86.9537 65.2021C87.1317 64.9352 87.2207 64.7573 87.5767 64.6683C87.8437 64.6683 88.1997 64.6683 88.4667 64.6683C89.0897 64.6683 89.5348 64.4903 89.8018 63.8675C89.9798 63.4226 90.0688 62.7998 89.8018 62.3549C89.5348 61.9989 89.0008 61.732 88.5557 61.643C87.5767 61.2871 86.2417 61.465 85.2627 61.643C83.8387 61.9099 82.5926 62.7108 81.5246 63.7785C81.1686 64.1344 81.7026 64.6683 82.0586 64.3124C82.9487 63.6005 83.7497 62.8887 84.8177 62.5328C85.7077 62.2658 86.7757 62.1768 87.6657 62.2658C88.2887 62.2658 89.6238 62.7107 89.0897 63.6005C88.8227 63.9564 88.1107 63.7785 87.7547 63.7785C87.3097 63.7785 86.8647 63.9564 86.5977 64.4013C86.2417 64.9352 85.9747 65.4691 85.5297 65.914C85.0847 66.3589 84.5507 66.8037 83.9277 67.1596C83.7497 67.1596 83.9277 67.5156 84.0167 67.4266V67.6045Z" fill="#17171E"/>
<path d="M85.5302 62.266L80.0121 52.7453C79.8341 52.3894 80.0121 51.9445 80.2791 51.6776C80.6351 51.4996 81.0801 51.6775 81.2581 51.9445L87.0432 61.9991L85.4412 62.177L85.5302 62.266Z" fill="#17171E"/>
<path d="M87.132 65.0239L88.289 66.9814C88.467 67.3373 89.001 67.4263 89.268 67.2484C89.624 67.0704 89.713 66.5365 89.535 66.1805L88.645 64.579C88.645 64.579 88.378 64.312 87.755 64.401C87.132 64.4899 87.043 64.8459 87.043 64.8459L87.132 65.0239Z" fill="#17171E"/>
<path d="M83.3943 35.3945C83.7503 34.9496 83.3943 34.4158 83.1273 33.9709C82.7713 33.437 82.4153 32.9921 82.2373 32.4582C81.8813 31.3015 82.0593 29.9669 82.8603 28.9881C83.5723 28.0983 84.9963 27.5644 85.8863 28.5432C86.3313 29.0771 86.2423 29.6109 85.8863 30.1448C85.5303 30.6786 85.0853 31.1236 84.7293 31.6575C84.2843 32.2803 83.9283 32.9031 83.5723 33.615C83.2163 34.3268 82.9493 34.9497 82.8603 35.7505C82.8603 36.1064 83.3053 36.1953 83.4833 35.9284C83.8393 35.2166 84.1063 34.5047 84.4623 33.7929C84.8183 33.081 85.2633 32.4582 85.7083 31.8354C86.1533 31.3015 86.6873 30.7676 86.9543 30.1448C87.2213 29.5219 87.1323 28.8991 86.7763 28.3652C85.9753 27.2085 84.4623 27.1195 83.3943 27.8313C82.3263 28.5432 81.7033 29.8778 81.6143 31.1235C81.6143 31.8353 81.7033 32.6362 82.0593 33.259C82.2373 33.6149 82.4153 33.8819 82.5933 34.1488C82.8603 34.5047 83.3053 34.8607 83.0383 35.3945C82.9493 35.6615 83.3053 35.7504 83.4833 35.5724L83.3943 35.3945Z" fill="#17171E"/>
<path d="M80.9913 49.8978C80.1013 48.9191 79.6562 47.5843 79.9232 46.2496C80.1903 44.9149 81.1693 44.0252 81.5253 42.7795C82.0593 40.555 80.6353 38.4195 79.2112 36.9068C77.5202 35.1272 75.0282 33.4367 74.8502 30.7674C74.7612 28.4539 76.5412 26.7633 78.2322 25.5176C79.9233 24.2719 81.8813 23.1151 83.3943 21.6025C84.9073 20.0899 86.4204 18.2213 87.2214 16.0859C88.9124 11.9038 88.0224 6.83196 84.3733 3.98464C81.1693 1.58221 75.2062 -1.08707 71.8241 2.29413C70.3111 3.80677 70.4001 5.94219 70.9341 7.89973C71.6461 10.4801 72.4471 12.7936 71.1121 15.374C70.0441 17.5984 67.9971 19.2 65.95 20.4457C63.903 21.6914 61.233 22.2254 59.2749 23.738C57.6729 24.9837 56.6049 27.0302 57.1389 29.0767C57.6729 31.1233 59.6309 33.1697 61.233 34.5934C63.191 36.284 65.505 37.5297 67.9971 38.4195C70.8451 39.3983 73.5152 40.288 74.1382 43.5802C74.5832 45.8937 74.3162 48.8301 76.4522 50.4317C77.8762 51.4994 80.1903 51.4994 81.0803 49.8088C81.4363 49.1859 80.4573 48.6521 80.1903 49.2749C79.6562 50.2537 78.4992 50.3427 77.5202 49.8978C76.3632 49.3639 75.9182 47.9403 75.6512 46.7836C75.2062 44.6481 75.3842 42.3346 74.0492 40.555C72.8921 39.0424 71.1121 38.3305 69.4211 37.7966C67.1961 37.0848 65.149 36.284 63.28 34.9493C61.411 33.6146 59.3639 31.7461 58.3849 29.6106C57.0499 26.7633 59.4529 24.5388 61.767 23.3821C63.814 22.4033 65.95 21.6915 67.8191 20.3568C69.4211 19.289 70.8451 17.8654 71.7351 16.1748C72.6251 14.4842 72.9811 12.7046 72.6251 10.925C72.2691 8.70056 70.6671 6.0312 71.8241 3.80672C73.1592 1.40429 76.3632 1.49332 78.6772 2.29413C80.9913 3.09494 83.6613 4.25166 85.2633 6.29818C88.3784 10.1243 87.2214 15.6409 84.3733 19.2891C83.0383 20.9797 81.3473 22.3143 79.5672 23.56C78.0542 24.6277 76.4522 25.6956 75.2952 27.2082C74.1382 28.7208 73.6042 30.5893 74.2272 32.3689C74.9392 34.5044 76.8082 35.9281 78.3212 37.4408C79.3892 38.5085 80.4573 39.7542 80.7243 41.2668C81.0803 42.8684 80.1013 43.8472 79.5672 45.2709C78.7662 47.1394 79.2112 49.1859 80.6353 50.5206C80.9023 50.7876 81.3473 50.3427 81.0803 50.0757L80.9913 49.8978Z" fill="#17171E"/>
<rect x="174.5" y="29.6953" width="259" height="119" rx="7.5" fill="#C9DBFF" fill-opacity="0.5"/>
<rect x="174.5" y="29.6953" width="259" height="119" rx="7.5" stroke="#1F1F1F"/>
<path d="M231.219 62.0193H234.939V78.1953H231.219V71.7393H225.291V78.1953H221.595V62.0193H225.291V68.5953H231.219V62.0193ZM243.304 78.3873C241.4 78.3873 239.928 77.8193 238.888 76.6833C237.848 75.5313 237.328 74.0593 237.328 72.2673C237.328 70.3953 237.872 68.8593 238.96 67.6593C240.048 66.4433 241.496 65.8353 243.304 65.8353C245.192 65.8353 246.656 66.4193 247.696 67.5873C248.736 68.7553 249.256 70.2433 249.256 72.0513C249.256 73.8913 248.728 75.4113 247.672 76.6113C246.632 77.7953 245.176 78.3873 243.304 78.3873ZM243.28 68.5953C242.512 68.5953 241.936 68.9233 241.552 69.5793C241.168 70.2353 240.976 71.0833 240.976 72.1233C240.976 73.1633 241.168 74.0193 241.552 74.6913C241.952 75.3473 242.544 75.6753 243.328 75.6753C244.096 75.6753 244.664 75.3553 245.032 74.7153C245.416 74.0593 245.608 73.2113 245.608 72.1713C245.608 69.7873 244.832 68.5953 243.28 68.5953ZM254.137 78.1953L250.225 66.0273H253.849L254.905 70.0353C255.161 71.0433 255.377 71.9553 255.553 72.7713C255.729 73.5713 255.833 74.1233 255.865 74.4273L255.937 74.8833C256.049 73.9233 256.441 72.3073 257.113 70.0353L258.289 66.0273H261.313L262.465 70.0353C262.753 71.0593 262.993 71.9793 263.185 72.7953C263.377 73.5953 263.497 74.1473 263.545 74.4513L263.617 74.8833C263.729 73.9393 264.105 72.3233 264.745 70.0353L265.873 66.0273H269.329L265.441 78.1953H261.841L260.785 74.2113C260.561 73.3473 260.361 72.5393 260.185 71.7873C260.025 71.0353 259.921 70.4993 259.873 70.1793L259.801 69.6993C259.641 70.7713 259.305 72.2753 258.793 74.2113L257.737 78.1953H254.137ZM282.473 75.4113C283.273 75.4113 283.921 75.0993 284.417 74.4753C284.913 73.8513 285.161 73.0193 285.161 71.9793C285.161 70.9713 284.889 70.1873 284.345 69.6273C283.817 69.0673 283.185 68.7873 282.449 68.7873C281.713 68.7873 281.089 69.0833 280.577 69.6753C280.081 70.2673 279.833 71.0913 279.833 72.1473C279.833 73.1233 280.089 73.9153 280.601 74.5233C281.113 75.1153 281.737 75.4113 282.473 75.4113ZM285.161 61.2273H288.665V78.1953H285.161V76.2993C284.345 77.6593 283.129 78.3393 281.513 78.3393C279.929 78.3393 278.657 77.7233 277.697 76.4913C276.753 75.2593 276.281 73.7873 276.281 72.0753C276.281 70.1553 276.777 68.6433 277.769 67.5393C278.761 66.4353 280.017 65.8833 281.537 65.8833C283.121 65.8833 284.329 66.5553 285.161 67.8993V61.2273ZM296.929 78.3873C295.025 78.3873 293.553 77.8193 292.513 76.6833C291.473 75.5313 290.953 74.0593 290.953 72.2673C290.953 70.3953 291.497 68.8593 292.585 67.6593C293.673 66.4433 295.121 65.8353 296.929 65.8353C298.817 65.8353 300.281 66.4193 301.321 67.5873C302.361 68.7553 302.881 70.2433 302.881 72.0513C302.881 73.8913 302.353 75.4113 301.297 76.6113C300.257 77.7953 298.801 78.3873 296.929 78.3873ZM296.905 68.5953C296.137 68.5953 295.561 68.9233 295.177 69.5793C294.793 70.2353 294.601 71.0833 294.601 72.1233C294.601 73.1633 294.793 74.0193 295.177 74.6913C295.577 75.3473 296.169 75.6753 296.953 75.6753C297.721 75.6753 298.289 75.3553 298.657 74.7153C299.041 74.0593 299.233 73.2113 299.233 72.1713C299.233 69.7873 298.457 68.5953 296.905 68.5953ZM311.53 78.1953V62.0193H315.226V78.1953H311.53ZM327.964 66.0273V67.9233C328.636 66.5793 329.78 65.9073 331.396 65.9073C333.108 65.9073 334.244 66.6753 334.804 68.2113C335.076 67.4913 335.532 66.9313 336.172 66.5313C336.812 66.1153 337.564 65.9073 338.428 65.9073C339.628 65.9073 340.572 66.2913 341.26 67.0593C341.964 67.8113 342.316 68.9233 342.316 70.3953V78.1953H338.812V70.9713C338.812 70.2833 338.676 69.7393 338.404 69.3393C338.132 68.9393 337.74 68.7393 337.228 68.7393C336.684 68.7393 336.196 68.9633 335.764 69.4113C335.348 69.8433 335.14 70.6273 335.14 71.7633V78.1953H331.636V70.9713C331.636 70.2833 331.5 69.7393 331.228 69.3393C330.956 68.9393 330.564 68.7393 330.052 68.7393C329.508 68.7393 329.02 68.9633 328.588 69.4113C328.172 69.8433 327.964 70.6273 327.964 71.7633V78.1953H324.46V66.0273H327.964ZM351.109 73.2033H349.981C349.389 73.2033 348.933 73.3313 348.613 73.5873C348.293 73.8433 348.133 74.1713 348.133 74.5713C348.133 75.3873 348.605 75.7953 349.549 75.7953C350.045 75.7953 350.429 75.6433 350.701 75.3393C350.973 75.0353 351.109 74.6193 351.109 74.0913V73.2033ZM345.421 69.7713V66.6273C346.381 66.0833 347.765 65.8113 349.573 65.8113C351.301 65.8113 352.589 66.1873 353.437 66.9393C354.285 67.6753 354.709 68.8273 354.709 70.3953V78.1953H351.277V76.7073C350.765 77.7473 349.757 78.2673 348.253 78.2673C347.069 78.2673 346.141 77.9313 345.469 77.2593C344.813 76.5873 344.485 75.7473 344.485 74.7393C344.485 73.5713 344.909 72.6673 345.757 72.0273C346.621 71.3713 347.893 71.0433 349.573 71.0433H351.109V70.2033C351.109 69.1793 350.429 68.6673 349.069 68.6673C347.757 68.6673 346.541 69.0353 345.421 69.7713ZM368.908 78.1953H364.852L360.964 72.2193V78.1953H357.46V61.6353H360.964V71.4753L364.804 66.0273H368.836L364.612 71.8593L368.908 78.1953ZM377.64 70.9953V70.7073C377.528 69.2833 376.904 68.5713 375.768 68.5713C375.208 68.5713 374.712 68.7793 374.28 69.1953C373.848 69.5953 373.56 70.1953 373.416 70.9953H377.64ZM380.16 74.5713V77.4993C379.328 78.0433 378.056 78.3153 376.344 78.3153C374.344 78.3153 372.784 77.7393 371.664 76.5873C370.56 75.4193 370.008 73.9233 370.008 72.0993C370.008 70.1633 370.544 68.6513 371.616 67.5633C372.704 66.4593 374.04 65.9073 375.624 65.9073C377.256 65.9073 378.544 66.3873 379.488 67.3473C380.432 68.2913 380.904 69.7073 380.904 71.5953C380.904 71.9633 380.84 72.5953 380.712 73.4913H373.56C373.8 74.1633 374.216 74.6833 374.808 75.0513C375.4 75.4193 376.112 75.6033 376.944 75.6033C378.176 75.6033 379.248 75.2593 380.16 74.5713ZM221.29 109.411C222.09 109.411 222.738 109.099 223.234 108.475C223.73 107.851 223.978 107.019 223.978 105.979C223.978 104.971 223.706 104.187 223.162 103.627C222.634 103.067 222.002 102.787 221.266 102.787C220.53 102.787 219.906 103.083 219.394 103.675C218.898 104.267 218.65 105.091 218.65 106.147C218.65 107.123 218.906 107.915 219.418 108.523C219.93 109.115 220.554 109.411 221.29 109.411ZM223.978 95.2273H227.482V112.195H223.978V110.299C223.162 111.659 221.946 112.339 220.33 112.339C218.746 112.339 217.474 111.723 216.514 110.491C215.57 109.259 215.098 107.787 215.098 106.075C215.098 104.155 215.594 102.643 216.586 101.539C217.578 100.435 218.834 99.8833 220.354 99.8833C221.938 99.8833 223.146 100.555 223.978 101.899V95.2273ZM237.402 104.995V104.707C237.29 103.283 236.666 102.571 235.53 102.571C234.97 102.571 234.474 102.779 234.042 103.195C233.61 103.595 233.322 104.195 233.178 104.995H237.402ZM239.922 108.571V111.499C239.09 112.043 237.818 112.315 236.106 112.315C234.106 112.315 232.546 111.739 231.426 110.587C230.322 109.419 229.77 107.923 229.77 106.099C229.77 104.163 230.306 102.651 231.378 101.563C232.466 100.459 233.802 99.9073 235.386 99.9073C237.018 99.9073 238.306 100.387 239.25 101.347C240.194 102.291 240.666 103.707 240.666 105.595C240.666 105.963 240.602 106.595 240.474 107.491H233.322C233.562 108.163 233.978 108.683 234.57 109.051C235.162 109.419 235.874 109.603 236.706 109.603C237.938 109.603 239.01 109.259 239.922 108.571ZM250.847 100.387V103.387C249.999 102.891 249.007 102.643 247.871 102.643C247.455 102.643 247.135 102.731 246.911 102.907C246.687 103.067 246.575 103.275 246.575 103.531C246.575 103.675 246.615 103.811 246.695 103.939C246.775 104.067 246.903 104.187 247.079 104.299C247.271 104.411 247.447 104.515 247.607 104.611C247.783 104.691 248.015 104.795 248.303 104.923C248.607 105.051 248.847 105.163 249.023 105.259C249.759 105.643 250.351 106.091 250.799 106.603C251.247 107.099 251.471 107.739 251.471 108.523C251.471 109.723 251.039 110.651 250.175 111.307C249.311 111.963 248.167 112.291 246.743 112.291C245.271 112.291 244.039 112.043 243.047 111.547V108.427C244.151 109.195 245.319 109.579 246.551 109.579C247.431 109.579 247.871 109.299 247.871 108.739C247.871 108.595 247.831 108.459 247.751 108.331C247.671 108.203 247.535 108.083 247.343 107.971C247.151 107.859 246.975 107.771 246.815 107.707C246.655 107.627 246.423 107.523 246.119 107.395C245.815 107.267 245.583 107.163 245.423 107.083C243.807 106.315 242.999 105.163 242.999 103.627C242.999 102.443 243.447 101.523 244.343 100.867C245.255 100.211 246.383 99.8833 247.727 99.8833C248.975 99.8833 250.015 100.051 250.847 100.387ZM253.74 112.195V100.027H257.244V112.195H253.74ZM254.052 97.9393C253.652 97.5393 253.452 97.0593 253.452 96.4993C253.452 95.9393 253.652 95.4593 254.052 95.0593C254.452 94.6593 254.932 94.4593 255.492 94.4593C256.052 94.4593 256.532 94.6593 256.932 95.0593C257.332 95.4593 257.532 95.9393 257.532 96.4993C257.532 97.0593 257.332 97.5393 256.932 97.9393C256.532 98.3393 256.052 98.5393 255.492 98.5393C254.932 98.5393 254.452 98.3393 254.052 97.9393ZM265.653 109.003C266.405 109.003 266.989 108.723 267.405 108.163C267.837 107.587 268.053 106.899 268.053 106.099C268.053 103.923 267.261 102.835 265.677 102.835C264.973 102.835 264.421 103.107 264.021 103.651C263.621 104.195 263.421 104.947 263.421 105.907C263.421 106.915 263.613 107.683 263.997 108.211C264.381 108.739 264.933 109.003 265.653 109.003ZM268.053 100.027H271.533V111.019C271.533 112.971 270.949 114.435 269.781 115.411C268.613 116.403 267.149 116.899 265.389 116.899C263.677 116.899 262.181 116.595 260.901 115.987V112.411C262.021 113.307 263.397 113.755 265.029 113.755C266.085 113.755 266.853 113.531 267.333 113.083C267.813 112.635 268.053 111.931 268.053 110.971V110.155C267.349 111.243 266.229 111.787 264.693 111.787C263.349 111.787 262.189 111.291 261.213 110.299C260.253 109.307 259.773 107.835 259.773 105.883C259.773 104.155 260.237 102.731 261.165 101.611C262.109 100.475 263.341 99.9073 264.861 99.9073C266.301 99.9073 267.365 100.483 268.053 101.635V100.027ZM277.796 100.027V102.091C278.1 101.419 278.564 100.891 279.188 100.507C279.828 100.107 280.588 99.9073 281.468 99.9073C282.716 99.9073 283.692 100.283 284.396 101.035C285.1 101.771 285.452 102.859 285.452 104.299V112.195H281.948V104.947C281.948 104.227 281.78 103.683 281.444 103.315C281.108 102.931 280.636 102.739 280.028 102.739C279.388 102.739 278.852 102.995 278.42 103.507C278.004 104.003 277.796 104.755 277.796 105.763V112.195H274.292V100.027H277.796ZM299.805 109.411C300.605 109.411 301.253 109.099 301.749 108.475C302.245 107.851 302.493 107.019 302.493 105.979C302.493 104.971 302.221 104.187 301.677 103.627C301.149 103.067 300.517 102.787 299.781 102.787C299.045 102.787 298.421 103.083 297.909 103.675C297.413 104.267 297.165 105.091 297.165 106.147C297.165 107.123 297.421 107.915 297.933 108.523C298.445 109.115 299.069 109.411 299.805 109.411ZM302.493 95.2273H305.997V112.195H302.493V110.299C301.677 111.659 300.461 112.339 298.845 112.339C297.261 112.339 295.989 111.723 295.029 110.491C294.085 109.259 293.613 107.787 293.613 106.075C293.613 104.155 294.109 102.643 295.101 101.539C296.093 100.435 297.349 99.8833 298.869 99.8833C300.453 99.8833 301.661 100.555 302.493 101.899V95.2273ZM315.917 104.995V104.707C315.805 103.283 315.181 102.571 314.045 102.571C313.485 102.571 312.989 102.779 312.557 103.195C312.125 103.595 311.837 104.195 311.693 104.995H315.917ZM318.437 108.571V111.499C317.605 112.043 316.333 112.315 314.621 112.315C312.621 112.315 311.061 111.739 309.941 110.587C308.837 109.419 308.285 107.923 308.285 106.099C308.285 104.163 308.821 102.651 309.893 101.563C310.981 100.459 312.317 99.9073 313.901 99.9073C315.533 99.9073 316.821 100.387 317.765 101.347C318.709 102.291 319.181 103.707 319.181 105.595C319.181 105.963 319.117 106.595 318.989 107.491H311.837C312.077 108.163 312.493 108.683 313.085 109.051C313.677 109.419 314.389 109.603 315.221 109.603C316.453 109.603 317.525 109.259 318.437 108.571ZM324.634 106.147C324.698 107.219 325.018 108.051 325.594 108.643C326.17 109.235 326.93 109.531 327.874 109.531C328.882 109.531 329.85 109.251 330.778 108.691V111.619C329.834 112.131 328.698 112.387 327.37 112.387C325.546 112.387 324.042 111.811 322.858 110.659C321.674 109.491 321.082 107.987 321.082 106.147C321.114 104.323 321.706 102.819 322.858 101.635C324.01 100.435 325.586 99.8353 327.586 99.8353C328.818 99.8353 329.882 100.067 330.778 100.531V103.531C329.93 103.003 328.986 102.739 327.946 102.739C326.97 102.739 326.178 103.035 325.57 103.627C324.962 104.203 324.65 105.043 324.634 106.147ZM333.052 112.195V100.027H336.556V112.195H333.052ZM333.364 97.9393C332.964 97.5393 332.764 97.0593 332.764 96.4993C332.764 95.9393 332.964 95.4593 333.364 95.0593C333.764 94.6593 334.244 94.4593 334.804 94.4593C335.364 94.4593 335.844 94.6593 336.244 95.0593C336.644 95.4593 336.844 95.9393 336.844 96.4993C336.844 97.0593 336.644 97.5393 336.244 97.9393C335.844 98.3393 335.364 98.5393 334.804 98.5393C334.244 98.5393 333.764 98.3393 333.364 97.9393ZM347.245 100.387V103.387C346.397 102.891 345.405 102.643 344.269 102.643C343.853 102.643 343.533 102.731 343.309 102.907C343.085 103.067 342.973 103.275 342.973 103.531C342.973 103.675 343.013 103.811 343.093 103.939C343.173 104.067 343.301 104.187 343.477 104.299C343.669 104.411 343.845 104.515 344.005 104.611C344.181 104.691 344.413 104.795 344.701 104.923C345.005 105.051 345.245 105.163 345.421 105.259C346.157 105.643 346.749 106.091 347.197 106.603C347.645 107.099 347.869 107.739 347.869 108.523C347.869 109.723 347.437 110.651 346.573 111.307C345.709 111.963 344.565 112.291 343.141 112.291C341.669 112.291 340.437 112.043 339.445 111.547V108.427C340.549 109.195 341.717 109.579 342.949 109.579C343.829 109.579 344.269 109.299 344.269 108.739C344.269 108.595 344.229 108.459 344.149 108.331C344.069 108.203 343.933 108.083 343.741 107.971C343.549 107.859 343.373 107.771 343.213 107.707C343.053 107.627 342.821 107.523 342.517 107.395C342.213 107.267 341.981 107.163 341.821 107.083C340.205 106.315 339.397 105.163 339.397 103.627C339.397 102.443 339.845 101.523 340.741 100.867C341.653 100.211 342.781 99.8833 344.125 99.8833C345.373 99.8833 346.413 100.051 347.245 100.387ZM350.138 112.195V100.027H353.642V112.195H350.138ZM350.45 97.9393C350.05 97.5393 349.85 97.0593 349.85 96.4993C349.85 95.9393 350.05 95.4593 350.45 95.0593C350.85 94.6593 351.33 94.4593 351.89 94.4593C352.45 94.4593 352.93 94.6593 353.33 95.0593C353.73 95.4593 353.93 95.9393 353.93 96.4993C353.93 97.0593 353.73 97.5393 353.33 97.9393C352.93 98.3393 352.45 98.5393 351.89 98.5393C351.33 98.5393 350.85 98.3393 350.45 97.9393ZM362.027 112.387C360.123 112.387 358.651 111.819 357.611 110.683C356.571 109.531 356.051 108.059 356.051 106.267C356.051 104.395 356.595 102.859 357.683 101.659C358.771 100.443 360.219 99.8353 362.027 99.8353C363.915 99.8353 365.379 100.419 366.419 101.587C367.459 102.755 367.979 104.243 367.979 106.051C367.979 107.891 367.451 109.411 366.395 110.611C365.355 111.795 363.899 112.387 362.027 112.387ZM362.003 102.595C361.235 102.595 360.659 102.923 360.275 103.579C359.891 104.235 359.699 105.083 359.699 106.123C359.699 107.163 359.891 108.019 360.275 108.691C360.675 109.347 361.267 109.675 362.051 109.675C362.819 109.675 363.387 109.355 363.755 108.715C364.139 108.059 364.331 107.211 364.331 106.171C364.331 103.787 363.555 102.595 362.003 102.595ZM373.772 100.027V102.091C374.076 101.419 374.54 100.891 375.164 100.507C375.804 100.107 376.564 99.9073 377.444 99.9073C378.692 99.9073 379.668 100.283 380.372 101.035C381.076 101.771 381.428 102.859 381.428 104.299V112.195H377.924V104.947C377.924 104.227 377.756 103.683 377.42 103.315C377.084 102.931 376.612 102.739 376.004 102.739C375.364 102.739 374.828 102.995 374.396 103.507C373.98 104.003 373.772 104.755 373.772 105.763V112.195H370.268V100.027H373.772ZM384.31 99.7873V96.4993C385.27 96.0513 386.494 95.8273 387.982 95.8273C389.486 95.8273 390.702 96.2273 391.63 97.0273C392.558 97.8113 393.022 98.8753 393.022 100.219C393.022 100.939 392.878 101.595 392.59 102.187C392.302 102.763 391.942 103.219 391.51 103.555C391.078 103.875 390.654 104.123 390.238 104.299C389.822 104.475 389.446 104.563 389.11 104.563L389.038 106.531H385.846L385.774 102.907C388.238 102.907 389.47 102.155 389.47 100.651C389.47 100.075 389.294 99.6193 388.942 99.2833C388.606 98.9313 388.102 98.7553 387.43 98.7553C386.39 98.7553 385.35 99.0993 384.31 99.7873ZM385.846 111.763C385.43 111.331 385.222 110.811 385.222 110.203C385.222 109.595 385.43 109.083 385.846 108.667C386.278 108.235 386.798 108.019 387.406 108.019C388.014 108.019 388.526 108.235 388.942 108.667C389.374 109.083 389.59 109.595 389.59 110.203C389.59 110.811 389.374 111.331 388.942 111.763C388.526 112.179 388.014 112.387 387.406 112.387C386.798 112.387 386.278 112.179 385.846 111.763Z" fill="black"/>
</svg>
