<svg width="36" height="37" viewBox="0 0 36 37" fill="none" xmlns="http://www.w3.org/2000/svg">
<path d="M14.9787 14.9492C14.8331 13.7488 15.0738 11.0556 15.8604 9.09366C17.309 5.48071 18.3248 4.08292 20.286 2.67358C22.2473 1.26423 25.0907 0.537347 26.5713 2.35626C27.4955 3.56556 27.4218 6.43013 26.8745 7.75819C26.0154 9.84303 24.5086 12.1485 22.9115 13.6428C22.1485 14.3566 21.4198 14.983 20.689 15.6444C22.6517 14.4439 24.6108 14.0905 26.3843 13.8419C27.8876 13.6596 30.6607 13.54 32.513 14.5952C33.5104 15.1634 34.8509 16.0636 34.7702 17.9636C34.7519 19.5224 32.4002 20.7844 31.6154 21.0146C29.378 21.6711 26.2564 21.9335 23.8919 21.7287C23.1934 21.7423 21.9162 21.4699 20.7513 21.1469C21.627 21.7848 22.4734 22.6306 22.9886 23.3949C24.7899 26.0674 25.3601 27.1178 26.1223 29.5751C27.2524 33.2185 26.3864 35.3305 24.8496 36.1784C22.9062 37.2506 19.493 34.1813 18.65 32.9273C17.0453 30.5405 15.9071 25.9767 15.54 23.1691C15.328 21.5478 15.5112 22.9991 15.4362 23.6619C15.1589 26.1134 14.125 28.6449 13.0839 30.825C12.1261 32.8309 10.2792 35.7815 7.72319 35.6343C5.63881 35.5142 5.04866 31.0792 5.17109 29.7829C5.4651 26.67 7.3549 23.2257 9.70347 21.2172C10.4196 20.6048 12.7768 19.0272 12.7768 19.0272C12.7768 19.0272 11.3557 18.6873 10.7004 18.5C7.62251 17.6204 5.0324 16.3529 2.61531 14.1741C1.6597 13.3128 0.684598 11.0525 0.895039 9.47235C1.1509 7.5511 3.32549 7.28743 4.24499 7.17594C6.69698 6.87864 9.02039 7.85766 11.4264 9.97444C12.631 11.0342 14.2028 13.5961 14.9787 14.9492Z" fill="#FFCCB6" stroke="#1F1F1F" stroke-linecap="round"/>
</svg>
