<svg width="655" height="277" viewBox="0 0 655 277" fill="none" xmlns="http://www.w3.org/2000/svg">
<path d="M2.05896 68.7354C20.155 56.6193 42.2051 48.2691 62.1968 40.2057C108.036 21.7169 155.379 10.5472 205.097 16.2781C224.025 18.46 245.965 24.5703 256.366 42.1227C259.531 47.463 261.946 58.5131 256.366 65.9688C251.499 72.4723 244.398 76.3285 236.536 73.6518C228.368 70.8708 224.37 62.0362 225.717 54.3873C228.65 37.7341 250.249 29.9571 263.931 24.9419C307.76 8.87682 357.404 4.98485 403.621 10.399C431.283 13.6394 460.621 21.7626 484.085 37.1812C494.061 43.7372 506.553 55.8773 506.276 69.0655C506.002 82.1383 482.064 89.4688 473.168 73.6518C469.399 66.9505 472.774 58.9775 477.448 53.7948C496.165 33.0424 530.055 27.9128 556.309 25.7877C587.095 23.2957 626.314 23.1451 653.473 40.1435" stroke="#3D68BB" stroke-width="3" stroke-linecap="round"/>
<path d="M164.069 253.952C163.868 252.647 163.667 251.241 163.667 249.936C163.667 249.334 162.663 249.334 162.663 249.936C162.663 251.342 162.864 252.848 163.065 254.254C163.065 254.555 163.466 254.655 163.667 254.555C163.968 254.555 164.069 254.253 163.968 253.952H164.069Z" fill="#17171E"/>
<path d="M170.998 248.53C170.094 250.237 169.492 252.145 169.191 253.952C168.889 255.659 168.689 257.466 168.889 259.173C168.889 260.076 169.09 260.98 169.391 261.884C169.492 262.386 169.693 262.888 169.893 263.39C169.893 263.49 169.893 263.791 170.094 263.591C170.195 263.49 170.195 263.39 169.994 263.39C169.893 263.39 169.693 263.189 169.592 263.189C168.99 262.888 168.488 263.691 169.09 264.093C169.592 264.394 170.395 264.896 170.897 264.293C171.399 263.691 170.897 262.888 170.596 262.386C169.893 260.378 169.693 258.169 169.994 256.06C170.195 253.751 170.897 251.241 172.002 249.233C172.303 248.631 171.399 248.129 171.098 248.731L170.998 248.53Z" fill="#17171E"/>
<path d="M165.777 244.514C164.171 245.819 162.464 247.124 160.857 248.429C160.657 248.63 160.355 248.831 160.155 249.032C159.954 249.233 159.954 249.534 160.155 249.735C160.355 249.936 160.657 249.936 160.857 249.735C162.464 248.43 164.171 247.124 165.777 245.819C165.978 245.618 166.279 245.417 166.48 245.217C166.681 245.016 166.681 244.715 166.48 244.514C166.279 244.313 165.978 244.313 165.777 244.514Z" fill="#17171E"/>
<path d="M185.957 163.29C184.752 161.281 181.138 160.579 176.017 161.583C169.491 162.988 158.647 172.125 152.824 180.659C146.7 189.695 139.772 204.655 140.977 212.587C140.977 212.587 172.603 210.177 172.704 208.973C173.105 205.559 176.218 199.836 176.218 199.836L192.282 203.45L195.194 188.189L182.844 186.984C182.844 186.984 185.555 178.752 189.069 171.824C190.375 169.314 186.76 164.896 185.856 163.39L185.957 163.29Z" fill="#A770E0"/>
<path d="M210.857 195.517C211.459 195.517 212.664 195.216 213.066 195.718C213.467 196.22 213.266 197.525 213.266 198.128C213.066 200.839 212.162 203.55 211.158 205.959C210.756 206.863 210.355 207.666 209.953 208.57C209.652 209.172 208.949 209.975 208.849 210.578C208.849 210.778 208.849 210.879 208.849 211.08C208.949 211.883 209.25 212.586 209.451 213.389C211.057 219.915 212.664 226.341 214.27 232.867C214.772 234.875 215.274 236.783 215.776 238.791C215.977 239.393 216.881 239.192 216.78 238.49C215.475 233.168 214.07 227.746 212.764 222.325L210.355 212.786C210.154 212.184 209.752 211.28 209.853 210.678C209.853 210.678 209.853 210.678 209.853 210.578C209.853 210.578 210.455 209.774 210.556 209.674C210.756 209.373 210.957 208.971 211.058 208.57C211.861 207.064 212.463 205.457 212.965 203.75C213.768 201.441 214.471 198.73 214.17 196.22C213.969 194.312 212.564 194.312 210.857 194.413C210.254 194.413 210.254 195.417 210.857 195.417V195.517Z" fill="#17171E"/>
<path d="M210.456 224.534C209.15 224.735 207.845 225.538 206.741 226.241C203.729 228.249 201.018 231.061 199.01 234.073C195.295 239.695 193.086 247.326 186.058 249.735C182.443 250.94 178.427 251.744 174.612 252.145C174.01 252.145 174.01 253.25 174.612 253.149C177.825 252.748 180.937 252.145 183.949 251.342C187.464 250.438 190.475 248.932 192.885 246.021C194.994 243.41 196.5 240.398 198.106 237.486C200.014 233.972 202.423 230.86 205.536 228.249C206.942 227.044 208.749 225.639 210.656 225.338C211.259 225.338 211.058 224.233 210.355 224.334L210.456 224.534Z" fill="#17171E"/>
<path d="M237.865 256.964C237.865 264.595 232.845 271.322 225.716 273.832C218.588 276.342 210.154 274.233 205.134 268.51C200.114 262.787 199.411 254.253 203.427 247.727C207.443 241.201 215.475 237.888 223.005 239.394C231.439 241.101 237.765 248.43 237.865 256.964C237.865 257.567 238.869 257.567 238.869 256.964C238.869 248.932 233.648 241.904 226.118 239.193C218.588 236.482 209.451 238.791 204.23 245.016C199.11 251.141 198.407 259.976 202.624 266.804C206.941 273.731 215.275 277.145 223.206 275.639C232.142 273.932 238.869 266.101 238.969 257.065C238.969 256.462 237.965 256.462 237.965 257.065L237.865 256.964Z" fill="#17171E"/>
<path d="M151.318 256.964C151.318 264.595 146.298 271.322 139.169 273.832C132.041 276.342 123.607 274.233 118.587 268.51C113.567 262.787 112.864 254.253 116.88 247.727C120.896 241.201 128.928 237.888 136.459 239.394C144.892 241.101 151.218 248.43 151.318 256.964C151.318 257.567 152.322 257.567 152.322 256.964C152.322 248.932 147.101 241.904 139.571 239.193C132.041 236.482 122.904 238.791 117.683 245.016C112.563 251.141 111.86 259.976 116.077 266.804C120.294 273.631 128.728 277.145 136.659 275.639C145.595 273.932 152.322 266.101 152.423 257.065C152.423 256.462 151.419 256.462 151.419 257.065L151.318 256.964Z" fill="#17171E"/>
<path d="M208.247 157.666C207.946 162.486 204.432 166.502 199.813 167.807C195.195 169.112 189.873 167.606 186.761 163.691C183.648 159.775 183.648 154.855 186.359 150.939C189.17 146.823 194.492 145.116 199.211 146.221C204.432 147.425 208.448 152.144 208.247 157.566C208.247 158.168 209.251 158.168 209.251 157.566C209.452 152.345 206.138 147.727 201.319 145.719C196.5 143.711 190.275 144.915 186.56 148.931C183.046 152.747 182.443 158.369 185.054 162.787C187.664 167.205 193.186 169.614 198.407 168.911C204.231 168.108 208.849 163.389 209.251 157.466C209.251 156.863 208.247 156.863 208.247 157.466V157.666Z" fill="#17171E"/>
<path d="M196.901 145.417C195.796 145.417 194.692 145.417 193.688 145.618C193.889 140.498 190.073 136.281 185.154 136.08C180.234 135.879 176.017 139.694 175.816 144.714C175.615 149.735 179.431 153.951 184.35 154.253C184.15 154.955 184.049 155.658 184.049 156.461C183.949 158.67 184.551 160.879 185.656 162.686C185.656 162.686 188.567 163.289 196.198 159.474C203.929 155.658 206.64 150.538 206.64 150.538C204.531 147.626 201.017 145.618 196.901 145.417Z" fill="#17171E"/>
<path d="M198.909 191.301C200.114 191.301 201.419 191.301 202.624 191.502C203.528 191.602 204.432 191.803 205.134 192.305C205.436 192.506 205.737 192.707 205.938 193.108C206.138 193.51 206.138 193.912 206.339 194.313C207.042 195.92 210.857 198.631 208.648 200.237C207.644 200.94 206.239 201.241 205.034 201.442C203.729 201.743 202.424 201.743 201.018 201.643C198.709 201.442 196.6 200.84 194.391 200.338C193.789 200.237 193.488 201.141 194.09 201.342C196.299 201.743 198.307 202.446 200.516 202.647C202.022 202.747 203.528 202.747 204.933 202.446C206.239 202.145 207.745 201.843 208.95 201.141C211.761 199.333 209.15 196.422 207.644 194.715C207.343 194.313 207.042 193.912 206.942 193.41C206.841 192.908 206.64 192.606 206.339 192.205C205.737 191.502 204.833 191.201 203.929 190.9C202.223 190.498 200.415 190.297 198.709 190.398C198.106 190.398 198.106 191.402 198.709 191.402L198.909 191.301Z" fill="#17171E"/>
<path d="M140.877 208.47C140.877 208.47 139.07 218.811 143.789 223.831C148.909 229.253 178.729 225.137 178.729 225.137L165.978 243.711L172.705 248.129C172.705 248.129 210.255 215.498 202.323 210.578C199.311 208.771 173.006 207.466 173.006 207.466L140.676 208.57L140.877 208.47Z" fill="#17171E"/>
<path d="M156.172 248.613L154.116 250.053C153.344 250.594 153.156 251.658 153.697 252.43L163.141 265.919C163.682 266.691 164.746 266.878 165.519 266.338L167.575 264.898C168.347 264.357 168.534 263.293 167.994 262.521L158.549 249.033C158.009 248.26 156.944 248.073 156.172 248.613Z" fill="#A770E0"/>
<path d="M202.021 199.635C202.825 199.635 203.527 199.635 204.23 199.836C205.435 200.037 206.941 200.237 207.945 201.141C208.447 201.543 209.15 200.84 208.648 200.438C207.544 199.434 206.038 199.133 204.632 198.832C203.829 198.731 202.925 198.631 202.021 198.631C201.118 198.631 201.419 199.635 202.021 199.635Z" fill="#17171E"/>
<path d="M203.426 196.021C204.229 196.322 204.932 196.623 205.735 197.025C206.438 197.326 207.041 197.727 207.643 198.129C208.145 198.43 208.748 198.932 209.149 199.434C209.35 199.635 209.551 199.735 209.852 199.635C210.053 199.535 210.153 199.133 210.053 198.932C209.149 197.727 207.643 196.924 206.338 196.221C205.434 195.82 204.631 195.418 203.727 195.017C203.527 195.017 203.125 195.117 203.125 195.318C203.125 195.619 203.125 195.82 203.426 195.92V196.021Z" fill="#17171E"/>
<path d="M207.443 193.811C206.941 193.409 206.339 193.208 205.636 193.008C204.933 192.807 204.431 192.606 203.729 192.706C203.427 192.706 203.227 192.907 203.227 193.208C203.227 193.51 203.427 193.71 203.729 193.71H204.03C204.03 193.71 204.13 193.71 204.231 193.71C204.532 193.71 204.833 193.811 205.134 193.911C205.335 193.911 205.435 193.911 205.536 194.112C205.536 194.112 205.636 194.112 205.737 194.112C205.737 194.112 205.737 194.112 205.837 194.112C205.937 194.112 206.038 194.213 206.239 194.313C206.239 194.313 206.239 194.313 206.439 194.313C206.64 194.514 206.941 194.514 207.142 194.313C207.343 194.112 207.343 193.811 207.142 193.61L207.443 193.811Z" fill="#17171E"/>
<path d="M211.459 275.538C203.929 275.839 198.809 268.41 191.379 268.209C189.371 268.209 185.455 268.912 185.957 271.723C186.459 274.534 190.977 273.43 192.584 272.526C192.784 272.526 192.584 272.225 192.483 272.225C191.178 272.727 189.873 273.028 188.467 272.928C187.162 272.827 185.857 271.823 186.76 270.418C187.262 269.715 188.166 269.313 188.969 269.113C191.981 268.309 195.094 269.313 197.805 270.719C202.222 272.928 206.339 276.442 211.56 276.04C211.761 276.04 211.761 275.739 211.56 275.739L211.459 275.538Z" fill="#17171E"/>
<path d="M123.105 274.836C118.888 273.631 115.274 271.422 111.961 268.611C110.354 267.206 108.748 265.7 107.242 264.193C105.936 262.888 104.732 261.483 103.226 260.378C101.218 258.872 97.3019 258.27 96.1974 261.282C95.6954 262.587 96.3982 263.993 97.4022 264.896C98.9083 266.101 100.916 266.101 102.724 266.101C103.025 266.101 103.025 265.7 102.724 265.7C100.716 265.7 98.3058 265.7 97.0006 263.792C95.6954 261.884 97.1011 259.977 99.1091 259.675C102.523 259.173 105.234 263.089 107.342 265.198C111.659 269.515 116.68 274.133 122.904 275.137C123.005 275.137 123.105 274.936 122.904 274.936L123.105 274.836Z" fill="#17171E"/>
<path d="M113.467 264.494C110.153 259.675 110.655 252.948 106.338 248.631C104.933 247.225 102.021 245.418 100.214 247.225C99.5108 247.928 99.4104 248.932 99.9124 249.735C100.515 250.639 101.619 251.04 102.623 251.241C102.824 251.241 102.925 251.04 102.623 250.94C101.72 250.538 100.314 250.137 100.013 249.032C99.5107 247.225 102.021 246.823 103.226 247.325C105.435 248.128 106.941 250.036 108.045 251.944C110.254 256.06 110.455 260.88 113.266 264.695H113.467V264.494Z" fill="#17171E"/>
<path d="M175.515 199.032C172.604 197.426 169.591 196.121 166.68 194.414C164.069 192.807 161.258 190.799 159.451 188.189C156.037 183.068 160.053 175.94 163.266 171.823C163.768 171.221 162.865 170.418 162.463 171.02C159.049 175.337 155.033 182.466 157.945 187.988C159.451 190.799 162.363 192.908 164.973 194.715C168.085 196.723 171.7 198.329 175.214 199.635C175.515 199.735 175.716 199.233 175.415 199.032H175.515Z" fill="#17171E"/>
<path d="M183.547 186.783C182.342 186.281 181.138 185.879 179.933 185.076C178.728 184.273 177.925 183.168 177.122 182.064C176.318 180.859 175.816 179.554 175.616 178.148C175.515 177.445 175.515 176.642 175.616 175.939C175.716 175.237 175.917 174.433 175.816 173.731C175.816 173.53 175.415 173.229 175.214 173.53C174.31 174.735 174.411 176.642 174.611 178.048C174.812 179.654 175.415 181.261 176.318 182.566C177.122 183.771 178.126 184.875 179.33 185.779C180.535 186.683 182.041 187.385 183.447 187.184C183.648 187.184 183.748 186.883 183.447 186.783H183.547Z" fill="#17171E"/>
<path d="M323.81 213.072V212.872L325.03 212.612V199.212H323.05C322.69 199.212 322.37 199.292 322.09 199.452C321.823 199.599 321.603 199.846 321.43 200.192C321.256 200.539 321.123 201.006 321.03 201.592L320.61 204.232H320.27L319.69 198.912H332.69L332.11 204.232H331.77L331.35 201.672C331.27 201.059 331.143 200.579 330.97 200.232C330.796 199.872 330.57 199.612 330.29 199.452C330.023 199.292 329.703 199.212 329.33 199.212H327.33V212.612L328.57 212.872V213.072H323.81ZM344.983 212.872V213.072H340.643V212.872L341.663 212.672V205.992C341.663 205.192 341.523 204.592 341.243 204.192C340.963 203.792 340.557 203.592 340.023 203.592C339.663 203.592 339.303 203.706 338.943 203.932C338.597 204.159 338.257 204.452 337.923 204.812C337.603 205.172 337.31 205.559 337.043 205.972C336.777 206.386 336.563 206.779 336.403 207.152V212.672L337.423 212.872V213.072H333.083V212.872L334.203 212.672V199.072H332.963V198.852L336.403 198.172V206.052L336.563 206.192C336.923 205.499 337.33 204.899 337.783 204.392C338.237 203.872 338.73 203.472 339.263 203.192C339.797 202.912 340.37 202.772 340.983 202.772C341.517 202.772 341.963 202.859 342.323 203.032C342.697 203.192 342.99 203.426 343.203 203.732C343.43 204.039 343.597 204.406 343.703 204.832C343.81 205.259 343.863 205.746 343.863 206.292V212.672L344.983 212.872ZM350.544 202.772C351.611 202.772 352.491 202.986 353.184 203.412C353.891 203.839 354.417 204.419 354.764 205.152C355.124 205.872 355.304 206.699 355.304 207.632H347.404V207.432L353.264 207.212C353.264 206.332 353.164 205.586 352.964 204.972C352.764 204.346 352.464 203.866 352.064 203.532C351.664 203.199 351.157 203.032 350.544 203.032C349.917 203.032 349.371 203.212 348.904 203.572C348.437 203.932 348.077 204.472 347.824 205.192C347.571 205.912 347.444 206.806 347.444 207.872C347.444 208.499 347.531 209.099 347.704 209.672C347.877 210.232 348.124 210.739 348.444 211.192C348.764 211.632 349.157 211.979 349.624 212.232C350.091 212.486 350.624 212.612 351.224 212.612C351.624 212.612 352.017 212.559 352.404 212.452C352.791 212.346 353.151 212.192 353.484 211.992C353.817 211.779 354.117 211.526 354.384 211.232C354.664 210.926 354.904 210.572 355.104 210.172L355.304 210.372C355.011 210.959 354.677 211.446 354.304 211.832C353.931 212.219 353.524 212.526 353.084 212.752C352.644 212.979 352.191 213.139 351.724 213.232C351.257 213.326 350.784 213.372 350.304 213.372C349.504 213.372 348.791 213.232 348.164 212.952C347.537 212.672 347.004 212.299 346.564 211.832C346.124 211.352 345.784 210.799 345.544 210.172C345.317 209.546 345.204 208.879 345.204 208.172C345.204 207.359 345.337 206.626 345.604 205.972C345.871 205.306 346.237 204.732 346.704 204.252C347.184 203.772 347.751 203.406 348.404 203.152C349.057 202.899 349.771 202.772 350.544 202.772ZM371.95 198.172V212.372H373.19V212.572L369.75 213.372V210.232L369.59 210.072C369.444 210.459 369.25 210.852 369.01 211.252C368.784 211.639 368.51 211.992 368.19 212.312C367.87 212.632 367.504 212.886 367.09 213.072C366.69 213.272 366.25 213.372 365.77 213.372C364.97 213.372 364.264 213.152 363.65 212.712C363.037 212.272 362.557 211.666 362.21 210.892C361.877 210.119 361.71 209.239 361.71 208.252C361.71 207.066 361.91 206.066 362.31 205.252C362.71 204.439 363.244 203.826 363.91 203.412C364.59 202.986 365.344 202.772 366.17 202.772C366.784 202.772 367.33 202.879 367.81 203.092C368.304 203.292 368.717 203.552 369.05 203.872C369.384 204.192 369.617 204.532 369.75 204.892V199.192H368.53V198.972L371.95 198.172ZM367.03 203.352C366.417 203.352 365.877 203.559 365.41 203.972C364.957 204.372 364.604 204.919 364.35 205.612C364.097 206.306 363.97 207.099 363.97 207.992C363.97 208.966 364.077 209.792 364.29 210.472C364.504 211.152 364.797 211.672 365.17 212.032C365.557 212.379 366.017 212.552 366.55 212.552C366.95 212.552 367.31 212.452 367.63 212.252C367.964 212.052 368.264 211.779 368.53 211.432C368.797 211.086 369.03 210.686 369.23 210.232C369.43 209.779 369.604 209.292 369.75 208.772V206.612C369.75 206.186 369.684 205.779 369.55 205.392C369.417 204.992 369.23 204.646 368.99 204.352C368.75 204.046 368.464 203.806 368.13 203.632C367.797 203.446 367.43 203.352 367.03 203.352ZM378.878 202.772C379.944 202.772 380.824 202.986 381.518 203.412C382.224 203.839 382.751 204.419 383.098 205.152C383.458 205.872 383.638 206.699 383.638 207.632H375.738V207.432L381.598 207.212C381.598 206.332 381.498 205.586 381.298 204.972C381.098 204.346 380.798 203.866 380.398 203.532C379.998 203.199 379.491 203.032 378.878 203.032C378.251 203.032 377.704 203.212 377.238 203.572C376.771 203.932 376.411 204.472 376.158 205.192C375.904 205.912 375.778 206.806 375.778 207.872C375.778 208.499 375.864 209.099 376.038 209.672C376.211 210.232 376.458 210.739 376.778 211.192C377.098 211.632 377.491 211.979 377.958 212.232C378.424 212.486 378.958 212.612 379.558 212.612C379.958 212.612 380.351 212.559 380.738 212.452C381.124 212.346 381.484 212.192 381.818 211.992C382.151 211.779 382.451 211.526 382.718 211.232C382.998 210.926 383.238 210.572 383.438 210.172L383.638 210.372C383.344 210.959 383.011 211.446 382.638 211.832C382.264 212.219 381.858 212.526 381.418 212.752C380.978 212.979 380.524 213.139 380.058 213.232C379.591 213.326 379.118 213.372 378.638 213.372C377.838 213.372 377.124 213.232 376.498 212.952C375.871 212.672 375.338 212.299 374.898 211.832C374.458 211.352 374.118 210.799 373.878 210.172C373.651 209.546 373.538 208.879 373.538 208.172C373.538 207.359 373.671 206.626 373.938 205.972C374.204 205.306 374.571 204.732 375.038 204.252C375.518 203.772 376.084 203.406 376.738 203.152C377.391 202.899 378.104 202.772 378.878 202.772ZM388.728 213.372C388.128 213.372 387.562 213.319 387.028 213.212C386.508 213.106 386.042 212.946 385.628 212.732C385.228 212.519 384.915 212.266 384.688 211.972C384.462 211.679 384.348 211.352 384.348 210.992C384.348 210.726 384.422 210.506 384.568 210.332C384.728 210.146 384.928 210.006 385.168 209.912C385.408 209.819 385.662 209.772 385.928 209.772C386.195 209.772 386.448 209.819 386.688 209.912C386.928 209.992 387.122 210.112 387.268 210.272C387.415 210.432 387.488 210.626 387.488 210.852C387.488 211.039 387.442 211.206 387.348 211.352C387.268 211.499 387.142 211.639 386.968 211.772C386.755 211.919 386.608 212.039 386.528 212.132C386.448 212.226 386.408 212.326 386.408 212.432C386.408 212.539 386.502 212.646 386.688 212.752C386.875 212.859 387.135 212.952 387.468 213.032C387.815 213.099 388.202 213.132 388.628 213.132C389.228 213.132 389.755 213.059 390.208 212.912C390.662 212.752 391.015 212.526 391.268 212.232C391.535 211.939 391.668 211.566 391.668 211.112C391.668 210.766 391.562 210.452 391.348 210.172C391.135 209.892 390.782 209.626 390.288 209.372C389.795 209.119 389.122 208.859 388.268 208.592C387.322 208.272 386.568 207.952 386.008 207.632C385.462 207.312 385.068 206.972 384.828 206.612C384.602 206.252 384.488 205.859 384.488 205.432C384.488 204.619 384.888 203.972 385.688 203.492C386.502 203.012 387.595 202.772 388.968 202.772C389.715 202.772 390.402 202.872 391.028 203.072C391.655 203.272 392.162 203.552 392.548 203.912C392.935 204.259 393.128 204.672 393.128 205.152C393.128 205.406 393.055 205.619 392.908 205.792C392.762 205.952 392.568 206.072 392.328 206.152C392.102 206.232 391.862 206.272 391.608 206.272C391.408 206.272 391.208 206.252 391.008 206.212C390.822 206.159 390.648 206.092 390.488 206.012C390.342 205.919 390.222 205.806 390.128 205.672C390.035 205.526 389.988 205.359 389.988 205.172C389.988 204.812 390.188 204.499 390.588 204.232C390.802 204.099 390.948 203.986 391.028 203.892C391.108 203.799 391.148 203.712 391.148 203.632C391.148 203.566 391.095 203.492 390.988 203.412C390.882 203.332 390.728 203.266 390.528 203.212C390.342 203.146 390.128 203.099 389.888 203.072C389.648 203.032 389.388 203.012 389.108 203.012C388.508 203.012 387.975 203.079 387.508 203.212C387.042 203.346 386.675 203.546 386.408 203.812C386.142 204.066 386.008 204.379 386.008 204.752C386.008 205.086 386.135 205.406 386.388 205.712C386.642 206.006 387.015 206.279 387.508 206.532C388.002 206.772 388.608 207.012 389.328 207.252C390.328 207.599 391.115 207.926 391.688 208.232C392.275 208.539 392.695 208.859 392.948 209.192C393.202 209.512 393.328 209.886 393.328 210.312C393.328 210.806 393.208 211.246 392.968 211.632C392.728 212.019 392.402 212.339 391.988 212.592C391.575 212.846 391.088 213.039 390.528 213.172C389.982 213.306 389.382 213.372 388.728 213.372ZM395.991 201.152C395.644 201.152 395.338 201.099 395.071 200.992C394.804 200.886 394.598 200.739 394.451 200.552C394.304 200.366 394.231 200.152 394.231 199.912C394.231 199.659 394.304 199.446 394.451 199.272C394.598 199.086 394.804 198.939 395.071 198.832C395.338 198.726 395.644 198.672 395.991 198.672C396.338 198.672 396.644 198.726 396.911 198.832C397.178 198.939 397.384 199.086 397.531 199.272C397.691 199.446 397.771 199.659 397.771 199.912C397.771 200.152 397.691 200.366 397.531 200.552C397.384 200.739 397.178 200.886 396.911 200.992C396.644 201.099 396.338 201.152 395.991 201.152ZM393.891 213.072V212.872L395.011 212.672V203.672H393.771V203.452L397.211 202.772V212.672L398.311 212.872V213.072H393.891ZM403.163 217.372C402.51 217.372 401.903 217.299 401.343 217.152C400.783 217.006 400.296 216.812 399.883 216.572C399.47 216.332 399.143 216.059 398.903 215.752C398.663 215.459 398.543 215.159 398.543 214.852C398.543 214.559 398.616 214.299 398.763 214.072C398.91 213.859 399.103 213.692 399.343 213.572C399.596 213.466 399.876 213.412 400.183 213.412C400.663 213.412 401.05 213.519 401.343 213.732C401.636 213.946 401.783 214.226 401.783 214.572C401.783 214.852 401.723 215.072 401.603 215.232C401.496 215.406 401.356 215.546 401.183 215.652C401.01 215.759 400.836 215.839 400.663 215.892C400.49 215.959 400.343 216.019 400.223 216.072C400.103 216.139 400.043 216.206 400.043 216.272C400.043 216.406 400.17 216.532 400.423 216.652C400.69 216.772 401.03 216.872 401.443 216.952C401.87 217.032 402.323 217.072 402.803 217.072C403.576 217.072 404.25 216.959 404.823 216.732C405.41 216.519 405.856 216.219 406.163 215.832C406.483 215.446 406.643 214.992 406.643 214.472C406.643 214.006 406.516 213.606 406.263 213.272C406.01 212.939 405.61 212.672 405.063 212.472C404.53 212.272 403.816 212.126 402.923 212.032C402.043 211.939 400.963 211.892 399.683 211.892V211.592L402.243 209.552L402.463 209.712L401.003 210.932L401.083 211.112C402.176 211.112 403.143 211.152 403.983 211.232C404.836 211.299 405.57 211.419 406.183 211.592C406.796 211.752 407.303 211.952 407.703 212.192C408.103 212.432 408.396 212.719 408.583 213.052C408.77 213.386 408.863 213.766 408.863 214.192C408.863 214.912 408.63 215.506 408.163 215.972C407.696 216.439 407.036 216.786 406.183 217.012C405.33 217.252 404.323 217.372 403.163 217.372ZM403.703 209.872C403.01 209.872 402.363 209.799 401.763 209.652C401.163 209.506 400.636 209.299 400.183 209.032C399.73 208.752 399.37 208.406 399.103 207.992C398.85 207.579 398.723 207.099 398.723 206.552C398.723 206.006 398.85 205.506 399.103 205.052C399.356 204.586 399.703 204.186 400.143 203.852C400.596 203.506 401.13 203.239 401.743 203.052C402.356 202.866 403.023 202.772 403.743 202.772C404.396 202.772 405.016 202.866 405.603 203.052C406.203 203.226 406.736 203.479 407.203 203.812C407.683 204.132 408.056 204.526 408.323 204.992C408.603 205.459 408.743 205.979 408.743 206.552C408.743 207.006 408.636 207.432 408.423 207.832C408.223 208.232 407.916 208.586 407.503 208.892C407.09 209.199 406.563 209.439 405.923 209.612C405.283 209.786 404.543 209.872 403.703 209.872ZM403.743 209.612C404.33 209.612 404.823 209.499 405.223 209.272C405.636 209.032 405.95 208.699 406.163 208.272C406.39 207.832 406.503 207.319 406.503 206.732C406.503 206.039 406.396 205.419 406.183 204.872C405.97 204.312 405.656 203.866 405.243 203.532C404.843 203.199 404.343 203.032 403.743 203.032C403.156 203.032 402.65 203.199 402.223 203.532C401.81 203.866 401.496 204.312 401.283 204.872C401.07 205.419 400.963 206.039 400.963 206.732C400.963 207.306 401.07 207.812 401.283 208.252C401.51 208.679 401.83 209.012 402.243 209.252C402.67 209.492 403.17 209.612 403.743 209.612ZM405.383 203.232L404.243 202.852C404.536 202.852 404.83 202.819 405.123 202.752C405.43 202.686 405.73 202.599 406.023 202.492C406.316 202.372 406.596 202.252 406.863 202.132C407.13 202.012 407.376 201.899 407.603 201.792C407.843 201.686 408.05 201.592 408.223 201.512L408.783 202.912H405.383V203.232ZM421.597 212.872V213.072H417.037V212.872L418.177 212.672V205.992C418.177 205.192 418.037 204.592 417.757 204.192C417.477 203.792 417.07 203.592 416.537 203.592C416.177 203.592 415.817 203.706 415.457 203.932C415.11 204.159 414.77 204.452 414.437 204.812C414.117 205.172 413.824 205.559 413.557 205.972C413.29 206.386 413.07 206.779 412.897 207.152V212.672L414.037 212.872V213.072H409.597V212.872L410.697 212.672V203.672H409.477V203.452L412.897 202.772V206.052L413.057 206.192C413.43 205.499 413.837 204.899 414.277 204.392C414.73 203.872 415.224 203.472 415.757 203.192C416.304 202.912 416.884 202.772 417.497 202.772C418.03 202.772 418.477 202.859 418.837 203.032C419.197 203.192 419.49 203.426 419.717 203.732C419.944 204.039 420.11 204.406 420.217 204.832C420.324 205.259 420.377 205.746 420.377 206.292V212.672L421.597 212.872ZM429.57 201.152C429.223 201.152 428.917 201.099 428.65 200.992C428.383 200.886 428.177 200.739 428.03 200.552C427.883 200.366 427.81 200.152 427.81 199.912C427.81 199.659 427.883 199.446 428.03 199.272C428.177 199.086 428.383 198.939 428.65 198.832C428.917 198.726 429.223 198.672 429.57 198.672C429.917 198.672 430.223 198.726 430.49 198.832C430.757 198.939 430.963 199.086 431.11 199.272C431.27 199.446 431.35 199.659 431.35 199.912C431.35 200.152 431.27 200.366 431.11 200.552C430.963 200.739 430.757 200.886 430.49 200.992C430.223 201.099 429.917 201.152 429.57 201.152ZM427.47 213.072V212.872L428.59 212.672V203.672H427.35V203.452L430.79 202.772V212.672L431.89 212.872V213.072H427.47ZM436.802 213.372C436.202 213.372 435.635 213.319 435.102 213.212C434.582 213.106 434.115 212.946 433.702 212.732C433.302 212.519 432.989 212.266 432.762 211.972C432.535 211.679 432.422 211.352 432.422 210.992C432.422 210.726 432.495 210.506 432.642 210.332C432.802 210.146 433.002 210.006 433.242 209.912C433.482 209.819 433.735 209.772 434.002 209.772C434.269 209.772 434.522 209.819 434.762 209.912C435.002 209.992 435.195 210.112 435.342 210.272C435.489 210.432 435.562 210.626 435.562 210.852C435.562 211.039 435.515 211.206 435.422 211.352C435.342 211.499 435.215 211.639 435.042 211.772C434.829 211.919 434.682 212.039 434.602 212.132C434.522 212.226 434.482 212.326 434.482 212.432C434.482 212.539 434.575 212.646 434.762 212.752C434.949 212.859 435.209 212.952 435.542 213.032C435.889 213.099 436.275 213.132 436.702 213.132C437.302 213.132 437.829 213.059 438.282 212.912C438.735 212.752 439.089 212.526 439.342 212.232C439.609 211.939 439.742 211.566 439.742 211.112C439.742 210.766 439.635 210.452 439.422 210.172C439.209 209.892 438.855 209.626 438.362 209.372C437.869 209.119 437.195 208.859 436.342 208.592C435.395 208.272 434.642 207.952 434.082 207.632C433.535 207.312 433.142 206.972 432.902 206.612C432.675 206.252 432.562 205.859 432.562 205.432C432.562 204.619 432.962 203.972 433.762 203.492C434.575 203.012 435.669 202.772 437.042 202.772C437.789 202.772 438.475 202.872 439.102 203.072C439.729 203.272 440.235 203.552 440.622 203.912C441.009 204.259 441.202 204.672 441.202 205.152C441.202 205.406 441.129 205.619 440.982 205.792C440.835 205.952 440.642 206.072 440.402 206.152C440.175 206.232 439.935 206.272 439.682 206.272C439.482 206.272 439.282 206.252 439.082 206.212C438.895 206.159 438.722 206.092 438.562 206.012C438.415 205.919 438.295 205.806 438.202 205.672C438.109 205.526 438.062 205.359 438.062 205.172C438.062 204.812 438.262 204.499 438.662 204.232C438.875 204.099 439.022 203.986 439.102 203.892C439.182 203.799 439.222 203.712 439.222 203.632C439.222 203.566 439.169 203.492 439.062 203.412C438.955 203.332 438.802 203.266 438.602 203.212C438.415 203.146 438.202 203.099 437.962 203.072C437.722 203.032 437.462 203.012 437.182 203.012C436.582 203.012 436.049 203.079 435.582 203.212C435.115 203.346 434.749 203.546 434.482 203.812C434.215 204.066 434.082 204.379 434.082 204.752C434.082 205.086 434.209 205.406 434.462 205.712C434.715 206.006 435.089 206.279 435.582 206.532C436.075 206.772 436.682 207.012 437.402 207.252C438.402 207.599 439.189 207.926 439.762 208.232C440.349 208.539 440.769 208.859 441.022 209.192C441.275 209.512 441.402 209.886 441.402 210.312C441.402 210.806 441.282 211.246 441.042 211.632C440.802 212.019 440.475 212.339 440.062 212.592C439.649 212.846 439.162 213.039 438.602 213.172C438.055 213.306 437.455 213.372 436.802 213.372ZM452.72 213.372C451.733 213.372 450.853 213.152 450.08 212.712C449.32 212.272 448.72 211.659 448.28 210.872C447.853 210.086 447.64 209.186 447.64 208.172C447.64 207.359 447.773 206.626 448.04 205.972C448.32 205.306 448.707 204.732 449.2 204.252C449.707 203.772 450.307 203.406 451 203.152C451.707 202.899 452.493 202.772 453.36 202.772C453.88 202.772 454.387 202.832 454.88 202.952C455.373 203.059 455.82 203.226 456.22 203.452C456.62 203.666 456.933 203.932 457.16 204.252C457.387 204.559 457.5 204.912 457.5 205.312C457.5 205.592 457.42 205.826 457.26 206.012C457.113 206.186 456.907 206.319 456.64 206.412C456.373 206.506 456.08 206.552 455.76 206.552C455.28 206.552 454.86 206.452 454.5 206.252C454.153 206.052 453.98 205.752 453.98 205.352C453.98 205.086 454.067 204.852 454.24 204.652C454.427 204.452 454.687 204.306 455.02 204.212C455.527 204.039 455.78 203.886 455.78 203.752C455.78 203.646 455.693 203.539 455.52 203.432C455.347 203.312 455.1 203.219 454.78 203.152C454.46 203.072 454.073 203.032 453.62 203.032C453.06 203.032 452.547 203.159 452.08 203.412C451.627 203.652 451.233 203.992 450.9 204.432C450.567 204.859 450.307 205.359 450.12 205.932C449.947 206.506 449.86 207.126 449.86 207.792C449.86 208.526 449.953 209.192 450.14 209.792C450.327 210.379 450.587 210.886 450.92 211.312C451.253 211.726 451.66 212.046 452.14 212.272C452.62 212.499 453.153 212.612 453.74 212.612C454.287 212.612 454.807 212.519 455.3 212.332C455.793 212.146 456.24 211.872 456.64 211.512C457.04 211.152 457.367 210.706 457.62 210.172L457.82 210.372C457.513 210.972 457.167 211.472 456.78 211.872C456.407 212.259 456 212.566 455.56 212.792C455.12 213.006 454.66 213.152 454.18 213.232C453.7 213.326 453.213 213.372 452.72 213.372ZM463.652 202.772C464.478 202.772 465.212 202.899 465.852 203.152C466.505 203.406 467.052 203.772 467.492 204.252C467.932 204.719 468.265 205.286 468.492 205.952C468.718 206.606 468.832 207.339 468.832 208.152C468.832 208.912 468.718 209.612 468.492 210.252C468.265 210.879 467.932 211.432 467.492 211.912C467.052 212.379 466.512 212.739 465.872 212.992C465.232 213.246 464.492 213.372 463.652 213.372C462.798 213.372 462.045 213.246 461.392 212.992C460.752 212.739 460.212 212.379 459.772 211.912C459.332 211.432 458.998 210.879 458.772 210.252C458.558 209.612 458.452 208.912 458.452 208.152C458.452 207.339 458.572 206.606 458.812 205.952C459.052 205.286 459.392 204.719 459.832 204.252C460.285 203.772 460.832 203.406 461.472 203.152C462.112 202.899 462.838 202.772 463.652 202.772ZM463.652 203.032C462.998 203.032 462.452 203.252 462.012 203.692C461.585 204.132 461.258 204.739 461.032 205.512C460.818 206.286 460.712 207.166 460.712 208.152C460.712 208.859 460.765 209.512 460.872 210.112C460.992 210.712 461.172 211.239 461.412 211.692C461.665 212.146 461.978 212.499 462.352 212.752C462.725 212.992 463.158 213.112 463.652 213.112C464.132 213.112 464.552 212.992 464.912 212.752C465.285 212.499 465.598 212.152 465.852 211.712C466.105 211.259 466.292 210.732 466.412 210.132C466.532 209.519 466.592 208.859 466.592 208.152C466.592 207.406 466.532 206.726 466.412 206.112C466.292 205.486 466.112 204.946 465.872 204.492C465.632 204.026 465.325 203.666 464.952 203.412C464.578 203.159 464.145 203.032 463.652 203.032ZM481.459 212.872V213.072H476.899V212.872L478.039 212.672V205.992C478.039 205.192 477.899 204.592 477.619 204.192C477.339 203.792 476.932 203.592 476.399 203.592C476.039 203.592 475.679 203.706 475.319 203.932C474.972 204.159 474.632 204.452 474.299 204.812C473.979 205.172 473.685 205.559 473.419 205.972C473.152 206.386 472.932 206.779 472.759 207.152V212.672L473.899 212.872V213.072H469.459V212.872L470.559 212.672V203.672H469.339V203.452L472.759 202.772V206.052L472.919 206.192C473.292 205.499 473.699 204.899 474.139 204.392C474.592 203.872 475.085 203.472 475.619 203.192C476.165 202.912 476.745 202.772 477.359 202.772C477.892 202.772 478.339 202.859 478.699 203.032C479.059 203.192 479.352 203.426 479.579 203.732C479.805 204.039 479.972 204.406 480.079 204.832C480.185 205.259 480.239 205.746 480.239 206.292V212.672L481.459 212.872ZM484.496 213.372C483.79 213.372 483.276 213.166 482.956 212.752C482.65 212.326 482.496 211.679 482.496 210.812V203.472H481.076V203.272L482.516 203.072L484.416 199.792H484.696V202.932L486.836 203.272V203.472H484.696V211.512C484.696 211.979 484.763 212.312 484.896 212.512C485.03 212.712 485.21 212.812 485.436 212.812C485.676 212.812 485.903 212.732 486.116 212.572C486.343 212.399 486.57 212.186 486.796 211.932L486.876 212.172C486.743 212.319 486.583 212.466 486.396 212.612C486.223 212.746 486.03 212.872 485.816 212.992C485.616 213.112 485.403 213.206 485.176 213.272C484.963 213.339 484.736 213.372 484.496 213.372ZM489.256 201.152C488.909 201.152 488.603 201.099 488.336 200.992C488.069 200.886 487.863 200.739 487.716 200.552C487.569 200.366 487.496 200.152 487.496 199.912C487.496 199.659 487.569 199.446 487.716 199.272C487.863 199.086 488.069 198.939 488.336 198.832C488.603 198.726 488.909 198.672 489.256 198.672C489.603 198.672 489.909 198.726 490.176 198.832C490.443 198.939 490.649 199.086 490.796 199.272C490.956 199.446 491.036 199.659 491.036 199.912C491.036 200.152 490.956 200.366 490.796 200.552C490.649 200.739 490.443 200.886 490.176 200.992C489.909 201.099 489.603 201.152 489.256 201.152ZM487.156 213.072V212.872L488.276 212.672V203.672H487.036V203.452L490.476 202.772V212.672L491.576 212.872V213.072H487.156ZM504.148 212.872V213.072H499.588V212.872L500.728 212.672V205.992C500.728 205.192 500.588 204.592 500.308 204.192C500.028 203.792 499.621 203.592 499.088 203.592C498.728 203.592 498.368 203.706 498.008 203.932C497.661 204.159 497.321 204.452 496.988 204.812C496.668 205.172 496.375 205.559 496.108 205.972C495.841 206.386 495.621 206.779 495.448 207.152V212.672L496.588 212.872V213.072H492.148V212.872L493.248 212.672V203.672H492.028V203.452L495.448 202.772V206.052L495.608 206.192C495.981 205.499 496.388 204.899 496.828 204.392C497.281 203.872 497.775 203.472 498.308 203.192C498.855 202.912 499.435 202.772 500.048 202.772C500.581 202.772 501.028 202.859 501.388 203.032C501.748 203.192 502.041 203.426 502.268 203.732C502.495 204.039 502.661 204.406 502.768 204.832C502.875 205.259 502.928 205.746 502.928 206.292V212.672L504.148 212.872ZM508.045 213.372C507.099 213.372 506.385 213.079 505.905 212.492C505.425 211.906 505.185 211.019 505.185 209.832V203.672H503.945V203.452L507.385 202.772V210.152C507.385 210.939 507.525 211.539 507.805 211.952C508.085 212.352 508.492 212.552 509.025 212.552C509.465 212.552 509.912 212.399 510.365 212.092C510.819 211.772 511.245 211.346 511.645 210.812C512.045 210.266 512.379 209.652 512.645 208.972V203.672H511.425V203.452L514.845 202.772V212.472H516.065V212.692L512.645 213.372V210.072L512.485 209.952C511.899 211.086 511.232 211.939 510.485 212.512C509.739 213.086 508.925 213.372 508.045 213.372ZM518.39 201.152C518.044 201.152 517.737 201.099 517.47 200.992C517.204 200.886 516.997 200.739 516.85 200.552C516.704 200.366 516.63 200.152 516.63 199.912C516.63 199.659 516.704 199.446 516.85 199.272C516.997 199.086 517.204 198.939 517.47 198.832C517.737 198.726 518.044 198.672 518.39 198.672C518.737 198.672 519.044 198.726 519.31 198.832C519.577 198.939 519.784 199.086 519.93 199.272C520.09 199.446 520.17 199.659 520.17 199.912C520.17 200.152 520.09 200.366 519.93 200.552C519.784 200.739 519.577 200.886 519.31 200.992C519.044 201.099 518.737 201.152 518.39 201.152ZM516.29 213.072V212.872L517.41 212.672V203.672H516.17V203.452L519.61 202.772V212.672L520.71 212.872V213.072H516.29ZM533.282 212.872V213.072H528.722V212.872L529.862 212.672V205.992C529.862 205.192 529.722 204.592 529.442 204.192C529.162 203.792 528.756 203.592 528.222 203.592C527.862 203.592 527.502 203.706 527.142 203.932C526.796 204.159 526.456 204.452 526.122 204.812C525.802 205.172 525.509 205.559 525.242 205.972C524.976 206.386 524.756 206.779 524.582 207.152V212.672L525.722 212.872V213.072H521.282V212.872L522.382 212.672V203.672H521.162V203.452L524.582 202.772V206.052L524.742 206.192C525.116 205.499 525.522 204.899 525.962 204.392C526.416 203.872 526.909 203.472 527.442 203.192C527.989 202.912 528.569 202.772 529.182 202.772C529.716 202.772 530.162 202.859 530.522 203.032C530.882 203.192 531.176 203.426 531.402 203.732C531.629 204.039 531.796 204.406 531.902 204.832C532.009 205.259 532.062 205.746 532.062 206.292V212.672L533.282 212.872ZM537.8 217.372C537.146 217.372 536.54 217.299 535.98 217.152C535.42 217.006 534.933 216.812 534.52 216.572C534.106 216.332 533.78 216.059 533.54 215.752C533.3 215.459 533.18 215.159 533.18 214.852C533.18 214.559 533.253 214.299 533.4 214.072C533.546 213.859 533.74 213.692 533.98 213.572C534.233 213.466 534.513 213.412 534.82 213.412C535.3 213.412 535.686 213.519 535.98 213.732C536.273 213.946 536.42 214.226 536.42 214.572C536.42 214.852 536.36 215.072 536.24 215.232C536.133 215.406 535.993 215.546 535.82 215.652C535.646 215.759 535.473 215.839 535.3 215.892C535.126 215.959 534.98 216.019 534.86 216.072C534.74 216.139 534.68 216.206 534.68 216.272C534.68 216.406 534.806 216.532 535.06 216.652C535.326 216.772 535.666 216.872 536.08 216.952C536.506 217.032 536.96 217.072 537.44 217.072C538.213 217.072 538.886 216.959 539.46 216.732C540.046 216.519 540.493 216.219 540.8 215.832C541.12 215.446 541.28 214.992 541.28 214.472C541.28 214.006 541.153 213.606 540.9 213.272C540.646 212.939 540.246 212.672 539.7 212.472C539.166 212.272 538.453 212.126 537.56 212.032C536.68 211.939 535.6 211.892 534.32 211.892V211.592L536.88 209.552L537.1 209.712L535.64 210.932L535.72 211.112C536.813 211.112 537.78 211.152 538.62 211.232C539.473 211.299 540.206 211.419 540.82 211.592C541.433 211.752 541.94 211.952 542.34 212.192C542.74 212.432 543.033 212.719 543.22 213.052C543.406 213.386 543.5 213.766 543.5 214.192C543.5 214.912 543.266 215.506 542.8 215.972C542.333 216.439 541.673 216.786 540.82 217.012C539.966 217.252 538.96 217.372 537.8 217.372ZM538.34 209.872C537.646 209.872 537 209.799 536.4 209.652C535.8 209.506 535.273 209.299 534.82 209.032C534.366 208.752 534.006 208.406 533.74 207.992C533.486 207.579 533.36 207.099 533.36 206.552C533.36 206.006 533.486 205.506 533.74 205.052C533.993 204.586 534.34 204.186 534.78 203.852C535.233 203.506 535.766 203.239 536.38 203.052C536.993 202.866 537.66 202.772 538.38 202.772C539.033 202.772 539.653 202.866 540.24 203.052C540.84 203.226 541.373 203.479 541.84 203.812C542.32 204.132 542.693 204.526 542.96 204.992C543.24 205.459 543.38 205.979 543.38 206.552C543.38 207.006 543.273 207.432 543.06 207.832C542.86 208.232 542.553 208.586 542.14 208.892C541.726 209.199 541.2 209.439 540.56 209.612C539.92 209.786 539.18 209.872 538.34 209.872ZM538.38 209.612C538.966 209.612 539.46 209.499 539.86 209.272C540.273 209.032 540.586 208.699 540.8 208.272C541.026 207.832 541.14 207.319 541.14 206.732C541.14 206.039 541.033 205.419 540.82 204.872C540.606 204.312 540.293 203.866 539.88 203.532C539.48 203.199 538.98 203.032 538.38 203.032C537.793 203.032 537.286 203.199 536.86 203.532C536.446 203.866 536.133 204.312 535.92 204.872C535.706 205.419 535.6 206.039 535.6 206.732C535.6 207.306 535.706 207.812 535.92 208.252C536.146 208.679 536.466 209.012 536.88 209.252C537.306 209.492 537.806 209.612 538.38 209.612ZM540.02 203.232L538.88 202.852C539.173 202.852 539.466 202.819 539.76 202.752C540.066 202.686 540.366 202.599 540.66 202.492C540.953 202.372 541.233 202.252 541.5 202.132C541.766 202.012 542.013 201.899 542.24 201.792C542.48 201.686 542.686 201.592 542.86 201.512L543.42 202.912H540.02V203.232ZM551.229 210.912C551.483 210.912 551.709 210.959 551.909 211.052C552.123 211.146 552.296 211.286 552.429 211.472C552.563 211.659 552.629 211.886 552.629 212.152C552.629 212.406 552.563 212.626 552.429 212.812C552.296 212.999 552.123 213.139 551.909 213.232C551.709 213.326 551.483 213.372 551.229 213.372C550.989 213.372 550.756 213.326 550.529 213.232C550.316 213.139 550.143 212.999 550.009 212.812C549.876 212.626 549.809 212.406 549.809 212.152C549.809 211.886 549.876 211.659 550.009 211.472C550.143 211.286 550.316 211.146 550.529 211.052C550.756 210.959 550.989 210.912 551.229 210.912ZM554.482 210.912C554.736 210.912 554.962 210.959 555.162 211.052C555.376 211.146 555.549 211.286 555.682 211.472C555.816 211.659 555.882 211.886 555.882 212.152C555.882 212.406 555.816 212.626 555.682 212.812C555.549 212.999 555.376 213.139 555.162 213.232C554.962 213.326 554.736 213.372 554.482 213.372C554.242 213.372 554.009 213.326 553.782 213.232C553.569 213.139 553.396 212.999 553.262 212.812C553.129 212.626 553.062 212.406 553.062 212.152C553.062 211.886 553.129 211.659 553.262 211.472C553.396 211.286 553.569 211.146 553.782 211.052C554.009 210.959 554.242 210.912 554.482 210.912ZM557.736 210.912C557.989 210.912 558.216 210.959 558.416 211.052C558.629 211.146 558.802 211.286 558.936 211.472C559.069 211.659 559.136 211.886 559.136 212.152C559.136 212.406 559.069 212.626 558.936 212.812C558.802 212.999 558.629 213.139 558.416 213.232C558.216 213.326 557.989 213.372 557.736 213.372C557.496 213.372 557.262 213.326 557.036 213.232C556.822 213.139 556.649 212.999 556.516 212.812C556.382 212.626 556.316 212.406 556.316 212.152C556.316 211.886 556.382 211.659 556.516 211.472C556.649 211.286 556.822 211.146 557.036 211.052C557.262 210.959 557.496 210.912 557.736 210.912Z" fill="#3863B7"/>
</svg>
