<svg width="25" height="24" viewBox="0 0 25 24" fill="none" xmlns="http://www.w3.org/2000/svg">
<g clip-path="url(#clip0_1009_440)">
<path d="M8.16667 3C6.97161 3 6 4.00898 6 5.25V18.75C6 19.991 6.97161 21 8.16667 21H16.8333C18.0284 21 19 19.991 19 18.75V8.625H14.6667C14.0674 8.625 13.5833 8.12227 13.5833 7.5V3H8.16667ZM14.6667 3V7.5H19L14.6667 3ZM13.3125 11.1562V14.7457L14.362 13.6559C14.6802 13.3254 15.1948 13.3254 15.5096 13.6559C15.8245 13.9863 15.8279 14.5207 15.5096 14.8477L13.0721 17.3789C12.7539 17.7094 12.2393 17.7094 11.9245 17.3789L9.48698 14.8477C9.16875 14.5172 9.16875 13.9828 9.48698 13.6559C9.80521 13.3289 10.3198 13.3254 10.6346 13.6559L11.6841 14.7457L11.6875 11.1562C11.6875 10.6887 12.0497 10.3125 12.5 10.3125C12.9503 10.3125 13.3125 10.6887 13.3125 11.1562Z" fill="white"/>
</g>
<defs>
<clipPath id="clip0_1009_440">
<rect width="13" height="18" fill="white" transform="translate(6 3)"/>
</clipPath>
</defs>
</svg>
