<svg width="48" height="48" viewBox="0 0 48 48" fill="none" xmlns="http://www.w3.org/2000/svg">
<g clip-path="url(#clip0_1009_357)">
<path d="M15.3333 6C12.9432 6 11 8.01797 11 10.5V37.5C11 39.982 12.9432 42 15.3333 42H32.6667C35.0568 42 37 39.982 37 37.5V17.25H28.3333C27.1349 17.25 26.1667 16.2445 26.1667 15V6H15.3333ZM28.3333 6V15H37L28.3333 6ZM25.625 22.3125V29.4914L27.724 27.3117C28.3604 26.6508 29.3896 26.6508 30.0193 27.3117C30.649 27.9727 30.6557 29.0414 30.0193 29.6953L25.1443 34.7578C24.5078 35.4188 23.4786 35.4188 22.849 34.7578L17.974 29.6953C17.3375 29.0344 17.3375 27.9656 17.974 27.3117C18.6104 26.6578 19.6396 26.6508 20.2693 27.3117L22.3682 29.4914L22.375 22.3125C22.375 21.3773 23.0995 20.625 24 20.625C24.9005 20.625 25.625 21.3773 25.625 22.3125Z" fill="#0158FF"/>
</g>
<defs>
<clipPath id="clip0_1009_357">
<rect width="26" height="36" fill="white" transform="translate(11 6)"/>
</clipPath>
</defs>
</svg>
