<svg width="1440" height="640" viewBox="0 0 1440 640" fill="none" xmlns="http://www.w3.org/2000/svg">
<rect width="1440" height="640" fill="#FFFBE6"/>
<path d="M397.24 164.68V165.08L394.8 165.6V192.08L397.24 192.6V193H387.92V192.6L390.2 192.08V165.6L387.92 165.08V164.68H397.24ZM378.48 164.68V165.08L376.2 165.6V192.08L378.48 192.6V193H369.16V192.6L371.6 192.08V165.6L369.16 165.08V164.68H378.48ZM390.48 178.88V179.76H375.88V179.36L390.48 178.88ZM409.463 172.4C411.596 172.4 413.356 172.827 414.743 173.68C416.156 174.533 417.209 175.693 417.903 177.16C418.623 178.6 418.983 180.253 418.983 182.12H403.183V181.72L414.903 181.28C414.903 179.52 414.703 178.027 414.303 176.8C413.903 175.547 413.303 174.587 412.503 173.92C411.703 173.253 410.689 172.92 409.463 172.92C408.209 172.92 407.116 173.28 406.183 174C405.249 174.72 404.529 175.8 404.023 177.24C403.516 178.68 403.263 180.467 403.263 182.6C403.263 183.853 403.436 185.053 403.783 186.2C404.129 187.32 404.623 188.333 405.263 189.24C405.903 190.12 406.689 190.813 407.623 191.32C408.556 191.827 409.623 192.08 410.823 192.08C411.623 192.08 412.409 191.973 413.183 191.76C413.956 191.547 414.676 191.24 415.343 190.84C416.009 190.413 416.609 189.907 417.143 189.32C417.703 188.707 418.183 188 418.583 187.2L418.983 187.6C418.396 188.773 417.729 189.747 416.983 190.52C416.236 191.293 415.423 191.907 414.543 192.36C413.663 192.813 412.756 193.133 411.823 193.32C410.889 193.507 409.943 193.6 408.983 193.6C407.383 193.6 405.956 193.32 404.703 192.76C403.449 192.2 402.383 191.453 401.503 190.52C400.623 189.56 399.943 188.453 399.463 187.2C399.009 185.947 398.783 184.613 398.783 183.2C398.783 181.573 399.049 180.107 399.583 178.8C400.116 177.467 400.849 176.32 401.783 175.36C402.743 174.4 403.876 173.667 405.183 173.16C406.489 172.653 407.916 172.4 409.463 172.4ZM424.143 201.6C423.156 201.6 422.33 201.44 421.663 201.12C420.996 200.8 420.476 200.36 420.103 199.8C419.756 199.267 419.583 198.653 419.583 197.96C419.583 197.533 419.663 197.173 419.823 196.88C420.01 196.587 420.25 196.333 420.543 196.12C420.863 195.933 421.196 195.787 421.543 195.68C421.916 195.573 422.303 195.52 422.703 195.52C423.156 195.52 423.596 195.6 424.023 195.76C424.45 195.92 424.796 196.147 425.063 196.44C425.33 196.76 425.463 197.16 425.463 197.64C425.463 198.013 425.41 198.36 425.303 198.68C425.196 199 425.05 199.293 424.863 199.56C424.703 199.827 424.57 200.027 424.463 200.16C424.383 200.32 424.343 200.453 424.343 200.56C424.343 200.747 424.636 200.84 425.223 200.84C425.703 200.84 426.196 200.653 426.703 200.28C427.21 199.907 427.676 199.36 428.103 198.64C428.45 198.133 428.823 197.373 429.223 196.36C429.65 195.373 430.076 194.253 430.503 193H428.343L420.583 173.8L418.103 173.4V173H427.783V173.4L425.343 173.76L431.463 189.28H431.943L435.303 179.76C435.41 179.44 435.49 179.093 435.543 178.72C435.623 178.32 435.663 177.92 435.663 177.52C435.663 177.04 435.596 176.56 435.463 176.08C435.356 175.6 435.156 175.16 434.863 174.76C434.596 174.36 434.21 174.04 433.703 173.8C433.196 173.533 432.556 173.4 431.783 173.4V173H440.663V173.4L438.143 173.8L431.063 193C430.503 194.547 429.996 195.84 429.543 196.88C429.09 197.92 428.716 198.653 428.423 199.08C427.943 199.853 427.356 200.467 426.663 200.92C425.97 201.373 425.13 201.6 424.143 201.6ZM457.847 193.6C456.434 193.6 455.407 193.187 454.767 192.36C454.154 191.507 453.847 190.213 453.847 188.48V173.8H451.007V173.4L453.887 173L457.687 166.44H458.247V172.72L462.527 173.4V173.8H458.247V189.88C458.247 190.813 458.38 191.48 458.647 191.88C458.914 192.28 459.274 192.48 459.727 192.48C460.207 192.48 460.66 192.32 461.087 192C461.54 191.653 461.994 191.227 462.447 190.72L462.607 191.2C462.34 191.493 462.02 191.787 461.647 192.08C461.3 192.347 460.914 192.6 460.487 192.84C460.087 193.08 459.66 193.267 459.207 193.4C458.78 193.533 458.327 193.6 457.847 193.6ZM486.966 192.6V193H478.286V192.6L480.326 192.2V178.84C480.326 177.24 480.046 176.04 479.486 175.24C478.926 174.44 478.113 174.04 477.046 174.04C476.326 174.04 475.606 174.267 474.886 174.72C474.193 175.173 473.513 175.76 472.846 176.48C472.206 177.2 471.62 177.973 471.086 178.8C470.553 179.627 470.126 180.413 469.806 181.16V192.2L471.846 192.6V193H463.166V192.6L465.406 192.2V165H462.926V164.56L469.806 163.2V178.96L470.126 179.24C470.846 177.853 471.66 176.653 472.566 175.64C473.473 174.6 474.46 173.8 475.526 173.24C476.593 172.68 477.74 172.4 478.966 172.4C480.033 172.4 480.926 172.573 481.646 172.92C482.393 173.24 482.98 173.707 483.406 174.32C483.86 174.933 484.193 175.667 484.406 176.52C484.62 177.373 484.726 178.347 484.726 179.44V192.2L486.966 192.6ZM498.088 172.4C500.221 172.4 501.981 172.827 503.368 173.68C504.781 174.533 505.834 175.693 506.528 177.16C507.248 178.6 507.608 180.253 507.608 182.12H491.808V181.72L503.528 181.28C503.528 179.52 503.328 178.027 502.928 176.8C502.528 175.547 501.928 174.587 501.128 173.92C500.328 173.253 499.314 172.92 498.088 172.92C496.834 172.92 495.741 173.28 494.808 174C493.874 174.72 493.154 175.8 492.648 177.24C492.141 178.68 491.888 180.467 491.888 182.6C491.888 183.853 492.061 185.053 492.408 186.2C492.754 187.32 493.248 188.333 493.888 189.24C494.528 190.12 495.314 190.813 496.248 191.32C497.181 191.827 498.248 192.08 499.448 192.08C500.248 192.08 501.034 191.973 501.808 191.76C502.581 191.547 503.301 191.24 503.968 190.84C504.634 190.413 505.234 189.907 505.768 189.32C506.328 188.707 506.808 188 507.208 187.2L507.608 187.6C507.021 188.773 506.354 189.747 505.608 190.52C504.861 191.293 504.048 191.907 503.168 192.36C502.288 192.813 501.381 193.133 500.448 193.32C499.514 193.507 498.568 193.6 497.608 193.6C496.008 193.6 494.581 193.32 493.328 192.76C492.074 192.2 491.008 191.453 490.128 190.52C489.248 189.56 488.568 188.453 488.088 187.2C487.634 185.947 487.408 184.613 487.408 183.2C487.408 181.573 487.674 180.107 488.208 178.8C488.741 177.467 489.474 176.32 490.408 175.36C491.368 174.4 492.501 173.667 493.808 173.16C495.114 172.653 496.541 172.4 498.088 172.4ZM509.109 193V192.6L511.309 192.12V174.2H508.869V173.76L515.709 172.4V178.76L516.029 179.08C516.429 178.173 516.816 177.36 517.189 176.64C517.563 175.92 517.936 175.32 518.309 174.84C518.976 173.987 519.669 173.373 520.389 173C521.136 172.6 521.949 172.4 522.829 172.4C523.443 172.4 524.003 172.52 524.509 172.76C525.043 173 525.469 173.36 525.789 173.84C526.136 174.293 526.309 174.88 526.309 175.6C526.309 176.133 526.163 176.627 525.869 177.08C525.603 177.533 525.216 177.907 524.709 178.2C524.203 178.467 523.589 178.6 522.869 178.6C522.229 178.6 521.656 178.493 521.149 178.28C520.643 178.04 520.243 177.72 519.949 177.32C519.683 176.92 519.549 176.48 519.549 176C519.549 175.787 519.563 175.613 519.589 175.48C519.643 175.32 519.683 175.173 519.709 175.04C519.736 174.88 519.749 174.76 519.749 174.68C519.749 174.493 519.683 174.4 519.549 174.4C519.283 174.4 518.963 174.64 518.589 175.12C518.243 175.573 517.843 176.253 517.389 177.16C517.096 177.693 516.803 178.333 516.509 179.08C516.216 179.827 515.949 180.6 515.709 181.4V192.12L517.949 192.6V193H509.109ZM536.843 172.4C538.976 172.4 540.736 172.827 542.123 173.68C543.536 174.533 544.589 175.693 545.283 177.16C546.003 178.6 546.363 180.253 546.363 182.12H530.563V181.72L542.283 181.28C542.283 179.52 542.083 178.027 541.683 176.8C541.283 175.547 540.683 174.587 539.883 173.92C539.083 173.253 538.069 172.92 536.843 172.92C535.589 172.92 534.496 173.28 533.563 174C532.629 174.72 531.909 175.8 531.403 177.24C530.896 178.68 530.643 180.467 530.643 182.6C530.643 183.853 530.816 185.053 531.163 186.2C531.509 187.32 532.003 188.333 532.643 189.24C533.283 190.12 534.069 190.813 535.003 191.32C535.936 191.827 537.003 192.08 538.203 192.08C539.003 192.08 539.789 191.973 540.563 191.76C541.336 191.547 542.056 191.24 542.723 190.84C543.389 190.413 543.989 189.907 544.523 189.32C545.083 188.707 545.563 188 545.963 187.2L546.363 187.6C545.776 188.773 545.109 189.747 544.363 190.52C543.616 191.293 542.803 191.907 541.923 192.36C541.043 192.813 540.136 193.133 539.203 193.32C538.269 193.507 537.323 193.6 536.363 193.6C534.763 193.6 533.336 193.32 532.083 192.76C530.829 192.2 529.763 191.453 528.883 190.52C528.003 189.56 527.323 188.453 526.843 187.2C526.389 185.947 526.163 184.613 526.163 183.2C526.163 181.573 526.429 180.107 526.963 178.8C527.496 177.467 528.229 176.32 529.163 175.36C530.123 174.4 531.256 173.667 532.563 173.16C533.869 172.653 535.296 172.4 536.843 172.4ZM564.455 160.4C565.095 160.4 565.615 160.627 566.015 161.08C566.442 161.507 566.655 162.147 566.655 163C566.655 163.64 566.602 164.293 566.495 164.96C566.415 165.6 566.295 166.307 566.135 167.08C565.975 167.853 565.802 168.747 565.615 169.76C565.455 170.773 565.295 171.96 565.135 173.32C564.975 174.68 564.842 176.267 564.735 178.08C564.628 179.893 564.575 181.987 564.575 184.36H564.255C564.255 181.987 564.202 179.893 564.095 178.08C563.988 176.267 563.855 174.68 563.695 173.32C563.535 171.96 563.362 170.773 563.175 169.76C563.015 168.72 562.855 167.813 562.695 167.04C562.535 166.267 562.402 165.56 562.295 164.92C562.215 164.253 562.175 163.613 562.175 163C562.175 162.147 562.388 161.507 562.815 161.08C563.242 160.627 563.788 160.4 564.455 160.4ZM564.455 188.68C564.935 188.68 565.375 188.773 565.775 188.96C566.202 189.147 566.548 189.427 566.815 189.8C567.082 190.173 567.215 190.627 567.215 191.16C567.215 191.667 567.082 192.107 566.815 192.48C566.548 192.853 566.202 193.133 565.775 193.32C565.375 193.507 564.935 193.6 564.455 193.6C563.948 193.6 563.468 193.507 563.015 193.32C562.588 193.133 562.242 192.853 561.975 192.48C561.735 192.107 561.615 191.667 561.615 191.16C561.615 190.627 561.735 190.173 561.975 189.8C562.242 189.427 562.588 189.147 563.015 188.96C563.468 188.773 563.948 188.68 564.455 188.68ZM591.988 164.68V165.08L589.548 165.6V192.08L591.988 192.6V193H582.508V192.6L584.948 192.08V165.6L582.508 165.08V164.68H591.988ZM596.298 171.8L596.098 171.36C596.471 171.2 596.831 171.013 597.178 170.8C597.524 170.587 597.831 170.36 598.098 170.12C598.391 169.853 598.618 169.6 598.778 169.36L598.378 169H597.978C597.418 169 596.924 168.893 596.498 168.68C596.098 168.467 595.778 168.173 595.538 167.8C595.324 167.427 595.218 167 595.218 166.52C595.218 166.04 595.338 165.613 595.578 165.24C595.844 164.867 596.191 164.587 596.618 164.4C597.044 164.187 597.524 164.08 598.058 164.08C598.591 164.08 599.071 164.187 599.498 164.4C599.924 164.613 600.258 164.907 600.498 165.28C600.738 165.653 600.858 166.08 600.858 166.56C600.858 167.147 600.738 167.707 600.498 168.24C600.284 168.747 599.978 169.227 599.578 169.68C599.178 170.133 598.698 170.547 598.138 170.92C597.578 171.267 596.964 171.56 596.298 171.8ZM603.598 193V192.6L605.798 192.12V174.48H603.358V174.04L610.198 172.68V178.96L610.518 179.24C611.132 177.933 611.865 176.76 612.718 175.72C613.572 174.68 614.518 173.867 615.558 173.28C616.625 172.693 617.758 172.4 618.958 172.4C619.918 172.4 620.758 172.547 621.478 172.84C622.198 173.133 622.798 173.573 623.278 174.16C623.758 174.72 624.105 175.427 624.318 176.28C624.558 177.133 624.678 178.12 624.678 179.24V192.12L626.958 192.6V193H617.998V192.6L620.278 192.12V178.84C620.278 177.24 619.998 176.04 619.438 175.24C618.905 174.44 618.092 174.04 616.998 174.04C616.358 174.04 615.705 174.267 615.038 174.72C614.398 175.147 613.772 175.72 613.158 176.44C612.545 177.16 611.985 177.933 611.478 178.76C610.998 179.587 610.572 180.387 610.198 181.16V192.12L612.478 192.6V193H603.598ZM632.478 193V192.6L634.758 192.12V178.84C634.758 177.24 634.478 176.04 633.918 175.24C633.358 174.44 632.545 174.04 631.478 174.04C630.812 174.04 630.145 174.267 629.478 174.72C628.838 175.147 628.212 175.72 627.598 176.44C627.012 177.16 626.465 177.933 625.958 178.76C625.452 179.587 625.025 180.387 624.678 181.16V178.96L624.998 179.24C625.612 177.933 626.332 176.76 627.158 175.72C628.012 174.68 628.972 173.867 630.038 173.28C631.105 172.693 632.225 172.4 633.398 172.4C634.465 172.4 635.358 172.573 636.078 172.92C636.825 173.24 637.412 173.707 637.838 174.32C638.292 174.933 638.625 175.667 638.838 176.52C639.052 177.373 639.158 178.347 639.158 179.44V192.12L641.598 192.6V193H632.478Z" fill="#0158FF"/>
<path d="M410.52 370.4C401.453 370.4 393.667 369.547 387.16 367.84C380.76 366.027 375.8 363.52 372.28 360.32C368.867 357.013 367.16 353.12 367.16 348.64C367.16 345.653 367.8 343.147 369.08 341.12C370.467 338.987 372.28 337.28 374.52 336C376.76 334.72 379.213 333.813 381.88 333.28C384.653 332.64 387.373 332.32 390.04 332.32C393.133 332.32 395.907 332.8 398.36 333.76C400.92 334.613 402.947 335.893 404.44 337.6C405.933 339.2 406.68 341.12 406.68 343.36C406.68 345.813 406.147 347.893 405.08 349.6C404.12 351.307 402.84 352.747 401.24 353.92C399.64 355.093 397.933 356.053 396.12 356.8C394.307 357.547 392.6 358.24 391 358.88C389.4 359.52 388.067 360.213 387 360.96C386.04 361.6 385.56 362.453 385.56 363.52C385.56 364.16 386.093 364.853 387.16 365.6C388.333 366.24 389.827 366.827 391.64 367.36C393.56 367.787 395.533 368 397.56 368C400.013 368 402.413 367.573 404.76 366.72C407.107 365.76 409.133 363.893 410.84 361.12C412.547 358.24 413.667 354.027 414.2 348.48C414.84 342.933 414.68 335.467 413.72 326.08V257.92L399.32 256.32V254.72H452.92V332C452.92 342.56 451.32 350.613 448.12 356.16C445.027 361.707 440.333 365.493 434.04 367.52C427.853 369.44 420.013 370.4 410.52 370.4ZM536.869 254.72V256.32L528.869 257.92V364.8L536.869 366.4V368H481.669V366.4L489.669 364.8V257.92L481.669 256.32V254.72H536.869ZM556.831 368V366.4L564.991 364.8L610.591 254.72H634.911L678.751 364.8L686.431 366.4V368H625.151V367.2L636.351 364.96L603.711 283.04H601.631L600.991 284.64C597.365 293.707 594.591 302.4 592.671 310.72C590.858 318.933 589.951 326.187 589.951 332.48C589.951 338.667 590.858 344.373 592.671 349.6C594.591 354.72 597.471 358.827 601.311 361.92C605.258 364.907 610.325 366.4 616.511 366.4V368H556.831ZM583.551 322.4V320.8L620.351 317.6V322.4H583.551ZM713.016 368V366.4L721.016 364V324.48L686.136 257.92L678.456 256.32V254.72H742.936V256.32L729.816 257.76L757.496 310.88H760.696L761.336 309.76C764.323 304.533 766.563 299.627 768.056 295.04C769.55 290.453 770.296 286.56 770.296 283.36C770.296 278.027 768.856 273.12 765.976 268.64C763.203 264.053 758.99 259.947 753.336 256.32V254.72H798.776V256.32L791.096 257.92L760.216 316.96V364L768.216 366.4V368H713.016ZM877.451 368C861.025 368 848.438 363.84 839.691 355.52C831.051 347.093 826.731 335.093 826.731 319.52V257.76L818.731 256.32V254.72H875.531V256.32L865.931 257.76V314.88C865.931 327.787 868.225 337.707 872.811 344.64C877.398 351.573 883.851 355.04 892.171 355.04C900.065 355.04 906.145 352.427 910.411 347.2C914.678 341.867 916.811 334.347 916.811 324.64V322.08C916.811 316.64 915.905 310.88 914.091 304.8C912.385 298.613 909.931 292.533 906.731 286.56C903.638 280.587 900.011 274.987 895.851 269.76C891.691 264.533 887.211 260.053 882.411 256.32V254.72H931.211V256.32L920.011 257.76V317.6C920.011 333.707 916.491 346.133 909.451 354.88C902.411 363.627 891.745 368 877.451 368ZM949.675 368V366.4L960.875 364.8V271.2C960.875 268.427 959.915 265.76 957.995 263.2C956.075 260.64 953.302 258.347 949.675 256.32V254.72H997.995L1050.48 326.08H1053.2V325.28C1053.2 319.733 1052.72 314.187 1051.76 308.64C1050.8 303.093 1049.36 297.707 1047.44 292.48C1045.52 287.253 1043.12 282.347 1040.24 277.76C1037.46 273.173 1034.21 269.067 1030.48 265.44C1026.74 261.707 1022.58 258.667 1018 256.32V254.72H1069.04V256.32L1055.6 257.92V368H1034.64L965.675 276.16H963.275V276.96C963.275 284.64 963.755 292.053 964.715 299.2C965.675 306.347 967.222 313.173 969.355 319.68C971.488 326.08 974.208 332.16 977.515 337.92C980.822 343.573 984.768 348.8 989.355 353.6C994.048 358.4 999.435 362.667 1005.52 366.4V368H949.675Z" fill="#0158FF"/>
<path d="M373.92 430.32H372.16C371.307 430.32 370.667 430.487 370.24 430.82C369.813 431.153 369.6 431.573 369.6 432.08C369.6 432.587 369.767 433 370.1 433.32C370.433 433.627 370.92 433.78 371.56 433.78C372.28 433.78 372.853 433.58 373.28 433.18C373.707 432.767 373.92 432.247 373.92 431.62V430.32ZM368.68 426.98V425.4C369.44 424.933 370.44 424.7 371.68 424.7C374.227 424.7 375.5 425.993 375.5 428.58V435H373.94V433.8C373.42 434.667 372.473 435.1 371.1 435.1C370.153 435.1 369.387 434.82 368.8 434.26C368.227 433.7 367.94 432.993 367.94 432.14C367.94 431.167 368.307 430.413 369.04 429.88C369.787 429.333 370.8 429.06 372.08 429.06H373.92V428.54C373.92 427.74 373.74 427.14 373.38 426.74C373.02 426.327 372.413 426.12 371.56 426.12C370.48 426.12 369.52 426.407 368.68 426.98ZM391.487 429.92V421.52H393.107V429.88C393.107 431.613 392.667 432.927 391.787 433.82C390.92 434.713 389.707 435.16 388.147 435.16C386.613 435.16 385.413 434.727 384.547 433.86C383.68 432.98 383.247 431.707 383.247 430.04V421.52H384.867V430.02C384.867 431.26 385.16 432.173 385.747 432.76C386.347 433.347 387.147 433.64 388.147 433.64C390.373 433.64 391.487 432.4 391.487 429.92ZM399.737 428.2L395.637 421.52H397.537L400.637 426.74C400.691 426.633 401.217 425.747 402.217 424.08C403.217 422.4 403.724 421.547 403.737 421.52H405.657L401.577 428.2L406.097 435H404.197L400.677 429.58C400.664 429.607 400.117 430.487 399.037 432.22C397.957 433.953 397.384 434.88 397.317 435H395.397L399.737 428.2ZM406.703 437.04L413.983 420.86H415.603L408.303 437.04H406.703ZM424.709 429.92V421.52H426.329V429.88C426.329 431.613 425.889 432.927 425.009 433.82C424.143 434.713 422.929 435.16 421.369 435.16C419.836 435.16 418.636 434.727 417.769 433.86C416.903 432.98 416.469 431.707 416.469 430.04V421.52H418.089V430.02C418.089 431.26 418.383 432.173 418.969 432.76C419.569 433.347 420.369 433.64 421.369 433.64C423.596 433.64 424.709 432.4 424.709 429.92ZM429.5 435V421.52H431.12V435H429.5ZM442.984 433.72C443.811 433.72 444.511 433.413 445.084 432.8C445.671 432.187 445.964 431.207 445.964 429.86C445.964 428.58 445.664 427.64 445.064 427.04C444.464 426.44 443.804 426.14 443.084 426.14C442.244 426.14 441.544 426.48 440.984 427.16C440.437 427.827 440.164 428.787 440.164 430.04C440.164 431.133 440.431 432.02 440.964 432.7C441.497 433.38 442.171 433.72 442.984 433.72ZM445.964 420.86H447.544V435H445.964V433.5C445.244 434.607 444.204 435.16 442.844 435.16C441.497 435.16 440.437 434.66 439.664 433.66C438.904 432.66 438.524 431.447 438.524 430.02C438.524 428.433 438.931 427.153 439.744 426.18C440.557 425.193 441.604 424.7 442.884 424.7C444.204 424.7 445.231 425.267 445.964 426.4V420.86ZM456.932 429.28V428.88C456.932 428.04 456.705 427.373 456.252 426.88C455.798 426.373 455.172 426.12 454.372 426.12C453.612 426.12 452.965 426.393 452.432 426.94C451.898 427.487 451.585 428.267 451.492 429.28H456.932ZM457.872 433V434.48C457.085 434.893 456.125 435.1 454.992 435.1C453.458 435.1 452.218 434.633 451.272 433.7C450.338 432.753 449.872 431.507 449.872 429.96C449.872 428.347 450.292 427.073 451.132 426.14C451.972 425.207 453.052 424.74 454.372 424.74C455.638 424.74 456.645 425.147 457.392 425.96C458.138 426.773 458.512 427.927 458.512 429.42C458.512 429.847 458.478 430.24 458.412 430.6H451.492C451.612 431.6 451.992 432.367 452.632 432.9C453.272 433.433 454.112 433.7 455.152 433.7C456.285 433.7 457.192 433.467 457.872 433ZM466.441 425.2V426.7C465.828 426.327 464.988 426.14 463.921 426.14C463.388 426.14 462.961 426.267 462.641 426.52C462.334 426.76 462.181 427.073 462.181 427.46C462.181 427.7 462.228 427.913 462.321 428.1C462.414 428.273 462.594 428.447 462.861 428.62C463.141 428.793 463.341 428.913 463.461 428.98C463.594 429.033 463.874 429.153 464.301 429.34C465.154 429.687 465.821 430.08 466.301 430.52C466.781 430.96 467.021 431.553 467.021 432.3C467.021 433.167 466.714 433.853 466.101 434.36C465.501 434.867 464.674 435.12 463.621 435.12C462.394 435.12 461.401 434.913 460.641 434.5V432.96C461.534 433.493 462.494 433.76 463.521 433.76C464.134 433.76 464.601 433.64 464.921 433.4C465.241 433.16 465.401 432.833 465.401 432.42C465.401 431.94 465.221 431.567 464.861 431.3C464.514 431.033 463.928 430.733 463.101 430.4C462.341 430.107 461.728 429.74 461.261 429.3C460.808 428.86 460.581 428.267 460.581 427.52C460.581 426.68 460.894 426.013 461.521 425.52C462.161 425.013 462.954 424.76 463.901 424.76C464.954 424.76 465.801 424.907 466.441 425.2ZM469.243 435V424.86H470.823V435H469.243ZM469.283 422.42C469.096 422.22 469.003 421.973 469.003 421.68C469.003 421.387 469.096 421.14 469.283 420.94C469.483 420.74 469.73 420.64 470.023 420.64C470.316 420.64 470.563 420.74 470.763 420.94C470.963 421.14 471.063 421.387 471.063 421.68C471.063 421.973 470.963 422.22 470.763 422.42C470.563 422.607 470.316 422.7 470.023 422.7C469.73 422.7 469.483 422.607 469.283 422.42ZM477.631 433.34C478.364 433.34 479.011 433.06 479.571 432.5C480.144 431.927 480.431 431.08 480.431 429.96C480.431 428.667 480.158 427.707 479.611 427.08C479.064 426.453 478.431 426.14 477.711 426.14C476.844 426.14 476.158 426.487 475.651 427.18C475.144 427.86 474.891 428.753 474.891 429.86C474.891 430.993 475.171 431.86 475.731 432.46C476.291 433.047 476.924 433.34 477.631 433.34ZM480.431 424.86H482.011V434.18C482.011 435.727 481.584 436.887 480.731 437.66C479.878 438.447 478.778 438.84 477.431 438.84C476.204 438.84 475.158 438.633 474.291 438.22V436.64C475.144 437.133 476.144 437.38 477.291 437.38C478.264 437.38 479.031 437.12 479.591 436.6C480.151 436.08 480.431 435.267 480.431 434.16V433.02C479.764 434.167 478.771 434.74 477.451 434.74C476.291 434.74 475.298 434.313 474.471 433.46C473.658 432.607 473.251 431.42 473.251 429.9C473.251 428.393 473.631 427.153 474.391 426.18C475.151 425.207 476.144 424.72 477.371 424.72C478.758 424.72 479.778 425.327 480.431 426.54V424.86ZM486.368 424.86V426.62C486.968 425.353 488.034 424.72 489.568 424.72C490.554 424.72 491.341 425.02 491.928 425.62C492.514 426.22 492.808 427.02 492.808 428.02V435H491.228V428.44C491.228 427.693 491.034 427.127 490.648 426.74C490.274 426.34 489.781 426.14 489.168 426.14C488.408 426.14 487.748 426.433 487.188 427.02C486.641 427.607 486.368 428.42 486.368 429.46V435H484.808V424.86H486.368ZM502.068 429.28V428.88C502.068 428.04 501.842 427.373 501.388 426.88C500.935 426.373 500.308 426.12 499.508 426.12C498.748 426.12 498.102 426.393 497.568 426.94C497.035 427.487 496.722 428.267 496.628 429.28H502.068ZM503.008 433V434.48C502.222 434.893 501.262 435.1 500.128 435.1C498.595 435.1 497.355 434.633 496.408 433.7C495.475 432.753 495.008 431.507 495.008 429.96C495.008 428.347 495.428 427.073 496.268 426.14C497.108 425.207 498.188 424.74 499.508 424.74C500.775 424.74 501.782 425.147 502.528 425.96C503.275 426.773 503.648 427.927 503.648 429.42C503.648 429.847 503.615 430.24 503.548 430.6H496.628C496.748 431.6 497.128 432.367 497.768 432.9C498.408 433.433 499.248 433.7 500.288 433.7C501.422 433.7 502.328 433.467 503.008 433ZM507.618 424.86V426.64C508.151 425.387 509.071 424.76 510.378 424.76C510.618 424.76 510.804 424.773 510.938 424.8V426.36C510.658 426.267 510.371 426.22 510.078 426.22C509.371 426.22 508.784 426.547 508.318 427.2C507.851 427.853 507.618 428.607 507.618 429.46V435H506.038L506.058 424.86H507.618ZM522.084 433.72C522.897 433.72 523.571 433.38 524.104 432.7C524.637 432.02 524.904 431.133 524.904 430.04C524.904 428.787 524.624 427.827 524.064 427.16C523.517 426.48 522.824 426.14 521.984 426.14C521.264 426.14 520.604 426.44 520.004 427.04C519.404 427.64 519.104 428.58 519.104 429.86C519.104 431.207 519.391 432.187 519.964 432.8C520.551 433.413 521.257 433.72 522.084 433.72ZM519.104 420.86V426.38C519.837 425.26 520.864 424.7 522.184 424.7C523.464 424.7 524.511 425.193 525.324 426.18C526.137 427.153 526.544 428.433 526.544 430.02C526.544 431.447 526.157 432.66 525.384 433.66C524.624 434.66 523.571 435.16 522.224 435.16C520.864 435.16 519.824 434.607 519.104 433.5V435H517.524V420.86H519.104ZM534.33 430.32H532.57C531.717 430.32 531.077 430.487 530.65 430.82C530.223 431.153 530.01 431.573 530.01 432.08C530.01 432.587 530.177 433 530.51 433.32C530.843 433.627 531.33 433.78 531.97 433.78C532.69 433.78 533.263 433.58 533.69 433.18C534.117 432.767 534.33 432.247 534.33 431.62V430.32ZM529.09 426.98V425.4C529.85 424.933 530.85 424.7 532.09 424.7C534.637 424.7 535.91 425.993 535.91 428.58V435H534.35V433.8C533.83 434.667 532.883 435.1 531.51 435.1C530.563 435.1 529.797 434.82 529.21 434.26C528.637 433.7 528.35 432.993 528.35 432.14C528.35 431.167 528.717 430.413 529.45 429.88C530.197 429.333 531.21 429.06 532.49 429.06H534.33V428.54C534.33 427.74 534.15 427.14 533.79 426.74C533.43 426.327 532.823 426.12 531.97 426.12C530.89 426.12 529.93 426.407 529.09 426.98ZM544.234 425.2V426.7C543.621 426.327 542.781 426.14 541.714 426.14C541.181 426.14 540.754 426.267 540.434 426.52C540.127 426.76 539.974 427.073 539.974 427.46C539.974 427.7 540.021 427.913 540.114 428.1C540.207 428.273 540.387 428.447 540.654 428.62C540.934 428.793 541.134 428.913 541.254 428.98C541.387 429.033 541.667 429.153 542.094 429.34C542.947 429.687 543.614 430.08 544.094 430.52C544.574 430.96 544.814 431.553 544.814 432.3C544.814 433.167 544.507 433.853 543.894 434.36C543.294 434.867 542.467 435.12 541.414 435.12C540.187 435.12 539.194 434.913 538.434 434.5V432.96C539.327 433.493 540.287 433.76 541.314 433.76C541.927 433.76 542.394 433.64 542.714 433.4C543.034 433.16 543.194 432.833 543.194 432.42C543.194 431.94 543.014 431.567 542.654 431.3C542.307 431.033 541.721 430.733 540.894 430.4C540.134 430.107 539.521 429.74 539.054 429.3C538.601 428.86 538.374 428.267 538.374 427.52C538.374 426.68 538.687 426.013 539.314 425.52C539.954 425.013 540.747 424.76 541.694 424.76C542.747 424.76 543.594 424.907 544.234 425.2ZM553.416 429.28V428.88C553.416 428.04 553.189 427.373 552.736 426.88C552.283 426.373 551.656 426.12 550.856 426.12C550.096 426.12 549.449 426.393 548.916 426.94C548.383 427.487 548.069 428.267 547.976 429.28H553.416ZM554.356 433V434.48C553.569 434.893 552.609 435.1 551.476 435.1C549.943 435.1 548.703 434.633 547.756 433.7C546.823 432.753 546.356 431.507 546.356 429.96C546.356 428.347 546.776 427.073 547.616 426.14C548.456 425.207 549.536 424.74 550.856 424.74C552.123 424.74 553.129 425.147 553.876 425.96C554.623 426.773 554.996 427.927 554.996 429.42C554.996 429.847 554.963 430.24 554.896 430.6H547.976C548.096 431.6 548.476 432.367 549.116 432.9C549.756 433.433 550.596 433.7 551.636 433.7C552.769 433.7 553.676 433.467 554.356 433ZM561.265 433.72C562.092 433.72 562.792 433.413 563.365 432.8C563.952 432.187 564.245 431.207 564.245 429.86C564.245 428.58 563.945 427.64 563.345 427.04C562.745 426.44 562.085 426.14 561.365 426.14C560.525 426.14 559.825 426.48 559.265 427.16C558.719 427.827 558.445 428.787 558.445 430.04C558.445 431.133 558.712 432.02 559.245 432.7C559.779 433.38 560.452 433.72 561.265 433.72ZM564.245 420.86H565.825V435H564.245V433.5C563.525 434.607 562.485 435.16 561.125 435.16C559.779 435.16 558.719 434.66 557.945 433.66C557.185 432.66 556.805 431.447 556.805 430.02C556.805 428.433 557.212 427.153 558.025 426.18C558.839 425.193 559.885 424.7 561.165 424.7C562.485 424.7 563.512 425.267 564.245 426.4V420.86ZM573.716 435V424.86H575.296V435H573.716ZM573.756 422.42C573.569 422.22 573.476 421.973 573.476 421.68C573.476 421.387 573.569 421.14 573.756 420.94C573.956 420.74 574.202 420.64 574.496 420.64C574.789 420.64 575.036 420.74 575.236 420.94C575.436 421.14 575.536 421.387 575.536 421.68C575.536 421.973 575.436 422.22 575.236 422.42C575.036 422.607 574.789 422.7 574.496 422.7C574.202 422.7 573.956 422.607 573.756 422.42ZM579.864 424.86V426.62C580.464 425.353 581.53 424.72 583.064 424.72C584.05 424.72 584.837 425.02 585.424 425.62C586.01 426.22 586.304 427.02 586.304 428.02V435H584.724V428.44C584.724 427.693 584.53 427.127 584.144 426.74C583.77 426.34 583.277 426.14 582.664 426.14C581.904 426.14 581.244 426.433 580.684 427.02C580.137 427.607 579.864 428.42 579.864 429.46V435H578.304V424.86H579.864ZM593.487 428.2C593.487 426.08 594.027 424.393 595.107 423.14C596.201 421.887 597.674 421.26 599.527 421.26C601.421 421.26 602.901 421.887 603.967 423.14C605.047 424.38 605.587 426.067 605.587 428.2C605.587 430.32 605.041 432.013 603.947 433.28C602.867 434.533 601.401 435.16 599.547 435.16C597.721 435.16 596.254 434.527 595.147 433.26C594.041 431.993 593.487 430.307 593.487 428.2ZM595.187 428.2C595.187 429.867 595.581 431.187 596.367 432.16C597.167 433.133 598.227 433.62 599.547 433.62C600.921 433.62 601.981 433.14 602.727 432.18C603.487 431.22 603.867 429.893 603.867 428.2C603.867 426.507 603.487 425.18 602.727 424.22C601.967 423.26 600.901 422.78 599.527 422.78C598.167 422.78 597.101 423.267 596.327 424.24C595.567 425.2 595.187 426.52 595.187 428.2ZM610.171 426.14V432.08C610.171 433.16 610.678 433.7 611.691 433.7C612.211 433.7 612.671 433.547 613.071 433.24V434.74C612.631 434.98 612.138 435.1 611.591 435.1C609.591 435.1 608.591 434.08 608.591 432.04V426.14H606.971V424.86H608.591V422.34H610.171V424.86H612.971V426.14H610.171ZM617.554 426.14V432.08C617.554 433.16 618.061 433.7 619.074 433.7C619.594 433.7 620.054 433.547 620.454 433.24V434.74C620.014 434.98 619.521 435.1 618.974 435.1C616.974 435.1 615.974 434.08 615.974 432.04V426.14H614.354V424.86H615.974V422.34H617.554V424.86H620.354V426.14H617.554ZM628.217 430.32H626.457C625.604 430.32 624.964 430.487 624.537 430.82C624.11 431.153 623.897 431.573 623.897 432.08C623.897 432.587 624.064 433 624.397 433.32C624.73 433.627 625.217 433.78 625.857 433.78C626.577 433.78 627.15 433.58 627.577 433.18C628.004 432.767 628.217 432.247 628.217 431.62V430.32ZM622.977 426.98V425.4C623.737 424.933 624.737 424.7 625.977 424.7C628.524 424.7 629.797 425.993 629.797 428.58V435H628.237V433.8C627.717 434.667 626.77 435.1 625.397 435.1C624.45 435.1 623.684 434.82 623.097 434.26C622.524 433.7 622.237 432.993 622.237 432.14C622.237 431.167 622.604 430.413 623.337 429.88C624.084 429.333 625.097 429.06 626.377 429.06H628.217V428.54C628.217 427.74 628.037 427.14 627.677 426.74C627.317 426.327 626.71 426.12 625.857 426.12C624.777 426.12 623.817 426.407 622.977 426.98ZM634.761 435L631.641 424.86H633.321L634.301 428.22C634.647 429.393 634.934 430.42 635.161 431.3C635.401 432.167 635.554 432.747 635.621 433.04L635.721 433.46C635.921 432.607 636.407 430.853 637.181 428.2L638.141 424.86H639.821L640.801 428.2L642.301 433.48C642.487 432.693 643.001 430.933 643.841 428.2L644.861 424.86H646.481L643.281 435H641.341L640.381 431.68L638.981 426.62C638.781 427.473 638.327 429.16 637.621 431.68L636.701 435H634.761ZM653.9 430.32H652.14C651.287 430.32 650.647 430.487 650.22 430.82C649.794 431.153 649.58 431.573 649.58 432.08C649.58 432.587 649.747 433 650.08 433.32C650.414 433.627 650.9 433.78 651.54 433.78C652.26 433.78 652.834 433.58 653.26 433.18C653.687 432.767 653.9 432.247 653.9 431.62V430.32ZM648.66 426.98V425.4C649.42 424.933 650.42 424.7 651.66 424.7C654.207 424.7 655.48 425.993 655.48 428.58V435H653.92V433.8C653.4 434.667 652.454 435.1 651.08 435.1C650.134 435.1 649.367 434.82 648.78 434.26C648.207 433.7 647.92 432.993 647.92 432.14C647.92 431.167 648.287 430.413 649.02 429.88C649.767 429.333 650.78 429.06 652.06 429.06H653.9V428.54C653.9 427.74 653.72 427.14 653.36 426.74C653 426.327 652.394 426.12 651.54 426.12C650.46 426.12 649.5 426.407 648.66 426.98ZM657.644 434.82C657.418 434.593 657.304 434.313 657.304 433.98C657.304 433.647 657.418 433.367 657.644 433.14C657.871 432.913 658.151 432.8 658.484 432.8C658.818 432.8 659.098 432.913 659.324 433.14C659.551 433.367 659.664 433.647 659.664 433.98C659.664 434.313 659.551 434.593 659.324 434.82C659.098 435.047 658.818 435.16 658.484 435.16C658.151 435.16 657.871 435.047 657.644 434.82ZM666.687 435V421.52H668.307V435H666.687ZM681.772 430.32H680.012C679.158 430.32 678.518 430.487 678.092 430.82C677.665 431.153 677.452 431.573 677.452 432.08C677.452 432.587 677.618 433 677.952 433.32C678.285 433.627 678.772 433.78 679.412 433.78C680.132 433.78 680.705 433.58 681.132 433.18C681.558 432.767 681.772 432.247 681.772 431.62V430.32ZM676.532 426.98V425.4C677.292 424.933 678.292 424.7 679.532 424.7C682.078 424.7 683.352 425.993 683.352 428.58V435H681.792V433.8C681.272 434.667 680.325 435.1 678.952 435.1C678.005 435.1 677.238 434.82 676.652 434.26C676.078 433.7 675.792 432.993 675.792 432.14C675.792 431.167 676.158 430.413 676.892 429.88C677.638 429.333 678.652 429.06 679.932 429.06H681.772V428.54C681.772 427.74 681.592 427.14 681.232 426.74C680.872 426.327 680.265 426.12 679.412 426.12C678.332 426.12 677.372 426.407 676.532 426.98ZM687.715 424.86V426.5C688.275 425.313 689.229 424.72 690.575 424.72C692.135 424.72 693.122 425.38 693.535 426.7C693.829 426.06 694.235 425.573 694.755 425.24C695.289 424.893 695.882 424.72 696.535 424.72C697.589 424.72 698.382 425.02 698.915 425.62C699.449 426.22 699.715 427.027 699.715 428.04V435H698.135V428.44C698.135 426.907 697.489 426.14 696.195 426.14C695.555 426.14 694.982 426.433 694.475 427.02C693.969 427.593 693.715 428.407 693.715 429.46V435H692.135V428.44C692.135 426.907 691.489 426.14 690.195 426.14C689.555 426.14 688.982 426.433 688.475 427.02C687.969 427.593 687.715 428.407 687.715 429.46V435H686.155V424.86H687.715ZM712.865 430.32H711.105C710.252 430.32 709.612 430.487 709.185 430.82C708.759 431.153 708.545 431.573 708.545 432.08C708.545 432.587 708.712 433 709.045 433.32C709.379 433.627 709.865 433.78 710.505 433.78C711.225 433.78 711.799 433.58 712.225 433.18C712.652 432.767 712.865 432.247 712.865 431.62V430.32ZM707.625 426.98V425.4C708.385 424.933 709.385 424.7 710.625 424.7C713.172 424.7 714.445 425.993 714.445 428.58V435H712.885V433.8C712.365 434.667 711.419 435.1 710.045 435.1C709.099 435.1 708.332 434.82 707.745 434.26C707.172 433.7 706.885 432.993 706.885 432.14C706.885 431.167 707.252 430.413 707.985 429.88C708.732 429.333 709.745 429.06 711.025 429.06H712.865V428.54C712.865 427.74 712.685 427.14 712.325 426.74C711.965 426.327 711.359 426.12 710.505 426.12C709.425 426.12 708.465 426.407 707.625 426.98ZM726.592 433.72C727.445 433.72 728.145 433.387 728.692 432.72C729.239 432.04 729.512 431.08 729.512 429.84C729.512 428.733 729.245 427.84 728.712 427.16C728.179 426.48 727.505 426.14 726.692 426.14C725.879 426.14 725.172 426.44 724.572 427.04C723.985 427.627 723.692 428.593 723.692 429.94C723.692 431.233 723.992 432.187 724.592 432.8C725.192 433.413 725.859 433.72 726.592 433.72ZM723.692 424.86V426.4C724.399 425.267 725.445 424.7 726.832 424.7C728.179 424.7 729.232 425.193 729.992 426.18C730.765 427.153 731.152 428.373 731.152 429.84C731.152 431.4 730.745 432.68 729.932 433.68C729.132 434.667 728.085 435.16 726.792 435.16C725.459 435.16 724.425 434.593 723.692 433.46V438.94H722.132V424.86H723.692ZM735.04 424.86V426.64C735.573 425.387 736.493 424.76 737.8 424.76C738.04 424.76 738.226 424.773 738.36 424.8V426.36C738.08 426.267 737.793 426.22 737.5 426.22C736.793 426.22 736.206 426.547 735.74 427.2C735.273 427.853 735.04 428.607 735.04 429.46V435H733.46L733.48 424.86H735.04ZM744.123 435.18C742.67 435.18 741.516 434.693 740.663 433.72C739.823 432.733 739.403 431.493 739.403 430C739.403 428.493 739.836 427.24 740.703 426.24C741.583 425.227 742.723 424.72 744.123 424.72C745.656 424.72 746.836 425.213 747.663 426.2C748.503 427.187 748.923 428.44 748.923 429.96C748.923 431.467 748.496 432.713 747.643 433.7C746.79 434.687 745.616 435.18 744.123 435.18ZM744.123 426.12C743.163 426.12 742.41 426.493 741.863 427.24C741.316 427.987 741.043 428.9 741.043 429.98C741.043 431.033 741.323 431.933 741.883 432.68C742.443 433.413 743.19 433.78 744.123 433.78C745.136 433.78 745.916 433.42 746.463 432.7C747.01 431.967 747.283 431.06 747.283 429.98C747.283 428.86 747.023 427.94 746.503 427.22C745.983 426.487 745.19 426.12 744.123 426.12ZM755.853 433.72C756.667 433.72 757.34 433.38 757.873 432.7C758.407 432.02 758.673 431.133 758.673 430.04C758.673 428.787 758.393 427.827 757.833 427.16C757.287 426.48 756.593 426.14 755.753 426.14C755.033 426.14 754.373 426.44 753.773 427.04C753.173 427.64 752.873 428.58 752.873 429.86C752.873 431.207 753.16 432.187 753.733 432.8C754.32 433.413 755.027 433.72 755.853 433.72ZM752.873 420.86V426.38C753.607 425.26 754.633 424.7 755.953 424.7C757.233 424.7 758.28 425.193 759.093 426.18C759.907 427.153 760.313 428.433 760.313 430.02C760.313 431.447 759.927 432.66 759.153 433.66C758.393 434.66 757.34 435.16 755.993 435.16C754.633 435.16 753.593 434.607 752.873 433.5V435H751.293V420.86H752.873ZM762.72 435V420.86H764.3V435H762.72ZM773.768 429.28V428.88C773.768 428.04 773.541 427.373 773.088 426.88C772.634 426.373 772.008 426.12 771.208 426.12C770.448 426.12 769.801 426.393 769.268 426.94C768.734 427.487 768.421 428.267 768.328 429.28H773.768ZM774.708 433V434.48C773.921 434.893 772.961 435.1 771.828 435.1C770.294 435.1 769.054 434.633 768.108 433.7C767.174 432.753 766.708 431.507 766.708 429.96C766.708 428.347 767.128 427.073 767.968 426.14C768.808 425.207 769.888 424.74 771.208 424.74C772.474 424.74 773.481 425.147 774.228 425.96C774.974 426.773 775.348 427.927 775.348 429.42C775.348 429.847 775.314 430.24 775.248 430.6H768.328C768.448 431.6 768.828 432.367 769.468 432.9C770.108 433.433 770.948 433.7 771.988 433.7C773.121 433.7 774.028 433.467 774.708 433ZM779.317 424.86V426.5C779.877 425.313 780.83 424.72 782.177 424.72C783.737 424.72 784.724 425.38 785.137 426.7C785.43 426.06 785.837 425.573 786.357 425.24C786.89 424.893 787.484 424.72 788.137 424.72C789.19 424.72 789.984 425.02 790.517 425.62C791.05 426.22 791.317 427.027 791.317 428.04V435H789.737V428.44C789.737 426.907 789.09 426.14 787.797 426.14C787.157 426.14 786.584 426.433 786.077 427.02C785.57 427.593 785.317 428.407 785.317 429.46V435H783.737V428.44C783.737 426.907 783.09 426.14 781.797 426.14C781.157 426.14 780.584 426.433 780.077 427.02C779.57 427.593 779.317 428.407 779.317 429.46V435H777.757V424.86H779.317ZM804.527 425.2V426.7C803.914 426.327 803.074 426.14 802.007 426.14C801.474 426.14 801.047 426.267 800.727 426.52C800.42 426.76 800.267 427.073 800.267 427.46C800.267 427.7 800.314 427.913 800.407 428.1C800.5 428.273 800.68 428.447 800.947 428.62C801.227 428.793 801.427 428.913 801.547 428.98C801.68 429.033 801.96 429.153 802.387 429.34C803.24 429.687 803.907 430.08 804.387 430.52C804.867 430.96 805.107 431.553 805.107 432.3C805.107 433.167 804.8 433.853 804.187 434.36C803.587 434.867 802.76 435.12 801.707 435.12C800.48 435.12 799.487 434.913 798.727 434.5V432.96C799.62 433.493 800.58 433.76 801.607 433.76C802.22 433.76 802.687 433.64 803.007 433.4C803.327 433.16 803.487 432.833 803.487 432.42C803.487 431.94 803.307 431.567 802.947 431.3C802.6 431.033 802.014 430.733 801.187 430.4C800.427 430.107 799.814 429.74 799.347 429.3C798.894 428.86 798.667 428.267 798.667 427.52C798.667 426.68 798.98 426.013 799.607 425.52C800.247 425.013 801.04 424.76 801.987 424.76C803.04 424.76 803.887 424.907 804.527 425.2ZM811.369 435.18C809.916 435.18 808.762 434.693 807.909 433.72C807.069 432.733 806.649 431.493 806.649 430C806.649 428.493 807.082 427.24 807.949 426.24C808.829 425.227 809.969 424.72 811.369 424.72C812.902 424.72 814.082 425.213 814.909 426.2C815.749 427.187 816.169 428.44 816.169 429.96C816.169 431.467 815.742 432.713 814.889 433.7C814.036 434.687 812.862 435.18 811.369 435.18ZM811.369 426.12C810.409 426.12 809.656 426.493 809.109 427.24C808.562 427.987 808.289 428.9 808.289 429.98C808.289 431.033 808.569 431.933 809.129 432.68C809.689 433.413 810.436 433.78 811.369 433.78C812.382 433.78 813.162 433.42 813.709 432.7C814.256 431.967 814.529 431.06 814.529 429.98C814.529 428.86 814.269 427.94 813.749 427.22C813.229 426.487 812.436 426.12 811.369 426.12ZM818.56 435V420.86H820.14V435H818.56ZM825.728 435L822.188 424.86H823.828L825.228 429.14L826.708 433.76C826.828 433.187 827.328 431.647 828.208 429.14L829.648 424.86H831.288L827.668 435H825.728ZM839.705 429.28V428.88C839.705 428.04 839.478 427.373 839.025 426.88C838.572 426.373 837.945 426.12 837.145 426.12C836.385 426.12 835.738 426.393 835.205 426.94C834.672 427.487 834.358 428.267 834.265 429.28H839.705ZM840.645 433V434.48C839.858 434.893 838.898 435.1 837.765 435.1C836.232 435.1 834.992 434.633 834.045 433.7C833.112 432.753 832.645 431.507 832.645 429.96C832.645 428.347 833.065 427.073 833.905 426.14C834.745 425.207 835.825 424.74 837.145 424.74C838.412 424.74 839.418 425.147 840.165 425.96C840.912 426.773 841.285 427.927 841.285 429.42C841.285 429.847 841.252 430.24 841.185 430.6H834.265C834.385 431.6 834.765 432.367 835.405 432.9C836.045 433.433 836.885 433.7 837.925 433.7C839.058 433.7 839.965 433.467 840.645 433ZM845.254 424.86V426.64C845.788 425.387 846.708 424.76 848.014 424.76C848.254 424.76 848.441 424.773 848.574 424.8V426.36C848.294 426.267 848.008 426.22 847.714 426.22C847.008 426.22 846.421 426.547 845.954 427.2C845.488 427.853 845.254 428.607 845.254 429.46V435H843.674L843.694 424.86H845.254ZM848.598 437.46L850.458 432.98H852.558L849.978 437.46H848.598ZM865.053 430.32H863.293C862.439 430.32 861.799 430.487 861.373 430.82C860.946 431.153 860.733 431.573 860.733 432.08C860.733 432.587 860.899 433 861.233 433.32C861.566 433.627 862.053 433.78 862.693 433.78C863.413 433.78 863.986 433.58 864.413 433.18C864.839 432.767 865.053 432.247 865.053 431.62V430.32ZM859.813 426.98V425.4C860.573 424.933 861.573 424.7 862.813 424.7C865.359 424.7 866.633 425.993 866.633 428.58V435H865.073V433.8C864.553 434.667 863.606 435.1 862.233 435.1C861.286 435.1 860.519 434.82 859.933 434.26C859.359 433.7 859.073 432.993 859.073 432.14C859.073 431.167 859.439 430.413 860.173 429.88C860.919 429.333 861.933 429.06 863.213 429.06H865.053V428.54C865.053 427.74 864.873 427.14 864.513 426.74C864.153 426.327 863.546 426.12 862.693 426.12C861.613 426.12 860.653 426.407 859.813 426.98ZM870.997 424.86V426.62C871.597 425.353 872.663 424.72 874.197 424.72C875.183 424.72 875.97 425.02 876.557 425.62C877.143 426.22 877.437 427.02 877.437 428.02V435H875.857V428.44C875.857 427.693 875.663 427.127 875.277 426.74C874.903 426.34 874.41 426.14 873.797 426.14C873.037 426.14 872.377 426.433 871.817 427.02C871.27 427.607 870.997 428.42 870.997 429.46V435H869.437V424.86H870.997ZM891.58 429.28V428.88C891.58 428.04 891.353 427.373 890.9 426.88C890.447 426.373 889.82 426.12 889.02 426.12C888.26 426.12 887.613 426.393 887.08 426.94C886.547 427.487 886.233 428.267 886.14 429.28H891.58ZM892.52 433V434.48C891.733 434.893 890.773 435.1 889.64 435.1C888.107 435.1 886.867 434.633 885.92 433.7C884.987 432.753 884.52 431.507 884.52 429.96C884.52 428.347 884.94 427.073 885.78 426.14C886.62 425.207 887.7 424.74 889.02 424.74C890.287 424.74 891.293 425.147 892.04 425.96C892.787 426.773 893.16 427.927 893.16 429.42C893.16 429.847 893.127 430.24 893.06 430.6H886.14C886.26 431.6 886.64 432.367 887.28 432.9C887.92 433.433 888.76 433.7 889.8 433.7C890.933 433.7 891.84 433.467 892.52 433ZM897.129 424.86V426.5C897.689 425.313 898.643 424.72 899.989 424.72C901.549 424.72 902.536 425.38 902.949 426.7C903.243 426.06 903.649 425.573 904.169 425.24C904.703 424.893 905.296 424.72 905.949 424.72C907.003 424.72 907.796 425.02 908.329 425.62C908.863 426.22 909.129 427.027 909.129 428.04V435H907.549V428.44C907.549 426.907 906.903 426.14 905.609 426.14C904.969 426.14 904.396 426.433 903.889 427.02C903.383 427.593 903.129 428.407 903.129 429.46V435H901.549V428.44C901.549 426.907 900.903 426.14 899.609 426.14C898.969 426.14 898.396 426.433 897.889 427.02C897.383 427.593 897.129 428.407 897.129 429.46V435H895.569V424.86H897.129ZM916.397 433.72C917.25 433.72 917.95 433.387 918.497 432.72C919.043 432.04 919.317 431.08 919.317 429.84C919.317 428.733 919.05 427.84 918.517 427.16C917.983 426.48 917.31 426.14 916.497 426.14C915.683 426.14 914.977 426.44 914.377 427.04C913.79 427.627 913.497 428.593 913.497 429.94C913.497 431.233 913.797 432.187 914.397 432.8C914.997 433.413 915.663 433.72 916.397 433.72ZM913.497 424.86V426.4C914.203 425.267 915.25 424.7 916.637 424.7C917.983 424.7 919.037 425.193 919.797 426.18C920.57 427.153 920.957 428.373 920.957 429.84C920.957 431.4 920.55 432.68 919.737 433.68C918.937 434.667 917.89 435.16 916.597 435.16C915.263 435.16 914.23 434.593 913.497 433.46V438.94H911.937V424.86H913.497ZM928.744 430.32H926.984C926.131 430.32 925.491 430.487 925.064 430.82C924.638 431.153 924.424 431.573 924.424 432.08C924.424 432.587 924.591 433 924.924 433.32C925.258 433.627 925.744 433.78 926.384 433.78C927.104 433.78 927.678 433.58 928.104 433.18C928.531 432.767 928.744 432.247 928.744 431.62V430.32ZM923.504 426.98V425.4C924.264 424.933 925.264 424.7 926.504 424.7C929.051 424.7 930.324 425.993 930.324 428.58V435H928.764V433.8C928.244 434.667 927.298 435.1 925.924 435.1C924.978 435.1 924.211 434.82 923.624 434.26C923.051 433.7 922.764 432.993 922.764 432.14C922.764 431.167 923.131 430.413 923.864 429.88C924.611 429.333 925.624 429.06 926.904 429.06H928.744V428.54C928.744 427.74 928.564 427.14 928.204 426.74C927.844 426.327 927.238 426.12 926.384 426.12C925.304 426.12 924.344 426.407 923.504 426.98ZM935.308 426.14V432.08C935.308 433.16 935.815 433.7 936.828 433.7C937.348 433.7 937.808 433.547 938.208 433.24V434.74C937.768 434.98 937.275 435.1 936.728 435.1C934.728 435.1 933.728 434.08 933.728 432.04V426.14H932.108V424.86H933.728V422.34H935.308V424.86H938.108V426.14H935.308ZM942.071 420.86V426.62C942.671 425.353 943.737 424.72 945.271 424.72C946.244 424.72 947.024 425.02 947.611 425.62C948.211 426.22 948.511 427.033 948.511 428.06V435H946.931V428.44C946.931 427.707 946.737 427.14 946.351 426.74C945.977 426.34 945.484 426.14 944.871 426.14C944.124 426.14 943.471 426.427 942.911 427C942.351 427.573 942.071 428.393 942.071 429.46V435H940.511V420.86H942.071ZM957.772 429.28V428.88C957.772 428.04 957.545 427.373 957.092 426.88C956.638 426.373 956.012 426.12 955.212 426.12C954.452 426.12 953.805 426.393 953.272 426.94C952.738 427.487 952.425 428.267 952.332 429.28H957.772ZM958.712 433V434.48C957.925 434.893 956.965 435.1 955.832 435.1C954.298 435.1 953.058 434.633 952.112 433.7C951.178 432.753 950.712 431.507 950.712 429.96C950.712 428.347 951.132 427.073 951.972 426.14C952.812 425.207 953.892 424.74 955.212 424.74C956.478 424.74 957.485 425.147 958.232 425.96C958.978 426.773 959.352 427.927 959.352 429.42C959.352 429.847 959.318 430.24 959.252 430.6H952.332C952.452 431.6 952.832 432.367 953.472 432.9C954.112 433.433 954.952 433.7 955.992 433.7C957.125 433.7 958.032 433.467 958.712 433ZM963.941 426.14V432.08C963.941 433.16 964.447 433.7 965.461 433.7C965.981 433.7 966.441 433.547 966.841 433.24V434.74C966.401 434.98 965.907 435.1 965.361 435.1C963.361 435.1 962.361 434.08 962.361 432.04V426.14H960.741V424.86H962.361V422.34H963.941V424.86H966.741V426.14H963.941ZM969.224 435V424.86H970.804V435H969.224ZM969.264 422.42C969.077 422.22 968.984 421.973 968.984 421.68C968.984 421.387 969.077 421.14 969.264 420.94C969.464 420.74 969.71 420.64 970.004 420.64C970.297 420.64 970.544 420.74 970.744 420.94C970.944 421.14 971.044 421.387 971.044 421.68C971.044 421.973 970.944 422.22 970.744 422.42C970.544 422.607 970.297 422.7 970.004 422.7C969.71 422.7 969.464 422.607 969.264 422.42ZM974.852 429.98C974.865 431.073 975.198 431.987 975.852 432.72C976.505 433.44 977.432 433.8 978.632 433.8C979.405 433.8 980.125 433.58 980.792 433.14V434.64C980.152 435.027 979.365 435.22 978.432 435.22C976.832 435.22 975.558 434.713 974.612 433.7C973.678 432.673 973.212 431.427 973.212 429.96C973.212 428.52 973.678 427.28 974.612 426.24C975.558 425.2 976.845 424.68 978.472 424.68C979.338 424.68 980.112 424.867 980.792 425.24V426.74C980.178 426.327 979.458 426.12 978.632 426.12C977.485 426.12 976.565 426.493 975.872 427.24C975.192 427.973 974.852 428.887 974.852 429.98ZM991.968 433.72C992.795 433.72 993.495 433.413 994.068 432.8C994.655 432.187 994.948 431.207 994.948 429.86C994.948 428.58 994.648 427.64 994.048 427.04C993.448 426.44 992.788 426.14 992.068 426.14C991.228 426.14 990.528 426.48 989.968 427.16C989.422 427.827 989.148 428.787 989.148 430.04C989.148 431.133 989.415 432.02 989.948 432.7C990.482 433.38 991.155 433.72 991.968 433.72ZM994.948 420.86H996.528V435H994.948V433.5C994.228 434.607 993.188 435.16 991.828 435.16C990.482 435.16 989.422 434.66 988.648 433.66C987.888 432.66 987.508 431.447 987.508 430.02C987.508 428.433 987.915 427.153 988.728 426.18C989.542 425.193 990.588 424.7 991.868 424.7C993.188 424.7 994.215 425.267 994.948 426.4V420.86ZM1005.92 429.28V428.88C1005.92 428.04 1005.69 427.373 1005.24 426.88C1004.78 426.373 1004.16 426.12 1003.36 426.12C1002.6 426.12 1001.95 426.393 1001.42 426.94C1000.88 427.487 1000.57 428.267 1000.48 429.28H1005.92ZM1006.86 433V434.48C1006.07 434.893 1005.11 435.1 1003.98 435.1C1002.44 435.1 1001.2 434.633 1000.26 433.7C999.323 432.753 998.856 431.507 998.856 429.96C998.856 428.347 999.276 427.073 1000.12 426.14C1000.96 425.207 1002.04 424.74 1003.36 424.74C1004.62 424.74 1005.63 425.147 1006.38 425.96C1007.12 426.773 1007.5 427.927 1007.5 429.42C1007.5 429.847 1007.46 430.24 1007.4 430.6H1000.48C1000.6 431.6 1000.98 432.367 1001.62 432.9C1002.26 433.433 1003.1 433.7 1004.14 433.7C1005.27 433.7 1006.18 433.467 1006.86 433ZM1015.43 425.2V426.7C1014.81 426.327 1013.97 426.14 1012.91 426.14C1012.37 426.14 1011.95 426.267 1011.63 426.52C1011.32 426.76 1011.17 427.073 1011.17 427.46C1011.17 427.7 1011.21 427.913 1011.31 428.1C1011.4 428.273 1011.58 428.447 1011.85 428.62C1012.13 428.793 1012.33 428.913 1012.45 428.98C1012.58 429.033 1012.86 429.153 1013.29 429.34C1014.14 429.687 1014.81 430.08 1015.29 430.52C1015.77 430.96 1016.01 431.553 1016.01 432.3C1016.01 433.167 1015.7 433.853 1015.09 434.36C1014.49 434.867 1013.66 435.12 1012.61 435.12C1011.38 435.12 1010.39 434.913 1009.63 434.5V432.96C1010.52 433.493 1011.48 433.76 1012.51 433.76C1013.12 433.76 1013.59 433.64 1013.91 433.4C1014.23 433.16 1014.39 432.833 1014.39 432.42C1014.39 431.94 1014.21 431.567 1013.85 431.3C1013.5 431.033 1012.91 430.733 1012.09 430.4C1011.33 430.107 1010.71 429.74 1010.25 429.3C1009.79 428.86 1009.57 428.267 1009.57 427.52C1009.57 426.68 1009.88 426.013 1010.51 425.52C1011.15 425.013 1011.94 424.76 1012.89 424.76C1013.94 424.76 1014.79 424.907 1015.43 425.2ZM1018.23 435V424.86H1019.81V435H1018.23ZM1018.27 422.42C1018.08 422.22 1017.99 421.973 1017.99 421.68C1017.99 421.387 1018.08 421.14 1018.27 420.94C1018.47 420.74 1018.71 420.64 1019.01 420.64C1019.3 420.64 1019.55 420.74 1019.75 420.94C1019.95 421.14 1020.05 421.387 1020.05 421.68C1020.05 421.973 1019.95 422.22 1019.75 422.42C1019.55 422.607 1019.3 422.7 1019.01 422.7C1018.71 422.7 1018.47 422.607 1018.27 422.42ZM1026.62 433.34C1027.35 433.34 1028 433.06 1028.56 432.5C1029.13 431.927 1029.42 431.08 1029.42 429.96C1029.42 428.667 1029.14 427.707 1028.6 427.08C1028.05 426.453 1027.42 426.14 1026.7 426.14C1025.83 426.14 1025.14 426.487 1024.64 427.18C1024.13 427.86 1023.88 428.753 1023.88 429.86C1023.88 430.993 1024.16 431.86 1024.72 432.46C1025.28 433.047 1025.91 433.34 1026.62 433.34ZM1029.42 424.86H1031V434.18C1031 435.727 1030.57 436.887 1029.72 437.66C1028.86 438.447 1027.76 438.84 1026.42 438.84C1025.19 438.84 1024.14 438.633 1023.28 438.22V436.64C1024.13 437.133 1025.13 437.38 1026.28 437.38C1027.25 437.38 1028.02 437.12 1028.58 436.6C1029.14 436.08 1029.42 435.267 1029.42 434.16V433.02C1028.75 434.167 1027.76 434.74 1026.44 434.74C1025.28 434.74 1024.28 434.313 1023.46 433.46C1022.64 432.607 1022.24 431.42 1022.24 429.9C1022.24 428.393 1022.62 427.153 1023.38 426.18C1024.14 425.207 1025.13 424.72 1026.36 424.72C1027.74 424.72 1028.76 425.327 1029.42 426.54V424.86ZM1035.35 424.86V426.62C1035.95 425.353 1037.02 424.72 1038.55 424.72C1039.54 424.72 1040.33 425.02 1040.91 425.62C1041.5 426.22 1041.79 427.02 1041.79 428.02V435H1040.21V428.44C1040.21 427.693 1040.02 427.127 1039.63 426.74C1039.26 426.34 1038.77 426.14 1038.15 426.14C1037.39 426.14 1036.73 426.433 1036.17 427.02C1035.63 427.607 1035.35 428.42 1035.35 429.46V435H1033.79V424.86H1035.35ZM1051.05 429.28V428.88C1051.05 428.04 1050.83 427.373 1050.37 426.88C1049.92 426.373 1049.29 426.12 1048.49 426.12C1047.73 426.12 1047.09 426.393 1046.55 426.94C1046.02 427.487 1045.71 428.267 1045.61 429.28H1051.05ZM1051.99 433V434.48C1051.21 434.893 1050.25 435.1 1049.11 435.1C1047.58 435.1 1046.34 434.633 1045.39 433.7C1044.46 432.753 1043.99 431.507 1043.99 429.96C1043.99 428.347 1044.41 427.073 1045.25 426.14C1046.09 425.207 1047.17 424.74 1048.49 424.74C1049.76 424.74 1050.77 425.147 1051.51 425.96C1052.26 426.773 1052.63 427.927 1052.63 429.42C1052.63 429.847 1052.6 430.24 1052.53 430.6H1045.61C1045.73 431.6 1046.11 432.367 1046.75 432.9C1047.39 433.433 1048.23 433.7 1049.27 433.7C1050.41 433.7 1051.31 433.467 1051.99 433ZM1056.6 424.86V426.64C1057.14 425.387 1058.06 424.76 1059.36 424.76C1059.6 424.76 1059.79 424.773 1059.92 424.8V426.36C1059.64 426.267 1059.36 426.22 1059.06 426.22C1058.36 426.22 1057.77 426.547 1057.3 427.2C1056.84 427.853 1056.6 428.607 1056.6 429.46V435H1055.02L1055.04 424.86H1056.6ZM373.92 470.32H372.16C371.307 470.32 370.667 470.487 370.24 470.82C369.813 471.153 369.6 471.573 369.6 472.08C369.6 472.587 369.767 473 370.1 473.32C370.433 473.627 370.92 473.78 371.56 473.78C372.28 473.78 372.853 473.58 373.28 473.18C373.707 472.767 373.92 472.247 373.92 471.62V470.32ZM368.68 466.98V465.4C369.44 464.933 370.44 464.7 371.68 464.7C374.227 464.7 375.5 465.993 375.5 468.58V475H373.94V473.8C373.42 474.667 372.473 475.1 371.1 475.1C370.153 475.1 369.387 474.82 368.8 474.26C368.227 473.7 367.94 472.993 367.94 472.14C367.94 471.167 368.307 470.413 369.04 469.88C369.787 469.333 370.8 469.06 372.08 469.06H373.92V468.54C373.92 467.74 373.74 467.14 373.38 466.74C373.02 466.327 372.413 466.12 371.56 466.12C370.48 466.12 369.52 466.407 368.68 466.98ZM379.864 464.86V466.62C380.464 465.353 381.53 464.72 383.064 464.72C384.05 464.72 384.837 465.02 385.424 465.62C386.01 466.22 386.304 467.02 386.304 468.02V475H384.724V468.44C384.724 467.693 384.53 467.127 384.144 466.74C383.77 466.34 383.277 466.14 382.664 466.14C381.904 466.14 381.244 466.433 380.684 467.02C380.137 467.607 379.864 468.42 379.864 469.46V475H378.304V464.86H379.864ZM392.965 473.72C393.791 473.72 394.491 473.413 395.065 472.8C395.651 472.187 395.945 471.207 395.945 469.86C395.945 468.58 395.645 467.64 395.045 467.04C394.445 466.44 393.785 466.14 393.065 466.14C392.225 466.14 391.525 466.48 390.965 467.16C390.418 467.827 390.145 468.787 390.145 470.04C390.145 471.133 390.411 472.02 390.945 472.7C391.478 473.38 392.151 473.72 392.965 473.72ZM395.945 460.86H397.525V475H395.945V473.5C395.225 474.607 394.185 475.16 392.825 475.16C391.478 475.16 390.418 474.66 389.645 473.66C388.885 472.66 388.505 471.447 388.505 470.02C388.505 468.433 388.911 467.153 389.725 466.18C390.538 465.193 391.585 464.7 392.865 464.7C394.185 464.7 395.211 465.267 395.945 466.4V460.86ZM410.795 470.32H409.035C408.182 470.32 407.542 470.487 407.115 470.82C406.688 471.153 406.475 471.573 406.475 472.08C406.475 472.587 406.642 473 406.975 473.32C407.308 473.627 407.795 473.78 408.435 473.78C409.155 473.78 409.728 473.58 410.155 473.18C410.582 472.767 410.795 472.247 410.795 471.62V470.32ZM405.555 466.98V465.4C406.315 464.933 407.315 464.7 408.555 464.7C411.102 464.7 412.375 465.993 412.375 468.58V475H410.815V473.8C410.295 474.667 409.348 475.1 407.975 475.1C407.028 475.1 406.262 474.82 405.675 474.26C405.102 473.7 404.815 472.993 404.815 472.14C404.815 471.167 405.182 470.413 405.915 469.88C406.662 469.333 407.675 469.06 408.955 469.06H410.795V468.54C410.795 467.74 410.615 467.14 410.255 466.74C409.895 466.327 409.288 466.12 408.435 466.12C407.355 466.12 406.395 466.407 405.555 466.98ZM421.102 469.98C421.115 471.073 421.448 471.987 422.102 472.72C422.755 473.44 423.682 473.8 424.882 473.8C425.655 473.8 426.375 473.58 427.042 473.14V474.64C426.402 475.027 425.615 475.22 424.682 475.22C423.082 475.22 421.808 474.713 420.862 473.7C419.928 472.673 419.462 471.427 419.462 469.96C419.462 468.52 419.928 467.28 420.862 466.24C421.808 465.2 423.095 464.68 424.722 464.68C425.588 464.68 426.362 464.867 427.042 465.24V466.74C426.428 466.327 425.708 466.12 424.882 466.12C423.735 466.12 422.815 466.493 422.122 467.24C421.442 467.973 421.102 468.887 421.102 469.98ZM433.596 475.18C432.142 475.18 430.989 474.693 430.136 473.72C429.296 472.733 428.876 471.493 428.876 470C428.876 468.493 429.309 467.24 430.176 466.24C431.056 465.227 432.196 464.72 433.596 464.72C435.129 464.72 436.309 465.213 437.136 466.2C437.976 467.187 438.396 468.44 438.396 469.96C438.396 471.467 437.969 472.713 437.116 473.7C436.262 474.687 435.089 475.18 433.596 475.18ZM433.596 466.12C432.636 466.12 431.882 466.493 431.336 467.24C430.789 467.987 430.516 468.9 430.516 469.98C430.516 471.033 430.796 471.933 431.356 472.68C431.916 473.413 432.662 473.78 433.596 473.78C434.609 473.78 435.389 473.42 435.936 472.7C436.482 471.967 436.756 471.06 436.756 469.98C436.756 468.86 436.496 467.94 435.976 467.22C435.456 466.487 434.662 466.12 433.596 466.12ZM440.786 475V460.86H442.366V475H440.786ZM445.454 475V460.86H447.034V475H445.454ZM455.502 470.32H453.742C452.889 470.32 452.249 470.487 451.822 470.82C451.395 471.153 451.182 471.573 451.182 472.08C451.182 472.587 451.349 473 451.682 473.32C452.015 473.627 452.502 473.78 453.142 473.78C453.862 473.78 454.435 473.58 454.862 473.18C455.289 472.767 455.502 472.247 455.502 471.62V470.32ZM450.262 466.98V465.4C451.022 464.933 452.022 464.7 453.262 464.7C455.809 464.7 457.082 465.993 457.082 468.58V475H455.522V473.8C455.002 474.667 454.055 475.1 452.682 475.1C451.735 475.1 450.969 474.82 450.382 474.26C449.809 473.7 449.522 472.993 449.522 472.14C449.522 471.167 449.889 470.413 450.622 469.88C451.369 469.333 452.382 469.06 453.662 469.06H455.502V468.54C455.502 467.74 455.322 467.14 454.962 466.74C454.602 466.327 453.995 466.12 453.142 466.12C452.062 466.12 451.102 466.407 450.262 466.98ZM464.506 473.72C465.319 473.72 465.992 473.38 466.526 472.7C467.059 472.02 467.326 471.133 467.326 470.04C467.326 468.787 467.046 467.827 466.486 467.16C465.939 466.48 465.246 466.14 464.406 466.14C463.686 466.14 463.026 466.44 462.426 467.04C461.826 467.64 461.526 468.58 461.526 469.86C461.526 471.207 461.812 472.187 462.386 472.8C462.972 473.413 463.679 473.72 464.506 473.72ZM461.526 460.86V466.38C462.259 465.26 463.286 464.7 464.606 464.7C465.886 464.7 466.932 465.193 467.746 466.18C468.559 467.153 468.966 468.433 468.966 470.02C468.966 471.447 468.579 472.66 467.806 473.66C467.046 474.66 465.992 475.16 464.646 475.16C463.286 475.16 462.246 474.607 461.526 473.5V475H459.946V460.86H461.526ZM475.412 475.18C473.959 475.18 472.805 474.693 471.952 473.72C471.112 472.733 470.692 471.493 470.692 470C470.692 468.493 471.125 467.24 471.992 466.24C472.872 465.227 474.012 464.72 475.412 464.72C476.945 464.72 478.125 465.213 478.952 466.2C479.792 467.187 480.212 468.44 480.212 469.96C480.212 471.467 479.785 472.713 478.932 473.7C478.079 474.687 476.905 475.18 475.412 475.18ZM475.412 466.12C474.452 466.12 473.699 466.493 473.152 467.24C472.605 467.987 472.332 468.9 472.332 469.98C472.332 471.033 472.612 471.933 473.172 472.68C473.732 473.413 474.479 473.78 475.412 473.78C476.425 473.78 477.205 473.42 477.752 472.7C478.299 471.967 478.572 471.06 478.572 469.98C478.572 468.86 478.312 467.94 477.792 467.22C477.272 466.487 476.479 466.12 475.412 466.12ZM484.083 464.86V466.64C484.616 465.387 485.536 464.76 486.843 464.76C487.083 464.76 487.269 464.773 487.403 464.8V466.36C487.123 466.267 486.836 466.22 486.543 466.22C485.836 466.22 485.249 466.547 484.783 467.2C484.316 467.853 484.083 468.607 484.083 469.46V475H482.503L482.523 464.86H484.083ZM494.506 470.32H492.746C491.893 470.32 491.253 470.487 490.826 470.82C490.399 471.153 490.186 471.573 490.186 472.08C490.186 472.587 490.353 473 490.686 473.32C491.019 473.627 491.506 473.78 492.146 473.78C492.866 473.78 493.439 473.58 493.866 473.18C494.293 472.767 494.506 472.247 494.506 471.62V470.32ZM489.266 466.98V465.4C490.026 464.933 491.026 464.7 492.266 464.7C494.813 464.7 496.086 465.993 496.086 468.58V475H494.526V473.8C494.006 474.667 493.059 475.1 491.686 475.1C490.739 475.1 489.973 474.82 489.386 474.26C488.813 473.7 488.526 472.993 488.526 472.14C488.526 471.167 488.893 470.413 489.626 469.88C490.373 469.333 491.386 469.06 492.666 469.06H494.506V468.54C494.506 467.74 494.326 467.14 493.966 466.74C493.606 466.327 492.999 466.12 492.146 466.12C491.066 466.12 490.106 466.407 489.266 466.98ZM501.07 466.14V472.08C501.07 473.16 501.576 473.7 502.59 473.7C503.11 473.7 503.57 473.547 503.97 473.24V474.74C503.53 474.98 503.036 475.1 502.49 475.1C500.49 475.1 499.49 474.08 499.49 472.04V466.14H497.87V464.86H499.49V462.34H501.07V464.86H503.87V466.14H501.07ZM506.353 475V464.86H507.933V475H506.353ZM506.393 462.42C506.206 462.22 506.113 461.973 506.113 461.68C506.113 461.387 506.206 461.14 506.393 460.94C506.593 460.74 506.839 460.64 507.133 460.64C507.426 460.64 507.673 460.74 507.873 460.94C508.073 461.14 508.173 461.387 508.173 461.68C508.173 461.973 508.073 462.22 507.873 462.42C507.673 462.607 507.426 462.7 507.133 462.7C506.839 462.7 506.593 462.607 506.393 462.42ZM513.52 475L509.98 464.86H511.62L513.02 469.14L514.5 473.76C514.62 473.187 515.12 471.647 516 469.14L517.44 464.86H519.08L515.46 475H513.52ZM527.498 469.28V468.88C527.498 468.04 527.271 467.373 526.818 466.88C526.365 466.373 525.738 466.12 524.938 466.12C524.178 466.12 523.531 466.393 522.998 466.94C522.465 467.487 522.151 468.267 522.058 469.28H527.498ZM528.438 473V474.48C527.651 474.893 526.691 475.1 525.558 475.1C524.025 475.1 522.785 474.633 521.838 473.7C520.905 472.753 520.438 471.507 520.438 469.96C520.438 468.347 520.858 467.073 521.698 466.14C522.538 465.207 523.618 464.74 524.938 464.74C526.205 464.74 527.211 465.147 527.958 465.96C528.705 466.773 529.078 467.927 529.078 469.42C529.078 469.847 529.045 470.24 528.978 470.6H522.058C522.178 471.6 522.558 472.367 523.198 472.9C523.838 473.433 524.678 473.7 525.718 473.7C526.851 473.7 527.758 473.467 528.438 473ZM537.41 469.98C537.423 471.073 537.757 471.987 538.41 472.72C539.063 473.44 539.99 473.8 541.19 473.8C541.963 473.8 542.683 473.58 543.35 473.14V474.64C542.71 475.027 541.923 475.22 540.99 475.22C539.39 475.22 538.117 474.713 537.17 473.7C536.237 472.673 535.77 471.427 535.77 469.96C535.77 468.52 536.237 467.28 537.17 466.24C538.117 465.2 539.403 464.68 541.03 464.68C541.897 464.68 542.67 464.867 543.35 465.24V466.74C542.737 466.327 542.017 466.12 541.19 466.12C540.043 466.12 539.123 466.493 538.43 467.24C537.75 467.973 537.41 468.887 537.41 469.98ZM549.904 475.18C548.451 475.18 547.298 474.693 546.444 473.72C545.604 472.733 545.184 471.493 545.184 470C545.184 468.493 545.618 467.24 546.484 466.24C547.364 465.227 548.504 464.72 549.904 464.72C551.438 464.72 552.618 465.213 553.444 466.2C554.284 467.187 554.704 468.44 554.704 469.96C554.704 471.467 554.278 472.713 553.424 473.7C552.571 474.687 551.398 475.18 549.904 475.18ZM549.904 466.12C548.944 466.12 548.191 466.493 547.644 467.24C547.098 467.987 546.824 468.9 546.824 469.98C546.824 471.033 547.104 471.933 547.664 472.68C548.224 473.413 548.971 473.78 549.904 473.78C550.918 473.78 551.698 473.42 552.244 472.7C552.791 471.967 553.064 471.06 553.064 469.98C553.064 468.86 552.804 467.94 552.284 467.22C551.764 466.487 550.971 466.12 549.904 466.12ZM558.575 464.86V466.5C559.135 465.313 560.088 464.72 561.435 464.72C562.995 464.72 563.981 465.38 564.395 466.7C564.688 466.06 565.095 465.573 565.615 465.24C566.148 464.893 566.741 464.72 567.395 464.72C568.448 464.72 569.241 465.02 569.775 465.62C570.308 466.22 570.575 467.027 570.575 468.04V475H568.995V468.44C568.995 466.907 568.348 466.14 567.055 466.14C566.415 466.14 565.841 466.433 565.335 467.02C564.828 467.593 564.575 468.407 564.575 469.46V475H562.995V468.44C562.995 466.907 562.348 466.14 561.055 466.14C560.415 466.14 559.841 466.433 559.335 467.02C558.828 467.593 558.575 468.407 558.575 469.46V475H557.015V464.86H558.575ZM574.942 464.86V466.5C575.502 465.313 576.455 464.72 577.802 464.72C579.362 464.72 580.349 465.38 580.762 466.7C581.055 466.06 581.462 465.573 581.982 465.24C582.515 464.893 583.109 464.72 583.762 464.72C584.815 464.72 585.609 465.02 586.142 465.62C586.675 466.22 586.942 467.027 586.942 468.04V475H585.362V468.44C585.362 466.907 584.715 466.14 583.422 466.14C582.782 466.14 582.209 466.433 581.702 467.02C581.195 467.593 580.942 468.407 580.942 469.46V475H579.362V468.44C579.362 466.907 578.715 466.14 577.422 466.14C576.782 466.14 576.209 466.433 575.702 467.02C575.195 467.593 574.942 468.407 574.942 469.46V475H573.382V464.86H574.942ZM596.049 464.86H597.629V475H596.049V473.24C595.516 474.493 594.456 475.12 592.869 475.12C591.869 475.12 591.076 474.827 590.489 474.24C589.916 473.64 589.629 472.84 589.629 471.84V464.86H591.209V471.44C591.209 472.173 591.396 472.733 591.769 473.12C592.142 473.507 592.649 473.7 593.289 473.7C594.129 473.7 594.796 473.407 595.289 472.82C595.796 472.233 596.049 471.44 596.049 470.44V464.86ZM602.11 464.86V466.62C602.71 465.353 603.777 464.72 605.31 464.72C606.297 464.72 607.083 465.02 607.67 465.62C608.257 466.22 608.55 467.02 608.55 468.02V475H606.97V468.44C606.97 467.693 606.777 467.127 606.39 466.74C606.017 466.34 605.523 466.14 604.91 466.14C604.15 466.14 603.49 466.433 602.93 467.02C602.383 467.607 602.11 468.42 602.11 469.46V475H600.55V464.86H602.11ZM611.431 475V464.86H613.011V475H611.431ZM611.471 462.42C611.284 462.22 611.191 461.973 611.191 461.68C611.191 461.387 611.284 461.14 611.471 460.94C611.671 460.74 611.917 460.64 612.211 460.64C612.504 460.64 612.751 460.74 612.951 460.94C613.151 461.14 613.251 461.387 613.251 461.68C613.251 461.973 613.151 462.22 612.951 462.42C612.751 462.607 612.504 462.7 612.211 462.7C611.917 462.7 611.671 462.607 611.471 462.42ZM617.059 469.98C617.072 471.073 617.405 471.987 618.059 472.72C618.712 473.44 619.639 473.8 620.839 473.8C621.612 473.8 622.332 473.58 622.999 473.14V474.64C622.359 475.027 621.572 475.22 620.639 475.22C619.039 475.22 617.765 474.713 616.819 473.7C615.885 472.673 615.419 471.427 615.419 469.96C615.419 468.52 615.885 467.28 616.819 466.24C617.765 465.2 619.052 464.68 620.679 464.68C621.545 464.68 622.319 464.867 622.999 465.24V466.74C622.385 466.327 621.665 466.12 620.839 466.12C619.692 466.12 618.772 466.493 618.079 467.24C617.399 467.973 617.059 468.887 617.059 469.98ZM630.893 470.32H629.133C628.279 470.32 627.639 470.487 627.213 470.82C626.786 471.153 626.573 471.573 626.573 472.08C626.573 472.587 626.739 473 627.073 473.32C627.406 473.627 627.893 473.78 628.533 473.78C629.253 473.78 629.826 473.58 630.253 473.18C630.679 472.767 630.893 472.247 630.893 471.62V470.32ZM625.653 466.98V465.4C626.413 464.933 627.413 464.7 628.653 464.7C631.199 464.7 632.473 465.993 632.473 468.58V475H630.913V473.8C630.393 474.667 629.446 475.1 628.073 475.1C627.126 475.1 626.359 474.82 625.773 474.26C625.199 473.7 624.913 472.993 624.913 472.14C624.913 471.167 625.279 470.413 626.013 469.88C626.759 469.333 627.773 469.06 629.053 469.06H630.893V468.54C630.893 467.74 630.713 467.14 630.353 466.74C629.993 466.327 629.386 466.12 628.533 466.12C627.453 466.12 626.493 466.407 625.653 466.98ZM637.456 466.14V472.08C637.456 473.16 637.963 473.7 638.976 473.7C639.496 473.7 639.956 473.547 640.356 473.24V474.74C639.916 474.98 639.423 475.1 638.876 475.1C636.876 475.1 635.876 474.08 635.876 472.04V466.14H634.256V464.86H635.876V462.34H637.456V464.86H640.256V466.14H637.456ZM646.779 475.18C645.326 475.18 644.173 474.693 643.319 473.72C642.479 472.733 642.059 471.493 642.059 470C642.059 468.493 642.493 467.24 643.359 466.24C644.239 465.227 645.379 464.72 646.779 464.72C648.313 464.72 649.493 465.213 650.319 466.2C651.159 467.187 651.579 468.44 651.579 469.96C651.579 471.467 651.153 472.713 650.299 473.7C649.446 474.687 648.273 475.18 646.779 475.18ZM646.779 466.12C645.819 466.12 645.066 466.493 644.519 467.24C643.973 467.987 643.699 468.9 643.699 469.98C643.699 471.033 643.979 471.933 644.539 472.68C645.099 473.413 645.846 473.78 646.779 473.78C647.793 473.78 648.573 473.42 649.119 472.7C649.666 471.967 649.939 471.06 649.939 469.98C649.939 468.86 649.679 467.94 649.159 467.22C648.639 466.487 647.846 466.12 646.779 466.12ZM655.45 464.86V466.64C655.983 465.387 656.903 464.76 658.21 464.76C658.45 464.76 658.636 464.773 658.77 464.8V466.36C658.49 466.267 658.203 466.22 657.91 466.22C657.203 466.22 656.616 466.547 656.15 467.2C655.683 467.853 655.45 468.607 655.45 469.46V475H653.87L653.89 464.86H655.45ZM659.773 474.82C659.546 474.593 659.433 474.313 659.433 473.98C659.433 473.647 659.546 473.367 659.773 473.14C660 472.913 660.28 472.8 660.613 472.8C660.946 472.8 661.226 472.913 661.453 473.14C661.68 473.367 661.793 473.647 661.793 473.98C661.793 474.313 661.68 474.593 661.453 474.82C661.226 475.047 660.946 475.16 660.613 475.16C660.28 475.16 660 475.047 659.773 474.82Z" fill="#1F1F1F"/>
</svg>
