<svg width="44" height="44" viewBox="0 0 44 44" fill="none" xmlns="http://www.w3.org/2000/svg">
<path d="M20.565 2.43185C20.9965 1.01421 23.0035 1.01421 23.435 2.43185L27.2781 15.0582C27.5207 15.8554 28.1446 16.4793 28.9418 16.7219L41.5681 20.565C42.9858 20.9965 42.9858 23.0035 41.5681 23.435L28.9418 27.2781C28.1446 27.5207 27.5207 28.1446 27.2781 28.9418L23.435 41.5681C23.0035 42.9858 20.9965 42.9858 20.565 41.5681L16.7219 28.9418C16.4793 28.1446 15.8554 27.5207 15.0582 27.2781L2.43185 23.435C1.01421 23.0035 1.01421 20.9965 2.43185 20.565L15.0582 16.7219C15.8554 16.4793 16.4793 15.8554 16.7219 15.0582L20.565 2.43185Z" fill="#A9FFFA" stroke="black"/>
</svg>
