<svg width="48" height="48" viewBox="0 0 48 48" fill="none" xmlns="http://www.w3.org/2000/svg">
<mask id="mask0_1009_445" style="mask-type:alpha" maskUnits="userSpaceOnUse" x="0" y="0" width="48" height="48">
<rect width="48" height="48" fill="#D9D9D9"/>
</mask>
<g mask="url(#mask0_1009_445)">
<path fill-rule="evenodd" clip-rule="evenodd" d="M39.8876 17.4022C39.7662 14.8388 39.1808 12.5681 37.3033 10.6973C35.4329 8.82651 33.1627 8.24099 30.5999 8.11246C27.9585 7.96251 20.0415 7.96251 17.4001 8.11246C14.8444 8.23385 12.5742 8.81937 10.6967 10.6902C8.81919 12.561 8.24094 14.8316 8.11244 17.3951C7.96252 20.037 7.96252 27.9558 8.11244 30.5978C8.2338 33.1612 8.81919 35.4319 10.6967 37.3027C12.5742 39.1735 14.8373 39.759 17.4001 39.8875C20.0415 40.0375 27.9585 40.0375 30.5999 39.8875C33.1627 39.7662 35.4329 39.1806 37.3033 37.3027C39.1737 35.4319 39.7591 33.1612 39.8876 30.5978C40.0375 27.9558 40.0375 20.0442 39.8876 17.4022ZM36.4752 33.4326C35.9183 34.8321 34.8404 35.9103 33.434 36.4744C31.6277 37.1909 27.6945 37.1511 25.1433 37.1252C24.72 37.1209 24.3347 37.117 24.0036 37.117C23.6787 37.117 23.3017 37.1207 22.8877 37.1246C20.3359 37.1491 16.379 37.1871 14.5731 36.4744C13.1739 35.9174 12.0959 34.8392 11.532 33.4326C10.8156 31.6259 10.8554 27.6918 10.8813 25.14C10.8856 24.7166 10.8895 24.3313 10.8895 24C10.8895 23.6751 10.8858 23.298 10.8819 22.8839C10.8574 20.3315 10.8194 16.3737 11.532 14.5674C12.0888 13.1679 13.1668 12.0897 14.5731 11.5256C16.3794 10.8091 20.3126 10.8489 22.8639 10.8748C23.2871 10.8791 23.6724 10.883 24.0036 10.883C24.3284 10.883 24.7054 10.8793 25.1194 10.8754C27.6713 10.8509 31.6282 10.8129 33.434 11.5256C34.8332 12.0826 35.9112 13.1608 36.4752 14.5674C37.1916 16.3741 37.1517 20.3082 37.1259 22.86C37.1216 23.2834 37.1177 23.6687 37.1177 24C37.1177 24.3312 37.1216 24.7166 37.1259 25.1401C37.1517 27.6933 37.1916 31.6319 36.4752 33.4326Z" fill="#0158FF"/>
<path fill-rule="evenodd" clip-rule="evenodd" d="M36.4752 33.4326C35.9183 34.8321 34.8404 35.9103 33.434 36.4744C31.6277 37.1909 27.6945 37.1511 25.1433 37.1252C24.72 37.1209 24.3347 37.117 24.0036 37.117C23.6787 37.117 23.3017 37.1207 22.8877 37.1246C20.3359 37.1491 16.379 37.1871 14.5731 36.4744C13.1739 35.9174 12.0959 34.8392 11.532 33.4326C10.8156 31.6259 10.8554 27.6918 10.8813 25.14C10.8856 24.7166 10.8895 24.3313 10.8895 24C10.8895 23.6751 10.8858 23.298 10.8819 22.8839C10.8574 20.3315 10.8194 16.3737 11.532 14.5674C12.0888 13.1679 13.1668 12.0897 14.5731 11.5256C16.3794 10.8091 20.3126 10.8489 22.8639 10.8748C23.2871 10.8791 23.6724 10.883 24.0036 10.883C24.3284 10.883 24.7054 10.8793 25.1194 10.8754C27.6713 10.8509 31.6282 10.8129 33.434 11.5256C34.8332 12.0826 35.9112 13.1608 36.4752 14.5674C37.1916 16.3741 37.1517 20.3082 37.1259 22.86C37.1216 23.2834 37.1177 23.6687 37.1177 24C37.1177 24.3312 37.1216 24.7166 37.1259 25.1401C37.1517 27.6933 37.1916 31.6319 36.4752 33.4326ZM15.801 24C15.801 19.4587 19.4632 15.7956 24.0036 15.7956C28.5439 15.7956 32.2061 19.4587 32.2061 24C32.2061 28.5413 28.5439 32.2044 24.0036 32.2044C19.4632 32.2044 15.801 28.5413 15.801 24ZM32.5417 17.3736C33.5982 17.3736 34.4549 16.5239 34.4549 15.46C34.4549 14.4032 33.5982 13.5464 32.5417 13.5464C31.4851 13.5464 30.6284 14.4032 30.6284 15.46C30.6284 16.5168 31.478 17.3736 32.5417 17.3736Z" fill="#0158FF"/>
<path d="M24.0036 29.3339C21.0695 29.3339 18.6708 26.9419 18.6708 24C18.6708 21.0581 21.0624 18.6661 24.0036 18.6661C26.9448 18.6661 29.3363 21.0581 29.3363 24C29.3363 26.9419 26.9376 29.3339 24.0036 29.3339Z" fill="#0158FF"/>
</g>
</svg>
