<svg width="136" height="105" viewBox="0 0 136 105" fill="none" xmlns="http://www.w3.org/2000/svg">
<path d="M69.4205 103.494C85.7066 100.754 99.4743 99.2783 114.472 92.2196C126.199 85.7034 132.046 78.4385 134.563 71.0065C135.684 67.6962 135.219 58.8199 126.199 57.422C121.858 56.808 116.889 57.7152 111.597 60.0915C101.759 64.5095 96.0763 68.8776 90.9939 74.0363C86.0473 79.0571 82.179 83.3175 77.8901 88.2295C80.4069 84.4713 82.7168 80.6184 85.7066 75.8588C90.1765 68.7429 91.8667 67.1674 96.8129 57.422C100.784 49.5973 102.341 46.2 104.087 35.5687C105.401 27.5619 105.251 20.5076 100.322 14.9087C95.394 9.30974 86.6953 10.1556 81.6834 16.3732C76.4463 22.8701 73.7698 30.284 71.791 39.7031C68.6271 54.7641 69.4833 61.0827 68.6271 74.0363C68.1907 80.6379 67.9172 100.489 67.9172 93.8726C67.9172 89.4507 67.9442 85.0278 67.9172 80.606C67.7799 58.1697 67.973 42.9683 60.0629 21.9841C55.3817 9.56572 45.0046 1.42793 36.6545 1.00766C31.4174 0.744014 22.9874 7.31315 23.202 16.3731C23.4167 25.4331 27.2754 30.8432 32.8035 39.7031C40.5595 52.1336 46.9601 58.7408 53.461 71.0065C58.8004 81.0805 62.3414 87.5056 66.4974 96.9667C66.6588 97.3342 66.8487 97.8306 67.0529 98.3908C63.9111 93.3133 58.4923 86.3259 56.1796 83.9327C45.1234 72.4923 40.3682 68.939 28.4392 61.8515C7.10932 49.1785 -5.30998 58.5097 4.29018 71.3016C11.273 80.606 22.0272 85.1842 40.3331 93.2368C55.1388 99.7497 65.8429 103.083 68.926 103.458C69.2245 104.093 69.4205 104.249 69.4205 103.494Z" fill="#DEFFA9"/>
<path d="M69.4205 103.494C85.7066 100.754 99.4743 99.2783 114.472 92.2196C126.199 85.7034 132.046 78.4385 134.563 71.0065C135.684 67.6962 135.219 58.8199 126.199 57.422C121.858 56.808 116.889 57.7152 111.597 60.0915C101.759 64.5095 96.0763 68.8776 90.9939 74.0363C84.7606 80.363 80.2395 85.4824 74.4316 92.2196C72.9708 93.9141 71.5839 95.9572 70.9656 98.1535C70.4246 100.076 73.1556 94.8276 74.3481 93.2368C78.4945 87.7056 81.3929 82.726 85.7066 75.8588C90.1765 68.7429 91.8667 67.1674 96.8129 57.422C100.784 49.5973 102.341 46.2 104.087 35.5687C105.401 27.5619 105.251 20.5076 100.322 14.9087C95.394 9.30974 86.6953 10.1556 81.6834 16.3732C76.4463 22.8701 73.7698 30.284 71.7911 39.7031C68.6271 54.7641 69.4833 61.0827 68.6271 74.0363C68.1907 80.6379 67.9172 100.489 67.9172 93.8726C67.9172 89.4507 67.9442 85.0278 67.9172 80.606C67.7799 58.1697 67.973 42.9683 60.0629 21.9841C55.3817 9.56572 45.0046 1.42793 36.6545 1.00766C31.4174 0.744014 22.9874 7.31315 23.202 16.3731C23.4167 25.4331 27.2754 30.8432 32.8035 39.7031C40.5595 52.1336 46.9601 58.7408 53.461 71.0065C58.8004 81.0805 62.3414 87.5056 66.4974 96.9667C67.4562 99.1496 69.4205 105.884 69.4205 103.494ZM69.4205 103.494C69.4205 100.537 59.5337 87.4034 56.1796 83.9327C45.1234 72.4923 40.3682 68.939 28.4392 61.8515C7.10932 49.1785 -5.30998 58.5097 4.29018 71.3016C11.273 80.606 22.0272 85.1842 40.3331 93.2368C56.0796 100.164 67.1867 103.494 69.4205 103.494Z" stroke="#1F1F1F" stroke-width="2" stroke-linecap="round"/>
</svg>
