<svg width="95" height="119" viewBox="0 0 95 119" fill="none" xmlns="http://www.w3.org/2000/svg">
<path d="M11.0177 26.7647C11.0177 26.7647 26.2845 10.8026 34.5515 1.15588C32.2668 7.03915 26.4809 19.1583 26.4809 19.1583C26.4809 19.1583 20.0128 30.2008 21.9442 30.2703C22.3614 30.9208 28.0119 32.567 32.564 34.0242C37.2517 35.5249 46.1734 37.6264 46.1734 37.6264C46.1734 37.6264 36.4407 47.8813 29.5163 53.886C20.1968 61.9677 2.56195 75.8708 3.83521 72.8687C5.10846 69.8667 8.82344 65.8505 11.6613 61.2839C14.4992 56.7174 22.0841 44.0219 22.0841 44.0219C22.0841 44.0219 3.27801 39.3503 1.3632 38.867C-0.551602 38.3837 11.0177 26.7647 11.0177 26.7647Z" fill="#FFDA00" stroke="#1F1F1F" stroke-width="2" stroke-linecap="round"/>
<path d="M55.1401 72.9093C55.2537 70.6879 54.707 65.9387 56.3804 64.1973" stroke="#1F1F1F" stroke-width="2" stroke-linecap="round"/>
<path d="M58.2405 75.1679C60.1199 75.0955 61.9708 74.8436 63.8217 74.5226" stroke="#1F1F1F" stroke-width="2" stroke-linecap="round"/>
<path d="M51.7291 76.1361C50.5248 76.1361 48.0082 76.4585 47.3882 75.1681" stroke="#1F1F1F" stroke-width="2" stroke-linecap="round"/>
<path d="M55.76 79.3628C55.9856 83.0015 56.6851 86.7856 58.1716 90.1005C58.5805 91.0122 58.8588 91.9389 58.5506 90.6562" stroke="#1F1F1F" stroke-width="2" stroke-linecap="round"/>
<path d="M79.2014 94.8795C78.71 92.0327 78.6633 86.2199 80.7422 84.0565" stroke="#1F1F1F" stroke-width="2" stroke-linecap="round"/>
<path d="M83.0532 97.6855C86.6695 98.1682 90.207 97.6855 93.7446 96.3275" stroke="#1F1F1F" stroke-width="2" stroke-linecap="round"/>
<path d="M74.9642 98.8881C73.468 98.8881 68.278 98.5441 67.5078 96.941" stroke="#1F1F1F" stroke-width="2" stroke-linecap="round"/>
<path d="M79.9719 102.897C80.2522 107.417 81.1212 112.118 82.9679 116.236C83.4758 117.369 83.8215 118.52 83.4387 116.926" stroke="#1F1F1F" stroke-width="2" stroke-linecap="round"/>
</svg>
