<svg width="75" height="52" viewBox="0 0 75 52" fill="none" xmlns="http://www.w3.org/2000/svg">
  <path d="M28.1827 26.8698C27.1278 18.1968 17.1068 12.5848 8.40432 16.4111C0.492977 19.8854 -3.4627 31.9716 8.93175 42.9405C16.0836 49.2718 34.1162 52.6951 53.499 49.3177C79.8702 44.7261 76.9693 19.9824 62.4652 20.7477C57.6076 21.0027 55.6087 23.2986 55.6087 23.2986C58.2458 15.6459 55.6087 1.9611 41.6116 1.03795C30.0083 0.272689 22.8881 11.2407 24.4703 19.4036" fill="#FFDA00"/>
  <path d="M28.1827 26.8698C27.1278 18.1968 17.1068 12.5848 8.40432 16.4111C0.492977 19.8854 -3.4627 31.9716 8.93175 42.9405C16.0836 49.2718 34.1162 52.6951 53.499 49.3177C79.8702 44.7261 76.9693 19.9824 62.4652 20.7477C57.6076 21.0027 55.6087 23.2986 55.6087 23.2986C58.2458 15.6459 55.6087 1.9611 41.6116 1.03795C30.0083 0.272689 22.8881 11.2407 24.4703 19.4036" stroke="#1F1F1F" stroke-width="2" stroke-miterlimit="10" stroke-linecap="round" stroke-linejoin="round"/>
  <path d="M40.9749 26.7209C43.6816 26.7209 45.5856 29.2876 46.6869 34.4209C46.7989 34.7196 46.8549 35.3263 46.8549 36.2409V36.4369C46.8549 38.3969 46.2389 40.6463 45.0069 43.1849C45.4922 43.3529 46.2389 43.4369 47.2469 43.4369C48.2736 43.4369 49.4496 43.0823 50.7749 42.3729C51.1669 42.3729 51.4376 42.6996 51.5869 43.3529C51.5869 44.1556 50.0282 44.7436 46.9109 45.1169H46.8549L43.6909 44.6409C42.3469 45.7049 41.0682 46.2369 39.8549 46.2369C37.3162 46.2369 35.3282 44.4823 33.8909 40.9729C33.4242 39.5916 33.1909 38.1356 33.1909 36.6049V36.1849C33.1909 31.8169 34.3016 29.0169 36.5229 27.7849L38.1749 27.3369L38.7909 27.4209C39.5002 26.9543 40.2282 26.7209 40.9749 26.7209ZM37.4749 34.5049V35.3729C37.4749 38.6583 39.3976 41.0849 43.2429 42.6529C44.5309 40.8609 45.1749 38.7609 45.1749 36.3529V36.1849C45.1749 33.2729 44.2416 30.8183 42.3749 28.8209C41.7962 28.5223 41.3669 28.3729 41.0869 28.3729H40.8069C39.9856 28.3729 39.1642 28.9889 38.3429 30.2209C37.7642 31.4903 37.4749 32.9183 37.4749 34.5049ZM34.8429 36.0729V36.9409C34.8429 40.7303 36.1869 43.2223 38.8749 44.4169C39.0989 44.5289 39.4256 44.5849 39.8549 44.5849H40.0229C40.7696 44.5849 41.3576 44.3703 41.7869 43.9409V43.7729C37.8109 41.8689 35.8229 38.9289 35.8229 34.9529V34.5049C35.8229 32.8249 36.1776 31.1916 36.8869 29.6049H36.6909C35.4589 30.7436 34.8429 32.8996 34.8429 36.0729Z" fill="#1F1F1F"/>
</svg>