<svg width="242" height="156" viewBox="0 0 242 156" fill="none" xmlns="http://www.w3.org/2000/svg">
<path d="M217.334 132.314C219.612 138.328 223.857 143.882 227.493 149.137C228.745 150.948 230.212 152.738 231.195 154.705" stroke="#1F1F1F" stroke-width="2" stroke-linecap="round"/>
<path d="M206.938 136.579C206.938 141.624 207.198 146.535 208.004 151.507" stroke="#1F1F1F" stroke-width="2" stroke-linecap="round"/>
<path d="M225.907 125.918C230.649 127.148 234.762 130.241 238.608 133.136C239.726 133.978 241.332 134.677 239.338 134.677" stroke="#1F1F1F" stroke-width="2" stroke-linecap="round"/>
<rect x="21.2486" y="1.21402" width="223" height="82" rx="41" transform="rotate(14.1419 21.2486 1.21402)" fill="#DEFFA9"/>
<rect x="21.2486" y="1.21402" width="223" height="82" rx="41" transform="rotate(14.1419 21.2486 1.21402)" stroke="#1F1F1F" stroke-width="2"/>
<path d="M41.5636 53.7702L44.8571 40.6988L46.8352 41.1972L48.725 47.5309L50.6145 54.0295C50.8788 52.7623 51.3269 50.8746 51.9589 48.3663L53.3516 42.839L54.9225 43.2348L51.629 56.3063L49.6508 55.8079L47.7512 49.513C47.3687 48.2479 47.0184 47.0734 46.7003 45.9894C46.3854 44.8926 46.1637 44.108 46.0352 43.6356L45.857 42.9513C45.5829 44.3123 45.1379 46.2145 44.5222 48.6582L43.1345 54.166L41.5636 53.7702ZM58.4864 58.2197C57.0771 57.8646 56.0776 57.1109 55.4879 55.9586C54.9145 54.7966 54.8101 53.4916 55.175 52.0435C55.5431 50.5825 56.2695 49.473 57.3543 48.7151C58.4552 47.9475 59.6844 47.7347 61.042 48.0767C62.5288 48.4514 63.5526 49.218 64.1131 50.3768C64.6866 51.5388 64.7876 52.8567 64.4163 54.3307C64.0481 55.7917 63.3298 56.8963 62.2613 57.6446C61.1927 58.3929 59.9344 58.5846 58.4864 58.2197ZM60.6999 49.4343C59.769 49.1997 58.9473 49.3777 58.2348 49.9682C57.5223 50.5587 57.0341 51.3775 56.7702 52.4248C56.5128 53.4462 56.5645 54.3873 56.9251 55.2482C57.2889 56.0961 57.9234 56.6341 58.8284 56.8621C59.811 57.1097 60.6553 56.9512 61.3614 56.3866C62.0706 55.8091 62.5572 54.9966 62.8211 53.9494C63.0947 52.8633 63.0674 51.9077 62.739 51.0824C62.414 50.2443 61.7343 49.6949 60.6999 49.4343ZM69.4155 50.3309L68.9855 52.0375C69.8768 50.9559 71.0658 50.6023 72.5527 50.977C73.5095 51.218 74.199 51.7011 74.6213 52.4263C75.0436 53.1514 75.1326 53.9989 74.8882 54.9686L73.1829 61.737L71.6507 61.351L73.2535 54.9898C73.4359 54.2658 73.3869 53.669 73.1064 53.1996C72.8421 52.7205 72.4126 52.4061 71.8179 52.2562C71.0809 52.0705 70.3693 52.1937 69.6829 52.6258C69.0095 53.0611 68.5457 53.783 68.2916 54.7915L66.938 60.1636L65.4253 59.7824L67.9028 49.9497L69.4155 50.3309ZM82.8686 59.0005C82.6144 60.064 82.7145 61.0311 83.1688 61.9018C83.6264 62.7596 84.4371 63.3351 85.6007 63.6283C86.3506 63.8173 87.1025 63.7798 87.8565 63.5161L87.49 64.9706C86.7749 65.1892 85.9649 65.1845 85.0598 64.9564C83.5083 64.5655 82.3974 63.7631 81.727 62.5492C81.0728 61.3256 80.9248 60.0027 81.2832 58.5805C81.635 57.1841 82.3905 56.0957 83.5496 55.3153C84.7217 54.5381 86.0964 54.3482 87.6738 54.7456C88.5142 54.9574 89.2185 55.3273 89.7867 55.8555L89.4202 57.31C88.9264 56.7594 88.2787 56.3831 87.4771 56.1811C86.3652 55.9009 85.3819 56.0382 84.5271 56.5928C83.6886 57.1378 83.1357 57.9403 82.8686 59.0005ZM93.7135 67.0956C92.3042 66.7405 91.3047 65.9868 90.7151 64.8344C90.1416 63.6724 90.0373 62.3674 90.4022 60.9193C90.7703 59.4583 91.4967 58.3489 92.5814 57.5909C93.6823 56.8233 94.9116 56.6105 96.2691 56.9526C97.756 57.3272 98.7797 58.0939 99.3403 59.2526C99.9137 60.4146 100.015 61.7326 99.6434 63.2065C99.2753 64.6675 98.557 65.7722 97.4884 66.5204C96.4199 67.2687 95.1616 67.4604 93.7135 67.0956ZM95.9271 58.3101C94.9962 58.0756 94.1745 58.2535 93.4619 58.844C92.7494 59.4345 92.2612 60.2534 91.9973 61.3006C91.74 62.322 91.7916 63.2632 92.1522 64.124C92.5161 64.972 93.1505 65.5099 94.0556 65.738C95.0382 65.9856 95.8825 65.8271 96.5885 65.2624C97.2978 64.6849 97.7844 63.8725 98.0482 62.8252C98.3219 61.7392 98.2945 60.7835 97.9662 59.9583C97.6411 59.1201 96.9614 58.5707 95.9271 58.3101ZM104.708 68.3602C105.51 68.5621 106.264 68.4358 106.969 67.9811C107.688 67.5297 108.212 66.6511 108.541 65.3452C108.854 64.104 108.792 63.1192 108.357 62.3908C107.922 61.6624 107.355 61.2102 106.657 61.0343C105.843 60.8291 105.081 60.9877 104.372 61.5103C103.679 62.0232 103.179 62.8873 102.873 64.1027C102.606 65.1629 102.648 66.0878 102.999 66.8775C103.35 67.6672 103.92 68.1614 104.708 68.3602ZM110.74 56.618L112.272 57.004L108.817 70.7155L107.285 70.3294L107.652 68.8749C106.683 69.7721 105.539 70.0546 104.221 69.7223C102.915 69.3933 102.009 68.6495 101.503 67.4908C101.011 66.3354 100.939 65.066 101.287 63.6826C101.675 62.144 102.382 61.0022 103.409 60.2571C104.438 59.499 105.574 59.2763 106.815 59.5891C108.095 59.9116 108.952 60.7119 109.386 61.9901L110.74 56.618ZM111.734 71.4503L114.211 61.6176L115.743 62.0037L113.266 71.8364L111.734 71.4503ZM114.846 59.2613C114.714 59.0218 114.684 58.7598 114.755 58.4754C114.827 58.1909 114.978 57.9745 115.208 57.8262C115.451 57.6811 115.714 57.6444 115.999 57.7161C116.283 57.7878 116.498 57.945 116.643 58.1878C116.788 58.4306 116.825 58.6942 116.753 58.9787C116.681 59.2631 116.524 59.4779 116.281 59.6229C116.042 59.7551 115.78 59.7853 115.495 59.7137C115.211 59.642 114.995 59.4912 114.846 59.2613ZM120.173 63.1197L119.743 64.8264C120.634 63.7447 121.823 63.3912 123.31 63.7658C124.267 64.0069 124.956 64.49 125.379 65.2151C125.801 65.9403 125.89 66.7877 125.646 67.7574L123.94 74.5259L122.408 74.1398L124.011 67.7786C124.193 67.0546 124.144 66.4579 123.864 65.9885C123.6 65.5094 123.17 65.1949 122.575 65.045C121.838 64.8594 121.127 64.9825 120.44 65.4146C119.767 65.8499 119.303 66.5718 119.049 67.5803L117.695 72.9524L116.183 72.5713L118.66 62.7386L120.173 63.1197ZM130.747 74.5289C131.458 74.7081 132.153 74.5946 132.833 74.1884C133.529 73.7725 134.014 73.0215 134.288 71.9354C134.604 70.6813 134.573 69.6836 134.196 68.9424C133.819 68.2011 133.281 67.7426 132.583 67.5667C131.743 67.3549 130.992 67.5233 130.332 68.0718C129.674 68.6074 129.21 69.4118 128.94 70.4849C128.663 71.5839 128.723 72.4927 129.119 73.2114C129.519 73.9171 130.061 74.3563 130.747 74.5289ZM135.534 66.99L137.066 67.376L134.789 76.4136C134.411 77.9134 133.714 78.934 132.697 79.4754C131.677 80.0297 130.515 80.1424 129.209 79.8134C128.019 79.5137 127.055 79.0575 126.315 78.445L126.702 76.9129C127.408 77.5997 128.318 78.0832 129.43 78.3634C130.374 78.6012 131.181 78.5364 131.851 78.169C132.521 77.8016 132.991 77.0813 133.261 76.0082L133.54 74.9027C132.613 75.8517 131.51 76.165 130.23 75.8425C129.105 75.5591 128.246 74.9027 127.653 73.8732C127.073 72.847 126.968 71.597 127.34 70.123C127.708 68.662 128.379 67.5524 129.354 66.7943C130.329 66.0361 131.411 65.8069 132.601 66.1066C133.945 66.4454 134.786 67.2829 135.123 68.6191L135.534 66.99ZM146.091 78.7869C146.892 78.9889 147.646 78.8625 148.352 78.4078C149.071 77.9564 149.594 77.0778 149.923 75.7719C150.236 74.5307 150.175 73.5459 149.74 72.8175C149.304 72.0891 148.738 71.6369 148.04 71.461C147.225 71.2558 146.463 71.4145 145.754 71.937C145.061 72.4499 144.561 73.3141 144.255 74.5294C143.988 75.5896 144.03 76.5146 144.381 77.3043C144.732 78.094 145.302 78.5882 146.091 78.7869ZM152.122 67.0447L153.654 67.4307L150.2 81.1422L148.668 80.7562L149.034 79.3016C148.066 80.1988 146.922 80.4813 145.603 80.149C144.297 79.82 143.391 79.0762 142.886 77.9175C142.393 76.7622 142.321 75.4928 142.67 74.1093C143.057 72.5707 143.765 71.4289 144.791 70.6838C145.821 69.9257 146.956 69.7031 148.197 70.0158C149.477 70.3383 150.335 71.1386 150.769 72.4168L152.122 67.0447ZM160.7 77.8892L160.798 77.5013C161.003 76.6868 160.946 75.9849 160.627 75.3958C160.312 74.7937 159.766 74.3949 158.99 74.1995C158.253 74.0138 157.559 74.1209 156.908 74.5206C156.258 74.9204 155.763 75.6002 155.425 76.5601L160.7 77.8892ZM160.703 81.7261L160.341 83.1613C159.478 83.3699 158.496 83.3357 157.397 83.0588C155.91 82.6842 154.822 81.9287 154.132 80.7924C153.458 79.6463 153.31 78.3234 153.688 76.8237C154.082 75.2592 154.801 74.1271 155.843 73.4273C156.886 72.7275 158.047 72.5388 159.327 72.8613C160.555 73.1708 161.432 73.8111 161.958 74.7822C162.483 75.7533 162.563 76.9629 162.198 78.411C162.094 78.8247 161.966 79.198 161.813 79.5308L155.103 77.8401C154.975 78.8391 155.156 79.6753 155.646 80.3489C156.137 81.0224 156.886 81.4862 157.894 81.7403C158.993 82.0172 159.93 82.0125 160.703 81.7261ZM170.918 76.2562L170.552 77.7107C170.048 77.1988 169.279 76.8126 168.245 76.552C167.728 76.4217 167.283 76.4403 166.911 76.6077C166.555 76.7655 166.33 77.0319 166.235 77.4069C166.177 77.6396 166.17 77.8579 166.215 78.0617C166.263 78.2525 166.395 78.4646 166.611 78.6978C166.84 78.9343 167.005 79.0996 167.105 79.1935C167.221 79.2778 167.463 79.4626 167.832 79.7478C168.574 80.2925 169.125 80.8368 169.483 81.3807C169.841 81.9247 169.928 82.5587 169.746 83.2827C169.534 84.1231 169.069 84.714 168.351 85.0555C167.645 85.4002 166.781 85.4439 165.76 85.1865C164.571 84.8868 163.658 84.4437 163.022 83.8572L163.398 82.3639C164.134 83.0993 165 83.5925 165.995 83.8433C166.59 83.9932 167.072 83.9908 167.441 83.8363C167.81 83.6817 168.045 83.4041 168.146 83.0033C168.263 82.5378 168.18 82.1318 167.896 81.7853C167.625 81.442 167.129 81.0077 166.409 80.4825C165.744 80.0124 165.239 79.507 164.894 78.9663C164.561 78.4289 164.487 77.7982 164.669 77.0741C164.874 76.2596 165.341 75.6897 166.069 75.3644C166.814 75.0295 167.645 74.9776 168.563 75.2089C169.584 75.4663 170.369 75.8154 170.918 76.2562ZM171.241 86.4438L173.719 76.6111L175.251 76.9971L172.773 86.8298L171.241 86.4438ZM174.354 74.2548C174.221 74.0153 174.191 73.7533 174.263 73.4689C174.334 73.1844 174.485 72.968 174.715 72.8197C174.958 72.6746 175.222 72.6379 175.506 72.7096C175.79 72.7812 176.005 72.9385 176.15 73.1813C176.295 73.4241 176.332 73.6877 176.26 73.9722C176.189 74.2566 176.031 74.4714 175.789 74.6164C175.549 74.7486 175.287 74.7788 175.003 74.7071C174.718 74.6355 174.502 74.4847 174.354 74.2548ZM179.78 86.8835C180.492 87.0627 181.187 86.9492 181.867 86.5429C182.563 86.1271 183.048 85.3761 183.321 84.29C183.637 83.0359 183.607 82.0382 183.23 81.297C182.853 80.5557 182.315 80.0972 181.617 79.9213C180.777 79.7095 180.026 79.8779 179.366 80.4264C178.708 80.962 178.244 81.7664 177.974 82.8395C177.697 83.9385 177.757 84.8473 178.153 85.566C178.553 86.2717 179.095 86.7108 179.78 86.8835ZM184.568 79.3446L186.1 79.7306L183.823 88.7682C183.445 90.268 182.747 91.2886 181.731 91.83C180.711 92.3843 179.549 92.497 178.243 92.168C177.053 91.8682 176.089 91.4121 175.349 90.7996L175.735 89.2674C176.442 89.9543 177.352 90.4378 178.464 90.718C179.408 90.9558 180.215 90.891 180.885 90.5236C181.555 90.1562 182.025 89.4359 182.295 88.3628L182.574 87.2573C181.647 88.2063 180.544 88.5196 179.264 88.1971C178.139 87.9137 177.28 87.2572 176.687 86.2278C176.107 85.2016 176.002 83.9515 176.374 82.4776C176.742 81.0166 177.413 79.907 178.388 79.1489C179.363 78.3907 180.445 78.1615 181.634 78.4612C182.979 78.8 183.82 79.6375 184.157 80.9737L184.568 79.3446ZM190.324 80.7951L189.894 82.5017C190.785 81.42 191.975 81.0665 193.461 81.4411C194.418 81.6822 195.108 82.1653 195.53 82.8905C195.952 83.6156 196.041 84.463 195.797 85.4327L194.092 92.2012L192.559 91.8152L194.162 85.454C194.345 84.7299 194.296 84.1332 194.015 83.6638C193.751 83.1847 193.321 82.8702 192.727 82.7204C191.99 82.5347 191.278 82.6579 190.592 83.0899C189.918 83.5253 189.454 84.2472 189.2 85.2556L187.847 90.6277L186.334 90.2466L188.811 80.4139L190.324 80.7951Z" fill="#1F1F1F"/>
</svg>
