<svg width="28" height="45" viewBox="0 0 28 45" fill="none" xmlns="http://www.w3.org/2000/svg">
<path d="M4.28615 17.6122C9.97553 15.4261 13.4534 9.78454 15.0851 2.92342C15.1961 6.71269 16.0443 13.1262 19.4796 16.1773C21.1568 17.6669 25.0374 20.1906 27.3099 20.6282C27.7546 20.7139 24.8359 20.8051 23.1213 22.3674C18.3216 26.7409 17.9839 30.6659 17.1861 37.3873C16.9067 39.7405 16.8754 42.1145 17.0762 44.2044C17.0529 44.279 16.7003 41.5513 16.6856 41.4115C15.8265 33.2462 12.6377 23.7808 4.50697 19.2397C3.28154 18.5553 2.23617 18.6875 0.962657 18.448C0.650912 18.3894 1.57478 18.3581 1.87595 18.2956C2.79391 18.105 3.37565 17.962 4.28615 17.6122Z" fill="#FFDA00"/>
<path d="M15.0851 2.92342C13.4534 9.78454 9.97553 15.4261 4.28615 17.6122C3.37565 17.962 2.79391 18.105 1.87595 18.2956C1.57478 18.3581 0.650911 18.3894 0.962657 18.448C2.23617 18.6875 3.28154 18.5553 4.50697 19.2397C12.6377 23.7808 15.8265 33.2462 16.6856 41.4115C16.7003 41.5513 17.0529 44.279 17.0762 44.2044C16.8754 42.1145 16.9067 39.7405 17.1861 37.3873C17.9839 30.6659 18.3216 26.7409 23.1213 22.3674C24.8359 20.8051 27.7546 20.7139 27.3099 20.6282C25.0374 20.1906 21.1568 17.6669 19.4796 16.1773C16.0443 13.1262 15.1961 6.71269 15.0851 2.92342ZM15.0851 2.92342C15.2433 1.50753 15.2117 1.79071 15.3552 0.505215" stroke="#1F1F1F" stroke-linecap="round"/>
</svg>
