<svg width="436" height="192" viewBox="0 0 436 192" fill="none" xmlns="http://www.w3.org/2000/svg">
<path d="M76.0865 77.4942C75.0198 74.6142 73.9531 71.6274 72.9931 68.7474C72.4598 67.1473 72.1397 65.8673 72.2464 64.2672C72.4598 61.9205 73.0997 58.9338 71.8197 56.8004C71.4997 56.2671 72.3531 55.7337 72.7798 56.2671C74.0598 58.4004 73.6331 61.1738 73.4197 63.5205C73.4197 64.3739 73.2064 65.3339 73.4197 66.1873C73.5264 66.934 73.7398 67.574 73.9531 68.3207C74.9131 71.3074 75.9798 74.2942 77.0465 77.2809C77.2599 77.9209 76.2998 78.2409 75.9798 77.6009L76.0865 77.4942Z" fill="#17171E"/>
<path d="M65.2067 64.5872C65.9534 65.7606 66.9135 66.934 67.3401 68.214C67.7668 69.494 67.9802 70.774 68.1935 72.054C68.5135 74.1874 68.8335 76.4275 69.0469 78.5609C69.0469 79.2009 68.0869 79.2009 67.9802 78.5609C67.7668 76.4275 67.4469 74.4008 67.1268 72.2674C66.9135 70.9874 66.7001 69.7073 66.2734 68.534C66.0601 67.894 65.6335 67.3606 65.3135 66.8273C64.8868 66.1873 64.5668 65.6539 64.2468 65.0139C63.9268 64.3739 64.7801 63.8405 65.2067 64.4806V64.5872Z" fill="#17171E"/>
<path d="M61.9003 41.3332C64.887 41.1199 68.0871 42.3999 70.2205 44.4266H69.6871C71.1805 43.8933 72.9939 44.1066 74.0606 45.28C75.3406 46.88 74.5939 49.1201 73.2072 50.4001V49.8667C74.2739 54.2402 72.3539 59.0403 68.7271 61.6003C66.5938 62.987 64.0337 63.7337 61.5803 64.0537C60.9403 64.0537 60.9403 63.0937 61.5803 62.987C64.7804 62.5604 68.0871 61.387 70.2205 58.827C71.6072 57.2269 72.2472 55.0936 72.4606 52.9602C72.4606 52.0001 72.3539 50.9334 72.4606 50.1867C72.4606 49.7601 72.6739 49.6534 72.8872 49.3334C73.4205 48.5867 73.9539 47.7334 73.7405 46.7734C73.3139 44.96 71.6072 45.1733 70.2205 45.28C69.4738 45.28 68.9405 44.4266 68.3004 43.9999C67.4471 43.4666 66.4871 43.0399 65.4204 42.7199C64.3537 42.3999 63.1803 42.1866 62.0069 42.2933C61.3669 42.2933 61.3669 41.2266 62.0069 41.2266L61.9003 41.3332Z" fill="#17171E"/>
<path d="M55.6067 54.2403C56.1401 53.707 56.4601 52.9603 56.5668 52.2136C56.7801 50.2936 55.1801 49.2269 54.5401 47.6268C53.7934 45.4935 55.1801 43.7868 57.2068 43.0401C59.2335 42.2934 61.1536 41.8667 62.8603 40.5866C65.1004 38.9866 66.0604 36.7466 64.7803 34.0798C62.8603 29.8131 57.2068 28.7464 54.0067 32.3732C52.3 34.2932 51.7667 36.9599 51.2333 39.4133C50.9133 41.3333 49.9533 42.72 48.6733 44.2134C46.4332 46.7735 45.6866 49.5468 46.1132 52.8536C46.5399 55.8403 47.9266 58.7204 50.2733 60.7471C50.8066 61.1738 50.06 61.9205 49.5267 61.4938C45.3666 57.9737 43.5531 51.0402 46.0065 46.1334C47.0732 43.7867 49.42 42.4001 50.06 39.84C50.7 37.2799 51.02 34.6132 52.62 32.4798C55.2868 28.6397 60.7269 27.8931 64.1403 31.3065C65.7403 32.9065 66.9137 35.4666 66.3804 37.7066C65.847 39.9467 63.5003 41.6533 61.4736 42.6134C59.1268 43.7867 53.5801 44.2134 55.9268 48.0535C56.8868 49.5468 57.8469 50.8269 57.5268 52.7469C57.3135 53.6003 56.8868 54.347 56.3534 54.987C55.8201 55.5203 55.0734 54.667 55.6067 54.2403Z" fill="#17171E"/>
<path d="M58.3808 116.642C58.3808 116.642 89.7415 122.829 91.7682 130.295C93.3682 136.162 83.6614 172.856 83.6614 172.856L74.9145 172.323L76.4078 153.976L58.3808 169.443L50.5939 165.07L65.9542 147.043C65.9542 147.043 73.3144 147.256 74.7011 147.256C76.0878 147.256 78.1145 143.842 74.4878 140.002C72.3544 137.762 65.8476 136.162 63.2875 136.162C60.7274 136.162 35.9802 136.162 32.5668 135.842C29.1534 135.522 21.2599 132.002 23.8199 118.455L58.4874 116.642H58.3808Z" fill="#17171E"/>
<path d="M83.554 176.057C83.1273 177.23 83.0207 178.617 83.234 179.897C83.874 183.097 87.7141 184.057 90.4875 184.91C92.7276 185.657 95.181 185.977 97.3144 186.937C97.9544 187.257 99.1277 188.11 98.1677 188.857C97.6344 189.284 96.5677 189.284 95.9277 189.39C94.4343 189.497 92.9409 189.604 91.4476 189.604C87.5008 189.604 83.6607 189.604 79.714 189.604C77.9006 189.604 76.0872 189.604 74.2738 189.39C73.4204 189.39 72.5671 189.39 71.7138 189.177C71.3938 189.177 71.2871 188.75 71.3938 188.537C72.5671 183.524 73.8471 178.617 75.0205 173.603C75.2338 172.963 76.1938 173.177 76.0872 173.923C74.9138 178.937 73.6338 183.844 72.4605 188.857L72.1404 188.217C73.8471 188.537 76.4072 188.43 78.4339 188.537C82.1673 188.537 85.9008 188.75 89.5275 188.644C91.1276 188.644 92.7276 188.644 94.3276 188.537C95.2877 188.537 96.461 188.217 97.421 188.217H97.6344C97.8477 188.217 96.9943 188.537 97.6344 188.537C97.6344 188.537 97.5277 188.324 97.421 188.324C96.6743 188.11 95.821 187.684 94.9676 187.47C92.1942 186.724 89.4208 185.977 86.7541 184.804C84.4074 183.844 82.7007 182.457 82.274 179.897C82.0606 178.617 82.274 177.23 82.7007 176.057C82.914 175.417 83.9807 175.737 83.7674 176.377L83.554 176.057Z" fill="#17171E"/>
<path d="M56.3543 170.936C51.8742 172.323 52.5142 178.19 54.6476 181.39C56.141 183.737 58.061 185.763 59.8744 188.003C60.3011 188.537 62.4344 190.99 60.6211 191.204C58.8077 191.417 56.5677 190.137 54.9676 189.284C52.5142 188.003 50.2742 186.403 48.0341 184.803C45.7941 183.203 43.874 181.603 41.954 179.897C40.8873 179.043 39.3939 177.977 38.7539 176.697C38.2206 175.737 39.6073 175.097 40.2473 174.563C41.8473 173.283 43.4473 171.896 44.9407 170.403C46.1141 169.336 47.2874 168.27 48.3541 166.99C48.7808 166.456 49.5275 167.203 49.1008 167.736C48.3541 168.59 47.6074 169.336 46.7541 170.19C45.6874 171.15 44.6207 172.11 43.554 173.07C42.8073 173.71 42.1673 174.243 41.4206 174.883C40.9939 175.203 40.5673 175.63 40.1406 175.95L39.394 176.483C39.394 176.483 39.6073 175.95 39.394 175.95C39.394 175.95 40.1406 176.803 40.2473 176.91C40.8873 177.55 41.5273 178.083 42.1673 178.723C43.9807 180.323 45.9008 181.923 47.9275 183.31C50.0609 184.91 52.1942 186.403 54.5409 187.683C55.6076 188.217 56.5676 188.857 57.741 189.284C58.5943 189.604 59.4477 189.71 60.1944 189.924H60.4077C60.4077 189.924 60.6211 190.35 60.0877 190.244V190.03C59.7677 189.817 59.5544 189.284 59.341 188.964C58.5943 188.003 57.741 187.043 56.9944 186.083C55.501 184.27 53.6876 182.35 52.7276 180.11C51.1276 176.377 51.5542 171.256 56.0343 169.763C56.6743 169.55 56.9943 170.616 56.3543 170.83V170.936Z" fill="#17171E"/>
<path d="M52.0866 60.7471C51.3399 60.7471 46.0065 61.3871 41.8464 68.2139C37.6863 75.0407 17.5258 125.389 21.6859 131.469C23.9259 134.669 68.9403 118.988 68.9403 118.988L67.8736 107.468L79.2872 110.135L82.4873 96.5879L80.8873 96.3746L78.4339 74.8274L66.4869 78.8808L70.3271 96.9079C70.3271 96.9079 64.7802 67.2539 63.2869 65.2272C60.8335 61.7071 55.6067 60.5337 52.0866 60.8537V60.7471Z" fill="#A770E0"/>
<path d="M83.6607 98.4014C85.5807 98.6147 87.6074 98.9347 89.4208 99.4681C92.1941 100.108 94.8609 101.068 96.5676 103.415C97.4209 104.588 98.0609 105.975 98.2743 107.362C98.4876 108.215 98.5943 109.495 97.9543 110.135C97.3143 110.775 96.0342 110.988 95.0742 110.988C93.4742 110.988 91.7675 110.882 90.0608 110.668C88.1408 110.455 86.3274 110.348 84.514 109.708C83.3406 109.282 82.1673 108.748 81.1006 108.108C80.5672 107.788 81.1006 106.828 81.6339 107.148C83.7673 108.535 86.114 109.175 88.5674 109.495C90.0608 109.708 91.4475 109.815 92.9408 109.922C94.1142 109.922 95.3942 110.135 96.5676 109.708C97.4209 109.388 97.3143 108.535 97.2076 107.788C96.9942 106.508 96.4609 105.335 95.8209 104.268C94.3275 101.921 91.8742 101.175 89.3141 100.535C87.3941 100.108 85.5807 99.6814 83.6607 99.4681C83.0206 99.4681 83.0206 98.2947 83.6607 98.4014Z" fill="#17171E"/>
<path d="M11.979 88.8013C11.019 85.3879 10.0589 81.7611 8.24557 78.7744C7.92556 78.1344 7.4989 77.601 6.85888 77.3877C6.00553 77.1743 4.9388 77.3877 4.08545 77.921C1.84539 79.0944 1.09871 81.5478 1.41872 84.0012C2.1654 89.5479 3.33879 94.9881 4.51215 100.535C6.43219 109.282 8.56557 117.922 11.4456 126.349C12.8323 130.296 14.3257 134.136 16.3524 137.869C17.8458 140.536 19.5525 143.416 22.0058 145.229C23.0725 145.976 24.1392 146.509 25.4193 146.616C29.686 147.043 34.0595 146.936 38.3263 147.043C42.593 147.149 46.5398 147.149 50.5932 147.043C51.2332 147.043 51.2332 148.109 50.5932 148.109C46.8598 148.109 43.233 148.109 39.4996 148.109C35.4462 148.109 31.3927 147.896 27.3393 147.789C25.6326 147.789 24.1392 147.789 22.5392 146.936C19.8725 145.549 17.9524 142.883 16.3524 140.429C14.1123 136.802 12.5123 132.962 11.0189 129.016C7.7122 120.055 5.36546 110.668 3.33875 101.388C2.4854 97.6548 1.73874 93.9214 1.09872 90.188C0.672047 88.0546 0.245369 85.8145 0.032032 83.6812C-0.181305 81.3344 0.672073 79.0944 2.59212 77.7077C3.87215 76.7477 5.89886 76.1076 7.39223 76.8543C8.8856 77.601 9.52561 79.7344 10.059 81.1211C10.9123 83.2545 11.659 85.3878 12.299 87.5212C12.4057 87.9479 12.5123 88.3746 12.619 88.8013C12.8323 89.4413 11.7656 89.7613 11.5523 89.1213L11.979 88.8013Z" fill="#17171E"/>
<path d="M67.0213 189.817C65.6346 182.137 63.9279 174.563 62.0078 167.096C60.3011 160.483 58.4878 153.976 56.2477 147.576C54.221 141.709 51.981 135.842 48.7809 130.402C46.8608 127.202 44.0874 122.722 40.1406 122.082C36.4072 121.442 33.7405 124.962 32.0338 127.735C29.0471 132.536 27.2337 137.976 25.6337 143.309C23.7136 149.709 22.2203 156.109 21.0469 162.616C19.3402 171.47 17.9535 180.43 16.8868 189.39C16.8868 189.497 16.8868 189.71 16.8868 189.817C16.8868 190.457 15.7134 190.457 15.8201 189.817C16.6734 182.03 17.9535 174.243 19.3402 166.456C20.6202 159.736 22.0069 153.016 23.8203 146.509C25.4203 140.749 27.2337 134.882 30.0071 129.549C31.7138 126.349 34.1672 122.189 38.0073 121.229C41.8474 120.269 44.9408 123.149 47.1808 125.922C50.7009 130.402 53.0477 135.736 55.181 141.069C57.7411 147.576 59.8745 154.296 61.6878 161.123C64.2479 170.403 66.488 179.897 68.3013 189.39C68.3013 189.604 68.3013 189.71 68.3013 189.817C68.408 190.457 67.448 190.777 67.2346 190.137L67.0213 189.817Z" fill="#17171E"/>
<path d="M96.8876 109.495C96.8876 109.388 96.7809 109.282 96.6742 109.068C96.4609 108.642 96.2476 108.215 95.9276 107.788C95.1809 106.615 94.3275 105.548 93.1541 104.802C92.4075 104.375 91.6608 103.948 90.8074 103.842C90.4874 103.842 90.2741 103.628 90.2741 103.308C90.2741 102.988 90.4874 102.775 90.8074 102.775C93.9008 103.202 96.1409 105.655 97.4209 108.322C97.5276 108.535 97.6343 108.855 97.8476 109.175C98.061 109.495 97.741 109.708 97.5276 109.815C97.2076 109.815 96.9942 109.815 96.8876 109.495Z" fill="#17171E"/>
<path d="M95.609 110.562C95.0757 110.028 94.5424 109.708 93.9024 109.282C92.1957 108.215 90.169 107.575 88.2489 107.148C87.6089 107.041 87.8222 105.975 88.5689 106.081C90.7023 106.508 92.729 107.148 94.5423 108.321C95.1824 108.748 95.9291 109.175 96.4624 109.815C96.8891 110.348 96.1424 111.095 95.7157 110.562H95.609Z" fill="#17171E"/>
<path d="M125.262 104.055C116.728 104.055 108.302 103.948 99.8746 103.842C98.7013 103.842 97.528 103.842 96.2479 103.842C94.9679 103.842 95.6079 102.775 96.2479 102.775C104.781 102.775 113.208 102.882 121.635 102.988C122.809 102.988 123.982 102.988 125.262 102.988C126.542 102.988 125.902 104.055 125.262 104.055Z" fill="#17171E"/>
<path d="M70.9668 107.895C70.9668 109.708 70.9668 111.522 70.9668 113.442V114.188C70.9668 114.829 69.9001 114.829 69.9001 114.188C69.9001 112.375 69.9001 110.562 69.9001 108.642V107.895C69.9001 107.255 70.9668 107.255 70.9668 107.895Z" fill="#17171E"/>
<path d="M54.9671 175.096C56.4605 174.99 57.9538 175.736 59.0205 176.696C60.1939 177.657 61.0473 179.043 61.7939 180.43C62.1139 180.963 62.4339 181.71 62.0072 182.35C61.5805 183.097 60.6206 182.777 59.9806 182.35C58.8072 181.71 57.9538 180.43 57.3138 179.363C56.5671 178.083 55.8205 176.483 54.3271 175.843C54.1138 175.843 53.9004 175.523 54.007 175.203C54.007 174.99 54.3271 174.776 54.6471 174.883C55.8205 175.416 56.6738 176.27 57.3138 177.336C57.9538 178.403 58.4872 179.47 59.2339 180.43C59.6605 180.857 60.0872 181.283 60.6205 181.497C60.7272 181.497 60.8339 181.497 60.9405 181.603C60.9405 181.603 61.2606 181.603 61.1539 181.603C61.2606 181.603 61.1539 181.07 61.0472 180.963C60.5139 179.683 59.7672 178.51 58.7005 177.55C57.6338 176.59 56.3538 175.95 54.8604 175.523C54.5404 175.523 54.6471 174.99 54.8604 174.99L54.9671 175.096Z" fill="#17171E"/>
<path d="M85.3675 179.15C85.5808 178.936 85.7942 178.616 86.1142 178.51C86.4342 178.403 86.7542 178.296 87.0742 178.19C87.8208 178.083 88.4609 178.19 89.1009 178.19C90.4876 178.403 91.981 178.936 93.0477 179.896C93.901 180.643 94.9677 182.563 93.6877 183.523C92.4076 184.483 90.8076 183.523 89.8476 182.563C88.7809 181.603 87.7142 179.47 86.0075 179.683C85.6875 179.683 85.3675 179.683 85.2608 179.256C85.2608 179.043 85.2608 178.616 85.6875 178.51C86.9675 178.296 88.1409 178.936 88.9943 179.79C89.8476 180.643 90.4876 181.817 91.661 182.35C91.8743 182.35 92.1943 182.563 92.4076 182.563C92.621 182.563 93.0476 182.563 93.1543 182.35C93.261 182.137 93.1543 181.817 93.1543 181.603C93.1543 181.283 92.941 181.07 92.7277 180.856C91.981 179.896 90.8076 179.47 89.6342 179.256C88.9942 179.15 88.3542 179.043 87.7142 179.043C87.3942 179.043 87.0742 179.043 86.7542 179.15C86.4342 179.256 86.0075 179.15 85.7942 179.47C85.5808 179.79 85.2608 179.256 85.4741 179.043L85.3675 179.15Z" fill="#17171E"/>
<path d="M63.2865 106.082C59.3398 105.335 55.4997 103.521 51.9796 101.921C50.1662 101.068 48.2462 100.108 46.5395 99.148C45.1528 98.2947 43.6594 97.4414 42.5927 96.1613C40.6727 93.7079 40.3527 90.2945 40.3527 87.3078C40.3527 82.9344 40.3527 78.5609 40.7794 74.1874C40.7794 73.7608 41.4193 73.7608 41.4193 74.1874C41.4193 78.1342 41.3127 82.081 41.206 86.0278C41.206 89.2278 40.9927 92.7479 42.9127 95.5213C43.9794 97.0146 45.6861 97.9747 47.2862 98.9347C48.9929 99.8947 50.6996 100.748 52.513 101.601C56.033 103.201 59.8731 104.375 63.4999 105.762C63.7132 105.762 63.6065 106.082 63.4999 106.082H63.2865Z" fill="#17171E"/>
<path d="M76.4079 95.5212C70.9678 93.7078 65.6343 91.5744 60.3009 89.5477C58.2741 88.801 56.4608 88.161 55.1808 86.3477C53.9007 84.4276 53.154 81.9742 53.154 79.7342C53.154 77.4941 53.6874 79.4141 53.6874 79.7342C53.9007 82.0809 54.4341 84.7476 56.0341 86.561C57.6341 88.3744 60.4075 88.9077 62.5409 89.7611C67.2343 91.5745 71.9278 93.1745 76.5146 95.0945C76.7279 95.0945 76.6212 95.6278 76.4079 95.5212Z" fill="#17171E"/>
<path d="M98.8303 19.9862C96.5205 15.7987 96.9113 10.8899 100.155 6.91414C104.378 1.73849 112.226 0.633259 117.117 3.68332C119.837 5.37992 124.687 10.6814 124.006 14.6339C123.444 17.8902 119.797 21.0685 117.117 22.6643C113.976 24.5336 112.653 26.2989 111.867 30.3374C111.08 34.3759 116.309 42.8567 116.309 42.8567" stroke="#1F1F1F" stroke-width="3" stroke-linecap="round"/>
<path d="M119.542 49.3181C119.934 49.7983 120.637 52.8662 119.853 51.6119C119.535 51.1029 118.955 50.0827 119.853 50.0827C121.149 50.0827 121.404 50.0189 121.326 51.3571C121.3 51.7873 118.823 51.9387 118.777 51.1022C118.728 50.2277 118.543 49.573 119.542 49.573C120.476 49.573 121.326 49.2315 121.326 50.3376C121.326 52.8642 120.466 51.4209 119.796 50.0827" stroke="#1F1F1F" stroke-width="3" stroke-linecap="round"/>
<rect x="176.501" y="37.1135" width="259" height="119" rx="7.5" fill="#C9DBFF" fill-opacity="0.5"/>
<rect x="176.501" y="37.1135" width="259" height="119" rx="7.5" stroke="#1F1F1F"/>
<path d="M220.263 69.6775H222.999L224.583 75.3895C224.919 76.5895 225.215 77.7095 225.471 78.7495C225.743 79.7735 225.927 80.5015 226.023 80.9335L226.167 81.5815C226.375 80.1575 226.823 78.0855 227.511 75.3655L228.999 69.4375H232.767L228.447 85.6135H224.319L222.903 80.5015C222.567 79.2695 222.287 78.2295 222.063 77.3815C221.855 76.5335 221.727 75.9895 221.679 75.7495L221.631 75.3895C221.583 76.0455 221.151 77.7495 220.335 80.5015L218.847 85.6135H214.719L210.375 69.4375H214.263L215.751 75.3895C216.071 76.6695 216.335 77.8295 216.543 78.8695C216.751 79.8935 216.879 80.6055 216.927 81.0055L217.023 81.5815C217.295 80.3335 217.839 78.2695 218.655 75.3895L220.263 69.6775ZM238.16 68.6455V75.5095C238.784 74.0535 240 73.3255 241.808 73.3255C242.992 73.3255 243.952 73.7015 244.688 74.4535C245.44 75.2055 245.816 76.3415 245.816 77.8615V85.6135H242.312V78.4135C242.312 77.7095 242.136 77.1575 241.784 76.7575C241.432 76.3575 240.976 76.1575 240.416 76.1575C240.176 76.1575 239.944 76.1975 239.72 76.2775C239.512 76.3415 239.28 76.4695 239.024 76.6615C238.768 76.8375 238.56 77.1495 238.4 77.5975C238.24 78.0295 238.16 78.5575 238.16 79.1815V85.6135H234.656V68.6455H238.16ZM254.602 80.6215H253.474C252.882 80.6215 252.426 80.7495 252.106 81.0055C251.786 81.2615 251.626 81.5895 251.626 81.9895C251.626 82.8055 252.098 83.2135 253.042 83.2135C253.538 83.2135 253.922 83.0615 254.194 82.7575C254.466 82.4535 254.602 82.0375 254.602 81.5095V80.6215ZM248.914 77.1895V74.0455C249.874 73.5015 251.258 73.2295 253.066 73.2295C254.794 73.2295 256.082 73.6055 256.93 74.3575C257.778 75.0935 258.202 76.2455 258.202 77.8135V85.6135H254.77V84.1255C254.258 85.1655 253.25 85.6855 251.746 85.6855C250.562 85.6855 249.634 85.3495 248.962 84.6775C248.306 84.0055 247.978 83.1655 247.978 82.1575C247.978 80.9895 248.402 80.0855 249.25 79.4455C250.114 78.7895 251.386 78.4615 253.066 78.4615H254.602V77.6215C254.602 76.5975 253.922 76.0855 252.562 76.0855C251.25 76.0855 250.034 76.4535 248.914 77.1895ZM265.009 76.0135V81.6055C265.009 82.0375 265.129 82.3655 265.369 82.5895C265.625 82.8135 265.953 82.9255 266.353 82.9255C266.993 82.9255 267.561 82.7655 268.057 82.4455V85.3495C267.465 85.6055 266.665 85.7335 265.657 85.7335C262.889 85.7335 261.505 84.3495 261.505 81.5815V76.0135H259.753V73.4455H261.505V70.5655H265.009V73.4455H267.841V76.0135H265.009ZM281.803 82.8295C282.603 82.8295 283.251 82.5175 283.747 81.8935C284.243 81.2695 284.491 80.4375 284.491 79.3975C284.491 78.3895 284.219 77.6055 283.675 77.0455C283.147 76.4855 282.515 76.2055 281.779 76.2055C281.043 76.2055 280.419 76.5015 279.907 77.0935C279.411 77.6855 279.163 78.5095 279.163 79.5655C279.163 80.5415 279.419 81.3335 279.931 81.9415C280.443 82.5335 281.067 82.8295 281.803 82.8295ZM284.491 68.6455H287.995V85.6135H284.491V83.7175C283.675 85.0775 282.459 85.7575 280.843 85.7575C279.259 85.7575 277.987 85.1415 277.027 83.9095C276.083 82.6775 275.611 81.2055 275.611 79.4935C275.611 77.5735 276.107 76.0615 277.099 74.9575C278.091 73.8535 279.347 73.3015 280.867 73.3015C282.451 73.3015 283.659 73.9735 284.491 75.3175V68.6455ZM296.258 85.8055C294.354 85.8055 292.882 85.2375 291.842 84.1015C290.802 82.9495 290.282 81.4775 290.282 79.6855C290.282 77.8135 290.826 76.2775 291.914 75.0775C293.002 73.8615 294.45 73.2535 296.258 73.2535C298.146 73.2535 299.61 73.8375 300.65 75.0055C301.69 76.1735 302.21 77.6615 302.21 79.4695C302.21 81.3095 301.682 82.8295 300.626 84.0295C299.586 85.2135 298.13 85.8055 296.258 85.8055ZM296.234 76.0135C295.466 76.0135 294.89 76.3415 294.506 76.9975C294.122 77.6535 293.93 78.5015 293.93 79.5415C293.93 80.5815 294.122 81.4375 294.506 82.1095C294.906 82.7655 295.498 83.0935 296.282 83.0935C297.05 83.0935 297.618 82.7735 297.986 82.1335C298.37 81.4775 298.562 80.6295 298.562 79.5895C298.562 77.2055 297.786 76.0135 296.234 76.0135ZM313.092 85.6135L309.18 73.4455H312.804L313.86 77.4535C314.116 78.4615 314.332 79.3735 314.508 80.1895C314.684 80.9895 314.788 81.5415 314.82 81.8455L314.892 82.3015C315.004 81.3415 315.396 79.7255 316.068 77.4535L317.244 73.4455H320.268L321.42 77.4535C321.708 78.4775 321.948 79.3975 322.14 80.2135C322.332 81.0135 322.452 81.5655 322.5 81.8695L322.572 82.3015C322.684 81.3575 323.06 79.7415 323.7 77.4535L324.828 73.4455H328.284L324.396 85.6135H320.796L319.74 81.6295C319.516 80.7655 319.316 79.9575 319.14 79.2055C318.98 78.4535 318.876 77.9175 318.828 77.5975L318.756 77.1175C318.596 78.1895 318.26 79.6935 317.748 81.6295L316.692 85.6135H313.092ZM336.868 78.4135V78.1255C336.756 76.7015 336.132 75.9895 334.996 75.9895C334.436 75.9895 333.94 76.1975 333.508 76.6135C333.076 77.0135 332.788 77.6135 332.644 78.4135H336.868ZM339.388 81.9895V84.9175C338.556 85.4615 337.284 85.7335 335.572 85.7335C333.572 85.7335 332.012 85.1575 330.892 84.0055C329.788 82.8375 329.236 81.3415 329.236 79.5175C329.236 77.5815 329.772 76.0695 330.844 74.9815C331.932 73.8775 333.268 73.3255 334.852 73.3255C336.484 73.3255 337.772 73.8055 338.716 74.7655C339.66 75.7095 340.132 77.1255 340.132 79.0135C340.132 79.3815 340.068 80.0135 339.94 80.9095H332.788C333.028 81.5815 333.444 82.1015 334.036 82.4695C334.628 82.8375 335.34 83.0215 336.172 83.0215C337.404 83.0215 338.476 82.6775 339.388 81.9895ZM351.224 85.6135L347.312 73.4455H350.936L351.992 77.4535C352.248 78.4615 352.464 79.3735 352.64 80.1895C352.816 80.9895 352.92 81.5415 352.952 81.8455L353.024 82.3015C353.136 81.3415 353.528 79.7255 354.2 77.4535L355.376 73.4455H358.4L359.552 77.4535C359.84 78.4775 360.08 79.3975 360.272 80.2135C360.464 81.0135 360.584 81.5655 360.632 81.8695L360.704 82.3015C360.816 81.3575 361.192 79.7415 361.832 77.4535L362.96 73.4455H366.416L362.528 85.6135H358.928L357.872 81.6295C357.648 80.7655 357.448 79.9575 357.272 79.2055C357.112 78.4535 357.008 77.9175 356.96 77.5975L356.888 77.1175C356.728 78.1895 356.392 79.6935 355.88 81.6295L354.824 85.6135H351.224ZM373.992 80.6215H372.864C372.272 80.6215 371.816 80.7495 371.496 81.0055C371.176 81.2615 371.016 81.5895 371.016 81.9895C371.016 82.8055 371.488 83.2135 372.432 83.2135C372.928 83.2135 373.312 83.0615 373.584 82.7575C373.856 82.4535 373.992 82.0375 373.992 81.5095V80.6215ZM368.304 77.1895V74.0455C369.264 73.5015 370.648 73.2295 372.456 73.2295C374.184 73.2295 375.472 73.6055 376.32 74.3575C377.168 75.0935 377.592 76.2455 377.592 77.8135V85.6135H374.16V84.1255C373.648 85.1655 372.64 85.6855 371.136 85.6855C369.952 85.6855 369.024 85.3495 368.352 84.6775C367.696 84.0055 367.368 83.1655 367.368 82.1575C367.368 80.9895 367.792 80.0855 368.64 79.4455C369.504 78.7895 370.776 78.4615 372.456 78.4615H373.992V77.6215C373.992 76.5975 373.312 76.0855 371.952 76.0855C370.64 76.0855 369.424 76.4535 368.304 77.1895ZM383.847 73.4455V75.5095C384.151 74.8375 384.615 74.3095 385.239 73.9255C385.879 73.5255 386.639 73.3255 387.519 73.3255C388.767 73.3255 389.743 73.7015 390.447 74.4535C391.151 75.1895 391.503 76.2775 391.503 77.7175V85.6135H387.999V78.3655C387.999 77.6455 387.831 77.1015 387.495 76.7335C387.159 76.3495 386.687 76.1575 386.079 76.1575C385.439 76.1575 384.903 76.4135 384.471 76.9255C384.055 77.4215 383.847 78.1735 383.847 79.1815V85.6135H380.343V73.4455H383.847ZM398.321 76.0135V81.6055C398.321 82.0375 398.441 82.3655 398.681 82.5895C398.937 82.8135 399.265 82.9255 399.665 82.9255C400.305 82.9255 400.873 82.7655 401.369 82.4455V85.3495C400.777 85.6055 399.977 85.7335 398.969 85.7335C396.201 85.7335 394.817 84.3495 394.817 81.5815V76.0135H393.065V73.4455H394.817V70.5655H398.321V73.4455H401.153V76.0135H398.321ZM266.298 110.014V115.606C266.298 116.038 266.418 116.366 266.658 116.59C266.914 116.814 267.242 116.926 267.642 116.926C268.282 116.926 268.85 116.766 269.346 116.446V119.35C268.754 119.606 267.954 119.734 266.946 119.734C264.178 119.734 262.794 118.35 262.794 115.582V110.014H261.042V107.446H262.794V104.566H266.298V107.446H269.13V110.014H266.298ZM276.876 119.806C274.972 119.806 273.5 119.238 272.46 118.102C271.42 116.95 270.9 115.478 270.9 113.686C270.9 111.814 271.444 110.278 272.532 109.078C273.62 107.862 275.068 107.254 276.876 107.254C278.764 107.254 280.228 107.838 281.268 109.006C282.308 110.174 282.828 111.662 282.828 113.47C282.828 115.31 282.3 116.83 281.244 118.03C280.204 119.214 278.748 119.806 276.876 119.806ZM276.852 110.014C276.084 110.014 275.508 110.342 275.124 110.998C274.74 111.654 274.548 112.502 274.548 113.542C274.548 114.582 274.74 115.438 275.124 116.11C275.524 116.766 276.116 117.094 276.9 117.094C277.668 117.094 278.236 116.774 278.604 116.134C278.988 115.478 279.18 114.63 279.18 113.59C279.18 111.206 278.404 110.014 276.852 110.014ZM297.309 116.83C298.045 116.83 298.669 116.534 299.181 115.942C299.693 115.334 299.949 114.542 299.949 113.566C299.949 112.51 299.693 111.686 299.181 111.094C298.685 110.502 298.069 110.206 297.333 110.206C296.597 110.206 295.957 110.486 295.413 111.046C294.885 111.606 294.621 112.39 294.621 113.398C294.621 114.438 294.869 115.27 295.365 115.894C295.861 116.518 296.509 116.83 297.309 116.83ZM294.621 102.646V109.318C295.453 107.974 296.661 107.302 298.245 107.302C299.765 107.302 301.021 107.854 302.013 108.958C303.005 110.062 303.501 111.574 303.501 113.494C303.501 115.206 303.021 116.678 302.061 117.91C301.117 119.142 299.853 119.758 298.269 119.758C296.653 119.758 295.437 119.078 294.621 117.718V119.614H291.117V102.646H294.621ZM313.325 107.446H316.829V119.614H313.325V117.67C312.685 119.03 311.453 119.71 309.629 119.71C308.381 119.71 307.405 119.366 306.701 118.678C306.013 117.974 305.669 116.942 305.669 115.582V107.446H309.173V114.79C309.173 116.214 309.797 116.926 311.045 116.926C312.565 116.926 313.325 115.91 313.325 113.878V107.446ZM319.831 119.614V107.446H323.335V119.614H319.831ZM320.143 105.358C319.743 104.958 319.543 104.478 319.543 103.918C319.543 103.358 319.743 102.878 320.143 102.478C320.543 102.078 321.023 101.878 321.583 101.878C322.143 101.878 322.623 102.078 323.023 102.478C323.423 102.878 323.623 103.358 323.623 103.918C323.623 104.478 323.423 104.958 323.023 105.358C322.623 105.758 322.143 105.958 321.583 105.958C321.023 105.958 320.543 105.758 320.143 105.358ZM326.463 119.614V102.646H329.967V119.614H326.463ZM338.568 116.83C339.368 116.83 340.016 116.518 340.512 115.894C341.008 115.27 341.256 114.438 341.256 113.398C341.256 112.39 340.984 111.606 340.44 111.046C339.912 110.486 339.28 110.206 338.544 110.206C337.808 110.206 337.184 110.502 336.672 111.094C336.176 111.686 335.928 112.51 335.928 113.566C335.928 114.542 336.184 115.334 336.696 115.942C337.208 116.534 337.832 116.83 338.568 116.83ZM341.256 102.646H344.76V119.614H341.256V117.718C340.44 119.078 339.224 119.758 337.608 119.758C336.024 119.758 334.752 119.142 333.792 117.91C332.848 116.678 332.376 115.206 332.376 113.494C332.376 111.574 332.872 110.062 333.864 108.958C334.856 107.854 336.112 107.302 337.632 107.302C339.216 107.302 340.424 107.974 341.256 109.318V102.646ZM347.768 107.206V103.918C348.728 103.47 349.952 103.246 351.44 103.246C352.944 103.246 354.16 103.646 355.088 104.446C356.016 105.23 356.48 106.294 356.48 107.638C356.48 108.358 356.336 109.014 356.048 109.606C355.76 110.182 355.4 110.638 354.968 110.974C354.536 111.294 354.112 111.542 353.696 111.718C353.28 111.894 352.904 111.982 352.568 111.982L352.496 113.95H349.304L349.232 110.326C351.696 110.326 352.928 109.574 352.928 108.07C352.928 107.494 352.752 107.038 352.4 106.702C352.064 106.35 351.56 106.174 350.888 106.174C349.848 106.174 348.808 106.518 347.768 107.206ZM349.304 119.182C348.888 118.75 348.68 118.23 348.68 117.622C348.68 117.014 348.888 116.502 349.304 116.086C349.736 115.654 350.256 115.438 350.864 115.438C351.472 115.438 351.984 115.654 352.4 116.086C352.832 116.502 353.048 117.014 353.048 117.622C353.048 118.23 352.832 118.75 352.4 119.182C351.984 119.598 351.472 119.806 350.864 119.806C350.256 119.806 349.736 119.598 349.304 119.182Z" fill="black"/>
</svg>
