<svg width="273" height="183" viewBox="0 0 273 183" fill="none" xmlns="http://www.w3.org/2000/svg">
<path d="M21.9562 149.03C29.8564 156.94 39.2935 161.531 50.5021 162.369" stroke="#1F1F1F" stroke-width="2" stroke-linecap="round"/>
<path d="M1.41296 158.992C7.48918 165.108 14.1794 170.514 22.0127 174.152C32.2313 178.897 42.8427 181.103 54.0295 181.939" stroke="#1F1F1F" stroke-width="2" stroke-linecap="round"/>
<rect x="9.28309" y="64.8942" width="246" height="96" rx="48" transform="rotate(-15 9.28309 64.8942)" fill="#A9FFFA"/>
<rect x="9.28309" y="64.8942" width="246" height="96" rx="48" transform="rotate(-15 9.28309 64.8942)" stroke="#1F1F1F" stroke-width="2"/>
<path d="M66.8675 89.244L67.3955 91.2145C66.2871 90.8489 65.0761 90.8421 63.7624 91.1941C62.8197 91.4467 62.1302 91.8717 61.6939 92.4689C61.2534 93.0507 61.1285 93.6971 61.319 94.408C61.4184 94.779 61.5769 95.0926 61.7947 95.349C62.0279 95.6012 62.3652 95.809 62.8065 95.9723C63.2437 96.1202 63.6123 96.2285 63.9123 96.2972C64.2082 96.3504 64.6674 96.4262 65.29 96.5244C65.8776 96.6154 66.3291 96.6932 66.6446 96.7577C66.9559 96.8068 67.3673 96.9202 67.8787 97.0979C68.4014 97.256 68.8082 97.4452 69.0991 97.6654C69.4014 97.866 69.6975 98.1676 69.9876 98.5703C70.289 98.9533 70.5081 99.3998 70.6447 99.9098C71.0133 101.285 70.8276 102.478 70.0878 103.488C69.3438 104.482 68.23 105.178 66.7464 105.576C65.1081 106.015 63.6282 106.055 62.3065 105.697L61.766 103.68C63.122 104.228 64.6114 104.284 66.2341 103.85C67.2078 103.589 67.9148 103.167 68.3552 102.586C68.7957 102.004 68.9061 101.303 68.6866 100.484C68.5955 100.144 68.4452 99.8614 68.2358 99.636C68.0376 99.3909 67.7549 99.2016 67.3879 99.0681C67.0321 98.9149 66.6965 98.8061 66.3811 98.7415C66.0769 98.6574 65.664 98.5692 65.1424 98.4771C65.0373 98.4556 64.8816 98.431 64.6754 98.4035C63.9322 98.2879 63.358 98.185 62.9528 98.0948C62.5631 98.0004 62.0811 97.8397 61.5068 97.6126C60.9438 97.3659 60.4899 97.032 60.1451 96.6109C59.8004 96.1898 59.5431 95.6624 59.3733 95.0288C59.0172 93.6996 59.2111 92.5379 59.9551 91.5434C60.7104 90.5294 61.8067 89.8298 63.244 89.4447C64.5885 89.0844 65.7964 89.0175 66.8675 89.244ZM79.6551 96.1289L77.6151 96.6756C76.626 96.9406 75.9359 97.3326 75.5449 97.8514C75.1538 98.3703 75.037 98.9234 75.1944 99.5107C75.3517 100.098 75.6733 100.525 76.159 100.793C76.6407 101.045 77.2524 101.071 77.9942 100.872C78.8288 100.649 79.4312 100.239 79.8015 99.6428C80.1677 99.0312 80.2535 98.3622 80.0589 97.6358L79.6551 96.1289ZM72.544 93.885L72.0533 92.0536C72.7893 91.2766 73.8759 90.6956 75.3132 90.3104C78.2651 89.5195 80.1427 90.6231 80.9461 93.6214L82.94 101.063L81.1318 101.547L80.7591 100.156C80.4255 101.322 79.4628 102.119 77.871 102.545C76.7737 102.839 75.7981 102.753 74.9442 102.286C74.1057 101.815 73.5539 101.085 73.2889 100.096C72.9866 98.9676 73.1776 97.9805 73.862 97.1346C74.5577 96.269 75.6473 95.6375 77.131 95.2399L79.2638 94.6685L79.1023 94.0657C78.8538 93.1384 78.4588 92.4989 77.9173 92.147C77.3716 91.7797 76.6043 91.7286 75.6152 91.9936C74.3633 92.3291 73.3396 92.9595 72.544 93.885ZM91.0651 93.0716L89.0251 93.6183C88.036 93.8833 87.3459 94.2753 86.9549 94.7941C86.5638 95.313 86.447 95.8661 86.6044 96.4534C86.7617 97.0407 87.0833 97.468 87.569 97.7354C88.0507 97.9873 88.6624 98.0139 89.4042 97.8151C90.2388 97.5915 90.8412 97.1816 91.2115 96.5855C91.5777 95.9739 91.6635 95.3049 91.4689 94.5785L91.0651 93.0716ZM83.954 90.8277L83.4633 88.9963C84.1993 88.2193 85.2859 87.6383 86.7232 87.2531C89.6751 86.4622 91.5527 87.5658 92.3561 90.5641L94.35 98.0056L92.5418 98.4901L92.1691 97.0991C91.8355 98.2652 90.8728 99.0615 89.281 99.488C88.1837 99.782 87.2081 99.6956 86.3542 99.2287C85.5157 98.7577 84.9639 98.0276 84.6989 97.0385C84.3966 95.9103 84.5876 94.9232 85.272 94.0773C85.9677 93.2117 87.0573 92.5802 88.541 92.1826L90.6738 91.6112L90.5123 91.0084C90.2638 90.0811 89.8688 89.4416 89.3273 89.0897C88.7816 88.7224 88.0143 88.6713 87.0252 88.9363C85.7733 89.2718 84.7496 89.9022 83.954 90.8277ZM101.845 79.8719L102.373 81.8424C101.264 81.4768 100.053 81.47 98.7395 81.822C97.7967 82.0746 97.1072 82.4996 96.671 83.0969C96.2305 83.6787 96.1056 84.325 96.2961 85.036C96.3954 85.4069 96.554 85.7205 96.7718 85.9769C97.005 86.2291 97.3423 86.4369 97.7836 86.6003C98.2208 86.7481 98.5894 86.8564 98.8894 86.9251C99.1852 86.9784 99.6445 87.0541 100.267 87.1523C100.855 87.2433 101.306 87.3211 101.622 87.3857C101.933 87.4347 102.344 87.5481 102.856 87.7258C103.378 87.8839 103.785 88.0731 104.076 88.2933C104.378 88.4939 104.675 88.7955 104.965 89.1982C105.266 89.5812 105.485 90.0277 105.622 90.5377C105.99 91.9132 105.805 93.1059 105.065 94.1158C104.321 95.1102 103.207 95.8062 101.723 96.2038C100.085 96.6427 98.6053 96.6832 97.2835 96.325L96.7431 94.3082C98.0991 94.8559 99.5884 94.9124 101.211 94.4775C102.185 94.2166 102.892 93.7953 103.332 93.2135C103.773 92.6317 103.883 91.9312 103.664 91.1121C103.573 90.7721 103.422 90.4894 103.213 90.2639C103.015 90.0188 102.732 89.8295 102.365 89.696C102.009 89.5429 101.674 89.434 101.358 89.3695C101.054 89.2853 100.641 89.1972 100.119 89.105C100.014 89.0835 99.8587 89.059 99.6525 89.0314C98.9093 88.9158 98.3351 88.8129 97.9299 88.7227C97.5402 88.6283 97.0582 88.4676 96.4839 88.2405C95.9208 87.9939 95.4669 87.66 95.1222 87.2388C94.7775 86.8177 94.5202 86.2903 94.3504 85.6567C93.9943 84.3276 94.1882 83.1658 94.9322 82.1713C95.6875 81.1573 96.7837 80.4577 98.221 80.0726C99.5656 79.7123 100.773 79.6454 101.845 79.8719ZM121.128 83.7243L121.004 83.2606C120.743 82.287 120.273 81.5846 119.594 81.1536C118.912 80.7071 118.107 80.6081 117.179 80.8566C116.298 81.0926 115.634 81.6103 115.185 82.4096C114.737 83.2089 114.616 84.2103 114.822 85.4138L121.128 83.7243ZM123.373 87.7442L123.833 89.4597C123.049 90.1831 122.001 90.7208 120.687 91.0728C118.91 91.5491 117.327 91.3933 115.94 90.6054C114.564 89.798 113.636 88.4979 113.156 86.7052C112.655 84.8352 112.746 83.2288 113.43 81.8861C114.114 80.5433 115.221 79.667 116.751 79.257C118.219 78.8636 119.512 79.0223 120.63 79.7332C121.748 80.444 122.539 81.6649 123.003 83.3958C123.135 83.8904 123.219 84.3567 123.253 84.7946L115.232 86.9439C115.682 88.0657 116.361 88.8363 117.268 89.2558C118.176 89.6752 119.232 89.7234 120.438 89.4004C121.751 89.0484 122.73 88.4963 123.373 87.7442ZM130.788 81.8068L136.338 86.755L134.228 87.3202L130.134 83.4478L128.433 88.8732L126.416 89.4136L128.742 82.3302L123.492 77.5749L125.602 77.0096L129.448 80.6999L130.957 75.5747L133.043 75.0157L130.788 81.8068ZM143.371 83.2802C144.36 83.0152 145.068 82.4114 145.495 81.4689C145.917 80.5109 145.936 79.3133 145.551 77.876C145.207 76.5932 144.62 75.6406 143.791 75.018C142.962 74.3955 142.075 74.2105 141.133 74.4631C140.19 74.7157 139.464 75.2829 138.955 76.1648C138.457 77.027 138.417 78.2386 138.836 79.7995C139.237 81.2986 139.881 82.3105 140.767 82.835C141.653 83.3596 142.521 83.508 143.371 83.2802ZM137.258 73.9112L137.736 75.6962C138.203 74.1631 139.24 73.1812 140.848 72.7505C142.409 72.3323 143.783 72.5769 144.97 73.4846C146.169 74.3726 146.996 75.6666 147.451 77.3666C147.936 79.1748 147.862 80.7848 147.23 82.1965C146.609 83.5887 145.549 84.4856 144.05 84.8872C142.505 85.3014 141.131 84.9655 139.929 83.8796L141.631 90.2315L139.823 90.716L135.45 74.3957L137.258 73.9112ZM157.463 73.9882L157.339 73.5246C157.078 72.5509 156.609 71.8486 155.93 71.4176C155.247 70.9711 154.442 70.8721 153.515 71.1205C152.634 71.3566 151.969 71.8742 151.521 72.6735C151.072 73.4728 150.951 74.4743 151.158 75.6778L157.463 73.9882ZM159.708 78.0082L160.168 79.7237C159.385 80.4471 158.336 80.9848 157.022 81.3368C155.245 81.813 153.663 81.6572 152.276 80.8694C150.9 80.062 149.972 78.7619 149.491 76.9691C148.99 75.0991 149.082 73.4927 149.765 72.15C150.449 70.8073 151.556 69.9309 153.086 69.521C154.554 69.1276 155.847 69.2863 156.965 69.9971C158.084 70.708 158.874 71.9288 159.338 73.6598C159.471 74.1543 159.554 74.6206 159.589 75.0586L151.568 77.2078C152.018 78.3297 152.696 79.1003 153.604 79.5197C154.511 79.9391 155.568 79.9873 156.773 79.6643C158.087 79.3123 159.065 78.7603 159.708 78.0082ZM162.523 67.1415L163.076 69.2047C163.305 67.5863 164.176 66.5742 165.691 66.1683C165.969 66.0938 166.19 66.0513 166.352 66.0408L166.837 67.849C166.483 67.8278 166.137 67.8627 165.797 67.9538C164.978 68.1733 164.399 68.7342 164.061 69.6364C163.723 70.5386 163.686 71.4843 163.951 72.4734L165.672 78.8949L163.841 79.3856L160.715 67.626L162.523 67.1415ZM171.518 77.3285L168.369 65.5751L170.2 65.0843L173.349 76.8377L171.518 77.3285ZM167.657 62.7344C167.379 62.5606 167.194 62.3036 167.103 61.9636C167.012 61.6236 167.043 61.3087 167.198 61.0189C167.367 60.725 167.622 60.5325 167.962 60.4414C168.302 60.3503 168.619 60.3896 168.913 60.5593C169.207 60.729 169.4 60.9838 169.491 61.3238C169.582 61.6638 169.542 61.9808 169.373 62.2747C169.199 62.5532 168.942 62.738 168.602 62.8291C168.262 62.9202 167.947 62.8887 167.657 62.7344ZM182.547 67.267L182.423 66.8034C182.162 65.8297 181.692 65.1274 181.014 64.6964C180.331 64.2499 179.526 64.1509 178.599 64.3993C177.718 64.6354 177.053 65.153 176.605 65.9523C176.156 66.7516 176.035 67.753 176.242 68.9566L182.547 67.267ZM184.792 71.287L185.252 73.0025C184.468 73.7259 183.42 74.2636 182.106 74.6156C180.329 75.0918 178.747 74.936 177.36 74.1482C175.984 73.3408 175.056 72.0407 174.575 70.2479C174.074 68.3779 174.165 66.7715 174.849 65.4288C175.533 64.0861 176.64 63.2097 178.17 62.7998C179.638 62.4063 180.931 62.5651 182.049 63.2759C183.167 63.9867 183.958 65.2076 184.422 66.9386C184.555 67.4331 184.638 67.8994 184.673 68.3374L176.652 70.4866C177.101 71.6085 177.78 72.3791 178.687 72.7985C179.595 73.2179 180.651 73.2661 181.857 72.9431C183.171 72.5911 184.149 72.0391 184.792 71.287ZM187.607 60.4203L188.153 62.4603C188.455 60.8057 189.495 59.7403 191.272 59.2641C192.416 58.9577 193.421 59.0611 194.287 59.5743C195.154 60.0876 195.742 60.9238 196.053 62.0829L198.221 70.1735L196.389 70.6642L194.352 63.0604C194.12 62.195 193.72 61.5982 193.152 61.2701C192.595 60.9224 191.961 60.8438 191.25 61.0343C190.369 61.2703 189.695 61.8153 189.228 62.6693C188.777 63.5191 188.712 64.5467 189.035 65.7522L190.756 72.1736L188.948 72.6582L185.798 60.9048L187.607 60.4203ZM201.113 63.1619C201.468 64.425 202.139 65.3802 203.124 66.0273C204.104 66.6589 205.29 66.7884 206.681 66.4157C207.578 66.1755 208.344 65.6969 208.98 64.9798L209.446 66.7185C208.824 67.3654 207.972 67.8339 206.891 68.1237C205.036 68.6207 203.403 68.4289 201.991 67.5483C200.59 66.6482 199.662 65.3481 199.206 63.648C198.759 61.9789 198.915 60.3967 199.674 58.9013C200.448 57.4018 201.778 56.3995 203.663 55.8943C204.668 55.6251 205.622 55.6013 206.526 55.8228L206.992 57.5615C206.153 57.2729 205.254 57.257 204.296 57.5137C202.967 57.8698 202.016 58.5883 201.445 59.6691C200.884 60.7303 200.774 61.8946 201.113 63.1619ZM218.09 57.7433L217.966 57.2796C217.705 56.306 217.235 55.6037 216.557 55.1726C215.874 54.7261 215.069 54.6271 214.142 54.8756C213.261 55.1116 212.596 55.6293 212.148 56.4286C211.699 57.2279 211.578 58.2293 211.785 59.4329L218.09 57.7433ZM220.335 61.7632L220.795 63.4787C220.012 64.2021 218.963 64.7399 217.649 65.0918C215.872 65.5681 214.29 65.4123 212.903 64.6245C211.527 63.817 210.599 62.517 210.118 60.7242C209.617 58.8542 209.709 57.2478 210.392 55.9051C211.076 54.5623 212.183 53.686 213.713 53.276C215.181 52.8826 216.474 53.0413 217.592 53.7522C218.711 54.463 219.501 55.6839 219.965 57.4148C220.098 57.9094 220.181 58.3757 220.216 58.8137L212.195 60.9629C212.644 62.0847 213.323 62.8554 214.23 63.2748C215.138 63.6942 216.194 63.7424 217.4 63.4194C218.714 63.0674 219.692 62.5154 220.335 61.7632Z" fill="#1F1F1F"/>
</svg>
