<svg width="106" height="161" viewBox="0 0 106 161" fill="none" xmlns="http://www.w3.org/2000/svg">
<path d="M104.7 8.6869C81.3056 -6.81317 26.6421 -0.653885 30.9428 43.6282C30.9428 52.7714 43.5519 67.21 50.8715 57.0062C54.8203 51.5014 54.0198 42.4169 50.7757 36.8911C43.1378 23.8813 14.7191 38.9212 6.79845 52.7714C-1.12223 66.6217 -1.18365 88.8017 8.90629 101.471" stroke="#1F1F1F" stroke-width="2" stroke-linecap="round"/>
<path d="M34.7384 126.842C49.7788 122.788 52.5554 115.098 55.2474 105C56.1041 109.483 57.2115 115.523 59.9024 119.34C63.0425 123.795 67.8174 124.988 73.0579 124.679C74.4858 124.595 73.3412 124.817 72.788 125.032C71.1019 125.691 69.4702 126.443 67.9306 127.393C60.1233 132.213 58.5506 141.182 57.0899 149.513L57.069 149.632C56.504 152.853 55.6522 162.608 55.6522 159.339V155.125C55.6522 148.903 55.8243 142.901 51.8742 137.564C48.5011 133.006 43.8187 129.476 38.1341 128.32C34.7385 127.393 28.1824 128.32 34.7384 126.842Z" fill="#F1FF4E" stroke="#1F1F1F" stroke-width="2" stroke-linecap="round"/>
</svg>
