<svg width="80" height="106" viewBox="0 0 80 106" fill="none" xmlns="http://www.w3.org/2000/svg">
<path d="M11.9187 48.5C33.3219 42 37.7521 22.6356 38.3043 1C38.322 7.40076 39.4059 16.6597 42.3263 22.0576C45.9152 28.6911 50.9867 34.1774 56.9514 38.7077C62.7347 43.1002 69.073 46.8644 76.4973 47.1392C78.0738 46.9986 78.9547 47.1552 77.3657 47.1552C77.0746 47.1552 76.7851 47.1498 76.4973 47.1392C75.3235 47.2438 73.7641 47.5132 72.5515 48.1347C53.7611 57.765 49.0294 79.3174 49.0294 99.0646C49.0294 109.044 49.2386 102.343 48.4201 96.8609C46.7639 85.7697 44.2219 73.5099 36.2325 65.0909C27.7502 56.1526 13.7879 51.3023 1.61962 52.2972C-1.42452 52.5461 9.3008 50.0802 11.9187 48.5Z" fill="#FFBFBF" stroke="#1F1F1F" stroke-width="2" stroke-linecap="round"/>
</svg>
