<svg width="45" height="78" viewBox="0 0 45 78" fill="none" xmlns="http://www.w3.org/2000/svg">
<path d="M6.51071 35.2033C15.2124 29.4006 19.7633 18.4233 21.1464 6.00009C22 12.5001 24.5 23.266 30.5343 27.3061C33.4803 29.2785 40.132 32.2494 43.8416 32.1938C44.5676 32.1829 39.9196 33.3818 37.4585 36.6898C30.569 45.9501 30.7298 52.8445 30.6544 64.7291C30.628 68.89 31.0016 72.9983 31.6955 76.5333C31.6715 76.6705 30.6213 72.0888 30.5729 71.8528C27.7427 58.0674 20.9576 42.8695 7.15405 37.9333C5.07363 37.1894 3.4267 37.7905 1.34884 37.8316C0.840199 37.8416 2.31099 37.458 2.7811 37.2427C4.21402 36.5863 5.11814 36.1319 6.51071 35.2033Z" fill="#FFDA00"/>
<path d="M21.1464 6.00009C19.7633 18.4233 15.2124 29.4006 6.51071 35.2033C5.11814 36.1319 4.21402 36.5863 2.7811 37.2427C2.31099 37.458 0.8402 37.8416 1.34884 37.8316C3.4267 37.7905 5.07363 37.1894 7.15405 37.9333C20.9576 42.8695 27.7427 58.0674 30.5729 71.8528C30.6213 72.0888 31.6715 76.6705 31.6955 76.5333C31.0016 72.9983 30.628 68.89 30.6544 64.7291C30.7298 52.8445 30.569 45.9501 37.4585 36.6898C39.9196 33.3818 44.5676 32.1829 43.8416 32.1938C40.132 32.2494 33.4803 29.2785 30.5343 27.3061C24.5 23.266 22 12.5001 21.1464 6.00009ZM21.1464 6.00009C21.1464 3.50009 21.1464 4.00009 21.1464 1.73033" stroke="#1F1F1F" stroke-width="2" stroke-linecap="round"/>
</svg>
