<svg width="74" height="109" viewBox="0 0 74 109" fill="none" xmlns="http://www.w3.org/2000/svg">
<path d="M9.41351 64.1676C28.2501 52.0337 30.2242 31.2802 30.2931 11.0258C31.0607 16.84 32.1167 22.6969 34.1288 28.1842C39.7902 43.623 48.2755 53.7774 64.6528 58.1061C68.8452 59.2142 71.1358 59.3757 72.0764 59.359C72.7226 59.2246 72.8097 59.346 72.0764 59.359C71.1913 59.5431 69.2573 60.2071 66.9466 62.2869C61.6321 67.0702 57.4592 78.7002 56.1629 85.4773C54.9022 92.068 53.5 99.0716 53.5 105.5C53.5 110.401 51.5757 103.294 50.616 99.7489L50.5588 99.5376C46.5699 84.8142 35.908 72.4381 20.8058 68.4502C16.8394 67.4029 5.31539 65.7171 0.39766 67.5766C8.59387 64.4775 7.30555 65.5255 9.41351 64.1676Z" fill="#FFDA00"/>
<path d="M30.2382 1.00461C30.4144 24.1394 31.3825 50.0158 9.41351 64.1676C7.30555 65.5255 8.59387 64.4775 0.39766 67.5766C5.31539 65.7171 16.8394 67.4029 20.8058 68.4502C35.908 72.4381 46.5699 84.8142 50.5588 99.5376C51.4968 103 53.5 110.5 53.5 105.5C53.5 99.0716 54.9022 92.068 56.1629 85.4773C57.4592 78.7002 61.6321 67.0702 66.9466 62.2869C73.1079 56.7414 76.5908 61.2615 64.6528 58.1061C48.2755 53.7774 39.7902 43.623 34.1288 28.1842C32.1167 22.6969 31.0607 16.84 30.2931 11.0258" stroke="#1F1F1F" stroke-width="2" stroke-linecap="round"/>
</svg>
