<svg width="438" height="171" viewBox="0 0 438 171" fill="none" xmlns="http://www.w3.org/2000/svg">
<path d="M53.6902 20.4844C53.6902 20.4844 56.6174 27.5807 57.9479 30.2418C57.9479 30.2418 65.6651 21.5489 55.1981 14.63C48.2792 10.1061 40.1186 15.6944 39.9412 22.9681C39.9412 22.9681 44.1102 25.097 53.6902 20.4844Z" fill="#17171E"/>
<path d="M61.8571 15.4722C63.7988 12.0679 62.6822 7.77344 59.363 5.88021C56.0438 3.98697 51.779 5.21193 49.8372 8.61624C47.8954 12.0205 49.012 16.315 52.3312 18.2083C55.6504 20.1015 59.9153 18.8766 61.8571 15.4722Z" fill="#17171E"/>
<path d="M61.7623 119.034C62.2945 116.018 65.5765 93.3097 67.4393 84.6168L91.3892 78.585C91.8327 78.585 92.7197 83.4636 94.6712 91.8018C96.8001 99.9625 99.195 109.897 101.501 113.534C103.808 117.171 120.573 142.54 120.573 142.54L115.605 146.443C115.605 146.443 94.5825 124.001 92.5423 121.163C90.5021 118.324 79.4142 96.1482 79.4142 96.1482L72.5841 120.453L71.2535 156.555L64.7782 156.289C64.9556 156.023 61.4075 121.34 61.7623 119.034Z" fill="#17171E"/>
<path d="M12.9756 83.2856L18.0317 156.555L24.4183 156.466L27.8778 101.204L32.7564 155.845H39.5866L43.6669 83.7292L12.9756 83.2856Z" fill="#17171E"/>
<path d="M17.678 158.595C17.678 158.595 17.678 158.595 17.678 158.772C17.678 158.949 17.678 159.038 17.678 159.216C17.678 159.57 17.5893 160.014 17.5006 160.457C17.2344 161.611 16.9683 162.675 16.6135 163.828C16.2587 164.981 15.8152 166.134 15.283 167.288C14.8395 168.175 14.3959 168.973 13.5976 169.594C13.2428 169.949 13.0654 170.481 13.5976 170.658C14.0411 170.747 14.4847 170.658 14.9282 170.57C16.6135 170.215 18.2989 169.416 19.7181 168.352C21.9357 166.755 23.5324 164.449 24.0646 161.788C24.1533 161.256 23.355 160.99 23.1776 161.522C22.3792 165.513 19.0085 168.441 15.1943 169.505C14.7508 169.594 14.3072 169.683 13.8637 169.771C13.8637 169.771 14.0411 169.86 14.0411 170.037V170.303C14.0411 170.303 14.1298 170.215 14.2186 170.126C14.396 170.037 14.4847 169.86 14.6621 169.683C15.9926 168.086 16.7909 165.868 17.4118 163.828C17.7667 162.764 18.0328 161.611 18.2989 160.457C18.3876 159.836 18.6537 159.038 18.4763 158.417C18.3876 157.885 17.5006 158.062 17.5893 158.683L17.678 158.595Z" fill="#17171E"/>
<path d="M23.9746 158.862C24.4181 161.877 24.8616 164.982 25.2164 167.998L25.3938 169.329C25.3938 169.861 26.2809 169.683 26.2809 169.062C25.8374 166.046 25.3938 162.942 25.039 159.926L24.8616 158.595C24.8616 158.063 23.9746 158.241 23.9746 158.862Z" fill="#17171E"/>
<path d="M39.143 157.797C39.0543 158.329 39.143 158.95 39.2317 159.483C39.4091 160.458 39.5866 161.345 39.8527 162.321C40.3849 164.361 41.0058 166.579 42.159 168.442C42.3364 168.796 42.6025 169.151 42.9573 169.417C43.046 169.506 43.2234 169.684 43.4008 169.772V169.595C43.4008 169.506 43.5782 169.24 43.5782 169.329C43.5782 169.329 43.3121 169.329 43.4895 169.329C43.3121 169.329 43.046 169.329 42.8686 169.329C41.4493 169.24 40.0301 168.619 38.8769 167.821C36.6594 166.401 35.3288 164.184 34.7966 161.612C34.7079 161.079 33.8208 161.257 33.9095 161.878C34.7966 165.958 37.9899 169.417 42.2476 170.127C42.6912 170.127 43.2234 170.304 43.6669 170.127C44.1104 169.95 44.3765 169.506 44.0217 169.151C43.8443 168.885 43.5782 168.708 43.3121 168.53C43.046 168.176 42.7799 167.732 42.5138 167.289C41.9816 166.224 41.538 165.071 41.1832 164.007C40.8284 162.765 40.4736 161.523 40.2075 160.281C40.1188 159.837 40.0301 159.305 39.9414 158.862C39.9414 158.684 39.9414 158.507 39.9414 158.418V158.241C40.0301 157.709 39.2318 157.442 39.0544 157.975L39.143 157.797Z" fill="#17171E"/>
<path d="M32.7571 158.063C32.3136 161.079 31.8701 164.184 31.5153 167.199C31.5153 167.643 31.4266 168.087 31.3379 168.53C31.3379 169.062 32.1362 169.328 32.2249 168.796C32.6684 165.78 33.112 162.676 33.4668 159.66C33.4668 159.216 33.5555 158.773 33.6442 158.329C33.6442 157.797 32.8459 157.531 32.7571 158.063Z" fill="#17171E"/>
<path d="M64.6011 158.417C64.6011 158.329 64.6011 158.506 64.6011 158.595C64.6011 158.683 64.6011 158.861 64.6011 158.95C64.6011 159.393 64.4237 159.748 64.335 160.191C64.0689 161.256 63.8028 162.32 63.448 163.385C63.0931 164.538 62.5609 165.691 62.0287 166.844C61.5852 167.642 61.1417 168.53 60.3433 169.15C59.9885 169.417 59.6337 169.86 60.1659 170.215C60.5207 170.392 60.9643 170.392 61.4078 170.392C63.0044 170.392 64.6011 169.771 65.9316 168.884C68.2379 167.465 69.8346 165.159 70.6329 162.498C70.8103 161.965 69.9233 161.699 69.7459 162.232C68.6814 165.957 65.5768 169.062 61.6739 169.417C61.4078 169.417 61.2304 169.417 60.9643 169.417C60.8755 169.417 60.6981 169.417 60.6094 169.417C60.6094 169.417 60.6982 169.505 60.7869 169.594C60.7869 169.771 60.6982 169.86 60.7869 169.949C61.1417 169.86 61.4078 169.417 61.6739 169.15C63.0044 167.554 63.8028 165.425 64.4237 163.473C64.7785 162.409 65.1333 161.256 65.3107 160.191C65.3994 159.57 65.6655 158.861 65.5768 158.24C65.4881 157.708 64.6011 157.885 64.6898 158.506L64.6011 158.417Z" fill="#17171E"/>
<path d="M70.809 158.861C71.0751 161.966 71.3412 164.982 71.6073 167.998V169.328C71.7847 169.86 72.6717 169.86 72.583 169.328C72.3169 166.223 72.0508 163.208 71.7847 160.192V158.861C71.6073 158.329 70.7202 158.329 70.809 158.861Z" fill="#17171E"/>
<path d="M114.274 149.459C114.274 149.459 114.274 149.459 114.274 149.548C114.274 149.636 114.363 149.725 114.452 149.902C114.629 150.257 114.718 150.612 114.895 150.878C115.25 151.854 115.605 152.83 115.871 153.805C116.226 154.958 116.492 156.112 116.669 157.265C116.847 158.241 116.935 159.216 116.758 160.192C116.758 160.635 116.226 161.256 116.758 161.523C117.113 161.7 117.556 161.434 117.911 161.168C119.242 160.281 120.217 158.861 120.927 157.531C122.169 154.958 122.257 152.031 121.37 149.37C121.193 148.838 120.306 149.015 120.483 149.636C121.725 153.362 120.927 157.797 117.645 160.369C117.467 160.458 117.29 160.635 117.113 160.724C117.113 160.724 117.024 160.724 116.935 160.724C116.847 160.724 116.935 160.724 117.201 160.813C117.379 160.99 117.201 161.168 117.29 161.079C117.29 160.99 117.379 160.813 117.467 160.635C117.556 160.192 117.645 159.837 117.645 159.394C117.645 157.353 117.201 155.313 116.58 153.362C116.314 152.386 115.96 151.41 115.516 150.435C115.339 149.902 115.072 149.193 114.629 148.749C114.185 148.306 113.565 148.927 114.008 149.37L114.274 149.459Z" fill="#17171E"/>
<path d="M119.774 146.354C121.725 148.749 123.677 151.144 125.628 153.45C125.894 153.805 126.161 154.16 126.427 154.426C126.781 154.87 127.402 154.249 127.048 153.805C125.096 151.41 123.145 149.015 121.193 146.709C120.927 146.354 120.661 145.999 120.395 145.733C120.04 145.29 119.419 145.911 119.774 146.354Z" fill="#17171E"/>
<path d="M48.5468 33.6117C48.5468 33.6117 56.0866 43.6351 60.2556 45.8527C63.2715 47.4494 78.6172 51.1749 78.6172 51.1749C78.6172 51.1749 74.0046 62.6176 73.4724 64.1256C73.0289 65.5448 55.4656 55.1666 53.869 53.9247C49.8773 50.8201 41.0957 42.482 41.0957 42.482L48.6355 33.5229L48.5468 33.6117Z" fill="#FF7665"/>
<path d="M79.5026 52.6833C80.7444 53.3042 82.2524 54.1912 83.0507 55.3444C83.2281 55.5218 83.4055 55.9653 83.2281 56.2314C83.0507 56.4975 82.6072 56.4088 82.3411 56.3201C81.7202 56.2314 81.1879 55.9653 80.6557 55.6992C80.2122 55.4331 79.7687 56.054 80.1235 56.4088C80.7445 57.1184 81.2767 57.9168 81.8976 58.7151C82.7846 59.9569 83.7604 61.4649 83.8491 62.9729C83.9378 64.3034 82.8734 64.5695 81.8089 64.6582C80.301 64.7469 78.7043 64.4808 77.1963 64.2147C76.2206 64.0373 75.2449 63.7712 74.2691 63.5051C73.7369 63.3277 73.4708 64.2147 74.003 64.3921C76.4867 65.1017 79.2365 65.7226 81.8089 65.5452C83.0508 65.4565 84.47 65.1017 84.6474 63.6825C84.9135 62.0858 83.8491 60.4005 83.0507 59.1586C82.3411 58.0055 81.5428 56.941 80.6557 55.9653L80.1235 56.6749C80.8332 57.0297 81.6315 57.3845 82.4298 57.4733C83.4055 57.562 84.2926 56.941 84.0265 55.7879C83.7604 54.6347 82.6959 53.9251 81.8976 53.3042C81.2767 52.8607 80.5671 52.4172 79.8574 52.0623C79.3252 51.7962 78.8817 52.5946 79.4139 52.8607L79.5026 52.6833Z" fill="#17171E"/>
<path d="M78.3492 59.4248C78.7041 59.7796 79.1476 60.1344 79.5024 60.4005C79.9459 60.6666 80.3894 60.9328 80.8329 61.1989C81.2764 61.465 81.72 61.6424 82.2522 61.9085C82.7844 62.1746 83.2279 62.352 83.7601 62.4407C84.2036 62.5294 84.4698 61.9085 84.0263 61.7311C83.5828 61.5537 83.0505 61.3763 82.607 61.1989C82.1635 61.0215 81.6313 60.7554 81.1878 60.5779C80.7442 60.4005 80.3007 60.1344 79.8572 59.8683C79.4137 59.6022 78.9702 59.3361 78.5267 59.1587C78.3493 59.1587 78.2605 59.3361 78.3492 59.5135V59.4248Z" fill="#17171E"/>
<path d="M76.6638 62.4408C78.6153 63.9487 81.099 64.7471 83.494 64.8358C84.0262 64.8358 84.0262 63.9487 83.494 63.9487C81.099 63.86 78.9701 63.1504 76.8412 62.086C76.6638 61.9973 76.3977 62.2634 76.5751 62.4408H76.6638Z" fill="#17171E"/>
<path d="M46.1507 76.5447C46.1507 76.8108 43.3122 101.115 42.6913 101.293C42.0704 101.47 10.7581 86.302 8.54054 84.9715C6.32296 83.6409 3.12965 81.8669 3.92798 76.6334C4.72631 71.3999 31.9582 33.5236 31.9582 33.5236C34.5306 30.1529 37.2804 28.1127 41.7156 29.7093C46.1507 31.306 49.0779 33.0801 49.344 35.9186C49.6102 38.5797 48.6344 48.5144 48.0135 55.9655C47.3926 63.1505 46.1507 76.6334 46.1507 76.6334V76.5447Z" fill="#FF7665"/>
<path d="M39.8533 29.0889C39.8533 29.0889 29.5637 23.8554 27.5235 21.4604C23.4432 16.6704 16.7904 3.98584 16.7904 3.98584C16.7904 3.98584 2.33178 10.816 1.08993 11.703C-0.151911 12.5901 18.3871 29.4437 19.9837 30.7742C27.08 36.5399 31.5152 39.9994 31.5152 39.9994L39.8533 29.0002V29.0889Z" fill="#FF7665"/>
<path d="M13.9513 4.07401C13.5965 3.45309 13.153 2.92087 12.6208 2.38865C11.9999 1.67902 11.1128 0.79199 10.1371 0.703287C9.16136 0.614583 8.45173 1.32421 8.62913 2.29995C8.71784 3.00957 9.07265 3.7192 9.51617 4.25142L10.1371 3.6305C9.33877 3.09828 8.45174 2.56605 7.56471 2.12254C6.23416 1.41291 4.72621 0.703285 3.12955 0.791988C-0.152474 0.880692 0.911944 5.31586 1.44416 7.26733C1.71027 8.33177 2.06509 9.30751 2.4199 10.2832C2.59731 10.8155 3.48434 10.5493 3.30694 10.0171C2.50861 8.06566 1.8877 5.93678 1.71029 3.8966C1.71029 2.92087 1.71028 1.76773 2.86342 1.59032C4.19397 1.41291 5.70193 2.12254 6.94378 2.74346C7.83081 3.18698 8.80654 3.7192 9.60487 4.25142C9.95969 4.51753 10.4919 3.98531 10.2258 3.6305C9.9597 3.18698 9.69357 2.74347 9.51617 2.21125C9.51617 1.94514 9.33876 1.59032 9.51617 1.41292C9.78228 1.23551 10.1371 1.41292 10.4032 1.41292C11.5563 1.94514 12.4434 3.18698 13.153 4.16272C13.5078 4.60623 14.2174 4.16272 13.9513 3.7192V4.07401Z" fill="#17171E"/>
<path d="M7.12113 6.02524C6.94372 5.67042 6.58889 5.31561 6.32278 4.9608C6.05667 4.60599 5.79056 4.25117 5.52445 3.80765C5.25834 3.36414 5.08095 3.09803 4.81484 2.65452C4.54873 2.211 4.37131 1.85619 4.1939 1.41267C4.0165 1.05786 3.30688 1.32396 3.48429 1.67877C3.6617 2.03359 3.92779 2.56581 4.1052 2.92062C4.2826 3.27543 4.54873 3.71895 4.90355 4.07377C5.25836 4.42858 5.43577 4.78339 5.79058 5.1382C6.14539 5.49302 6.41149 5.84783 6.855 6.11394C7.03241 6.20264 7.20983 6.02524 7.12113 5.84783V6.02524Z" fill="#17171E"/>
<path d="M4.37122 7.71102C3.30678 5.93696 2.41974 4.16289 2.15363 2.12272C2.15363 1.85661 1.97623 1.6792 1.71012 1.6792C1.44401 1.6792 1.2666 1.85661 1.2666 2.12272C1.53271 4.25159 2.50845 6.46918 4.01641 7.97714C4.19381 8.15454 4.45992 7.97713 4.37122 7.71102Z" fill="#17171E"/>
<path d="M59.0133 27.9345C56.9731 31.4826 52.804 33.0793 48.8124 32.1923C44.8207 31.3052 41.7161 28.2893 40.9178 24.3864C40.1194 20.4834 41.9822 16.5805 45.4416 14.8064C49.0785 12.855 53.6911 13.6533 56.7957 16.3144C60.0777 19.2416 61.2308 24.0316 59.0133 27.9345C58.7471 28.4667 59.4568 28.9102 59.8116 28.378C61.9405 24.5638 61.2308 19.9512 58.481 16.6692C55.7312 13.3872 50.7638 11.8792 46.5061 13.2985C42.2483 14.7177 39.6759 18.6207 39.8533 22.9671C40.0308 27.3136 43.1354 31.1278 47.127 32.6358C51.7396 34.3211 57.1505 32.6358 59.7229 28.378C59.989 27.8458 59.2794 27.4023 58.9245 27.9345H59.0133Z" fill="#17171E"/>
<path d="M92.0992 76.2785C89.6155 56.8525 86.5997 50.0224 83.5837 44.0793C81.0113 39.0232 78.4389 36.7169 75.3343 36.0073C71.5201 35.1202 67.8833 36.983 65.2222 38.2248C62.2062 39.6441 54.1342 45.055 49.0782 45.6759C46.5058 45.942 30.4505 44.4341 29.6521 44.3454C28.8538 44.2567 26.3701 57.296 26.3701 57.296C26.3701 57.296 45.4413 59.5136 48.7233 59.4249C52.8924 59.2475 62.0288 56.6751 62.0288 56.6751C62.7385 58.3605 63.8916 63.4166 64.7786 70.3354C66.9962 86.1246 66.9962 87.1891 66.9962 87.1891C66.9962 87.1891 91.6557 88.2535 93.962 88.0761C93.962 88.0761 93.3411 85.5037 92.1879 76.2785H92.0992Z" fill="#A770E0"/>
<path d="M78.3614 28.039C78.5718 22.8013 74.2186 18.3737 68.6383 18.1495C63.058 17.9254 58.3637 21.9897 58.1534 27.2273C57.943 32.465 62.2962 36.8926 67.8765 37.1168C73.4568 37.3409 78.151 33.2766 78.3614 28.039Z" fill="white"/>
<path d="M57.5939 27.2258C57.5052 31.4836 60.255 35.2978 64.2466 36.8058C68.2383 38.3137 73.2943 37.338 76.2215 34.056C79.1487 30.774 79.5923 26.2501 77.3747 22.702C75.1571 19.1538 70.6333 17.1137 66.4642 17.7346C61.6742 18.4442 57.9487 22.3472 57.6826 27.1371C57.6826 27.6694 58.5696 27.6694 58.5696 27.1371C58.747 23.2342 61.5855 19.9522 65.3998 18.8877C69.214 17.8233 73.4718 19.0651 76.0442 22.1698C78.6166 25.2744 78.6166 29.3547 76.4877 32.548C74.1814 35.8301 69.9236 37.338 66.0207 36.451C61.6742 35.4752 58.4809 31.7497 58.5696 27.2258C58.5696 26.6936 57.6826 26.6936 57.6826 27.2258H57.5939Z" fill="#17171E"/>
<path d="M68.5041 18.1777C69.3911 18.1777 70.2782 18.3551 71.0765 18.6212C71.2539 14.4522 74.6247 11.2588 78.705 11.4362C82.6967 11.6137 85.89 15.0731 85.7125 19.1534C85.5351 23.2338 82.1644 26.4271 78.0841 26.2497C78.1728 26.8706 78.2615 27.4915 78.1728 28.1125C78.1728 29.9752 77.4631 31.6606 76.3987 33.0798C76.3987 33.0798 74.0037 33.346 68.0606 29.7091C62.1175 26.0723 60.166 21.6371 60.166 21.6371C62.1175 19.4195 65.1334 18.0003 68.4154 18.1777H68.5041Z" fill="#17171E"/>
<path d="M20.5149 54.8126C17.9425 54.8126 15.9023 54.8126 15.9023 51.1758V43.7247C15.9023 40.1766 18.1199 40.354 20.6923 40.354C23.2647 40.354 25.1275 40.1766 25.1275 43.7247V51.1758C25.1275 54.7239 22.9986 54.8126 20.5149 54.8126Z" fill="#17171E"/>
<path d="M28.3231 45.5882C28.5005 45.3221 28.057 45.056 27.7022 44.9673C25.662 44.7899 23.1783 44.6125 22.5574 45.3221C21.8478 46.2091 23.267 47.5397 24.4202 47.3623C22.8235 47.3623 21.2269 47.8058 19.8963 48.5154C19.4528 48.7815 19.0093 49.0476 18.7431 49.4911C18.477 50.0234 18.5657 50.733 18.7431 51.2652C19.8076 54.1924 22.6461 56.41 25.662 56.6761" fill="white"/>
<path d="M28.5004 45.7649C29.1213 44.7004 27.0812 44.7004 26.5489 44.6117C25.3958 44.523 24.154 44.3456 23.0895 44.6117C22.2912 44.8778 21.759 45.5875 22.1138 46.3858C22.4686 47.2728 23.533 47.8938 24.4201 47.8051C24.9523 47.8051 24.9523 46.918 24.4201 46.918C22.646 46.918 20.8719 47.3615 19.2753 48.2486C18.6543 48.6034 18.1221 49.2243 18.0334 49.9339C17.9447 50.6436 18.2995 51.4419 18.5656 52.1515C19.8962 54.9013 22.646 56.7641 25.5732 57.1189C26.1941 57.1189 26.1941 56.2319 25.5732 56.1432C23.0895 55.8771 20.8719 54.4578 19.6301 52.3289C19.2753 51.7967 19.0092 51.1758 18.9205 50.6436C18.743 49.8452 19.1866 49.313 19.8962 48.9582C21.2267 48.2486 22.8234 47.8938 24.3314 47.8051V46.918C23.7991 46.918 23.0895 46.7406 22.8234 46.2084C22.4686 45.5875 23.0895 45.4101 23.6217 45.3214C24.0652 45.3214 28.0569 45.2327 28.0569 45.4988C28.0569 45.7649 28.4117 45.9423 28.5004 45.6762V45.7649Z" fill="#17171E"/>
<path d="M24.1527 52.8606C23.3544 52.2397 22.556 51.7075 21.669 51.3527C21.2255 51.1753 20.782 50.9979 20.3385 50.9092C20.0723 50.9092 19.8949 50.8205 19.6288 50.7318C19.3627 50.6431 19.0966 50.6431 18.8305 50.6431C18.387 50.6431 18.2983 51.264 18.7418 51.4414C18.9192 51.4414 19.1853 51.4414 19.4514 51.5301C19.7175 51.6188 19.8949 51.5301 20.161 51.6188C20.6046 51.7075 21.0481 51.7962 21.4029 51.9736C22.2899 52.3284 23.0883 52.6832 23.8866 53.1268C24.064 53.2155 24.3301 52.9494 24.1527 52.772V52.8606Z" fill="#17171E"/>
<path d="M24.5968 49.4902C24.5081 49.4902 24.5081 49.3128 24.4194 49.2241C24.3307 49.2241 24.1532 49.1354 24.0645 49.1354C23.7984 49.1354 23.621 49.0467 23.3549 49.0467C22.8227 49.0467 22.2905 48.958 21.7583 48.958C20.6938 48.958 19.6294 49.2241 18.6537 49.5789C18.4763 49.6676 18.2988 49.845 18.2988 50.1112C18.2988 50.2886 18.6536 50.466 18.8311 50.466C19.7181 50.1111 20.6938 49.845 21.6696 49.7563C22.1131 49.7563 22.6453 49.7563 23.0888 49.7563C23.3549 49.7563 23.5323 49.7563 23.7984 49.845C23.8871 49.845 24.0645 49.845 24.1532 49.845C24.242 49.845 24.3307 49.7563 24.4194 49.7563C24.5968 49.7563 24.5968 49.5789 24.4194 49.4902H24.5968Z" fill="#17171E"/>
<path d="M29.9172 58.9806C33.0218 59.4241 36.3039 59.3354 39.4972 59.5128C41.0939 59.5128 42.6905 59.6903 44.2872 59.6903C45.529 59.6903 47.037 59.8677 48.1901 59.2467C48.4562 59.158 48.1901 58.8032 48.0127 58.8032C47.2144 58.8919 46.5048 59.0693 45.7064 59.158C44.9968 59.158 44.2872 59.158 43.5775 59.158C42.0696 59.158 40.5616 59.0693 39.0537 58.9806C36.0378 58.8919 32.9331 58.5371 29.9172 58.7145C29.7398 58.7145 29.7398 58.9806 29.9172 59.0693V58.9806Z" fill="#17171E"/>
<path d="M33.113 45.5861C38.1691 46.6505 43.4026 46.3844 48.5473 46.0296C50.7649 45.8522 52.9825 45.5861 55.1114 45.0539C57.0629 44.5217 59.6353 43.812 61.1432 42.3928C61.4093 42.1267 61.1432 41.7719 60.7884 41.8606C59.724 42.3041 58.7482 43.0137 57.6838 43.4572C56.7081 43.812 55.7323 44.1669 54.7566 44.433C52.539 44.9652 50.2327 45.2313 48.0151 45.4087C43.1364 45.7635 38.0804 46.1183 33.2904 45.2313C33.0243 45.2313 32.9356 45.5861 33.2017 45.5861H33.113Z" fill="#17171E"/>
<rect x="177.653" y="26.1953" width="259" height="119" rx="7.5" fill="#C9DBFF" fill-opacity="0.5"/>
<rect x="177.653" y="26.1953" width="259" height="119" rx="7.5" stroke="#1F1F1F"/>
<path d="M210.986 58.7593H213.722L215.306 64.4713C215.642 65.6713 215.938 66.7913 216.194 67.8313C216.466 68.8553 216.65 69.5833 216.746 70.0153L216.89 70.6633C217.098 69.2393 217.546 67.1673 218.234 64.4473L219.722 58.5193H223.49L219.17 74.6953H215.042L213.626 69.5833C213.29 68.3513 213.01 67.3113 212.786 66.4633C212.578 65.6153 212.45 65.0713 212.402 64.8313L212.354 64.4713C212.306 65.1273 211.874 66.8313 211.058 69.5833L209.57 74.6953H205.442L201.098 58.5193H204.986L206.474 64.4713C206.794 65.7513 207.058 66.9113 207.266 67.9513C207.474 68.9753 207.602 69.6873 207.65 70.0873L207.746 70.6633C208.018 69.4153 208.562 67.3513 209.378 64.4713L210.986 58.7593ZM228.882 57.7273V64.5913C229.506 63.1353 230.722 62.4073 232.53 62.4073C233.714 62.4073 234.674 62.7833 235.41 63.5353C236.162 64.2873 236.538 65.4233 236.538 66.9433V74.6953H233.034V67.4953C233.034 66.7913 232.858 66.2393 232.506 65.8393C232.154 65.4393 231.698 65.2393 231.138 65.2393C230.898 65.2393 230.666 65.2793 230.442 65.3593C230.234 65.4233 230.002 65.5513 229.746 65.7433C229.49 65.9193 229.282 66.2313 229.122 66.6793C228.962 67.1113 228.882 67.6393 228.882 68.2633V74.6953H225.378V57.7273H228.882ZM244.676 74.8873C242.772 74.8873 241.3 74.3193 240.26 73.1833C239.22 72.0313 238.7 70.5593 238.7 68.7673C238.7 66.8953 239.244 65.3593 240.332 64.1593C241.42 62.9433 242.868 62.3353 244.676 62.3353C246.564 62.3353 248.028 62.9193 249.068 64.0873C250.108 65.2553 250.628 66.7433 250.628 68.5513C250.628 70.3913 250.1 71.9113 249.044 73.1113C248.004 74.2953 246.548 74.8873 244.676 74.8873ZM244.652 65.0953C243.884 65.0953 243.308 65.4233 242.924 66.0793C242.54 66.7353 242.348 67.5833 242.348 68.6233C242.348 69.6633 242.54 70.5193 242.924 71.1913C243.324 71.8473 243.916 72.1753 244.7 72.1753C245.468 72.1753 246.036 71.8553 246.404 71.2153C246.788 70.5593 246.98 69.7113 246.98 68.6713C246.98 66.2873 246.204 65.0953 244.652 65.0953ZM264.51 71.9113C265.31 71.9113 265.958 71.5993 266.454 70.9753C266.95 70.3513 267.198 69.5193 267.198 68.4793C267.198 67.4713 266.926 66.6873 266.382 66.1273C265.854 65.5673 265.222 65.2873 264.486 65.2873C263.75 65.2873 263.126 65.5833 262.614 66.1753C262.118 66.7673 261.87 67.5913 261.87 68.6473C261.87 69.6233 262.126 70.4153 262.638 71.0233C263.15 71.6153 263.774 71.9113 264.51 71.9113ZM267.198 57.7273H270.702V74.6953H267.198V72.7993C266.382 74.1593 265.166 74.8393 263.55 74.8393C261.966 74.8393 260.694 74.2233 259.734 72.9913C258.79 71.7593 258.318 70.2873 258.318 68.5753C258.318 66.6553 258.814 65.1433 259.806 64.0393C260.798 62.9353 262.054 62.3833 263.574 62.3833C265.158 62.3833 266.366 63.0553 267.198 64.3993V57.7273ZM278.965 74.8873C277.061 74.8873 275.589 74.3193 274.549 73.1833C273.509 72.0313 272.989 70.5593 272.989 68.7673C272.989 66.8953 273.533 65.3593 274.621 64.1593C275.709 62.9433 277.157 62.3353 278.965 62.3353C280.853 62.3353 282.317 62.9193 283.357 64.0873C284.397 65.2553 284.917 66.7433 284.917 68.5513C284.917 70.3913 284.389 71.9113 283.333 73.1113C282.293 74.2953 280.837 74.8873 278.965 74.8873ZM278.941 65.0953C278.173 65.0953 277.597 65.4233 277.213 66.0793C276.829 66.7353 276.637 67.5833 276.637 68.6233C276.637 69.6633 276.829 70.5193 277.213 71.1913C277.613 71.8473 278.205 72.1753 278.989 72.1753C279.757 72.1753 280.325 71.8553 280.693 71.2153C281.077 70.5593 281.269 69.7113 281.269 68.6713C281.269 66.2873 280.493 65.0953 278.941 65.0953ZM295.799 74.6953L291.887 62.5273H295.511L296.567 66.5353C296.823 67.5433 297.039 68.4553 297.215 69.2713C297.391 70.0713 297.495 70.6233 297.527 70.9273L297.599 71.3833C297.711 70.4233 298.103 68.8073 298.775 66.5353L299.951 62.5273H302.975L304.127 66.5353C304.415 67.5593 304.655 68.4793 304.847 69.2953C305.039 70.0953 305.159 70.6473 305.207 70.9513L305.279 71.3833C305.391 70.4393 305.767 68.8233 306.407 66.5353L307.535 62.5273H310.991L307.103 74.6953H303.503L302.447 70.7113C302.223 69.8473 302.023 69.0393 301.847 68.2873C301.687 67.5353 301.583 66.9993 301.535 66.6793L301.463 66.1993C301.303 67.2713 300.967 68.7753 300.455 70.7113L299.399 74.6953H295.799ZM319.575 67.4953V67.2073C319.463 65.7833 318.839 65.0713 317.703 65.0713C317.143 65.0713 316.647 65.2793 316.215 65.6953C315.783 66.0953 315.495 66.6953 315.351 67.4953H319.575ZM322.095 71.0713V73.9993C321.263 74.5433 319.991 74.8153 318.279 74.8153C316.279 74.8153 314.719 74.2393 313.599 73.0873C312.495 71.9193 311.943 70.4233 311.943 68.5993C311.943 66.6633 312.479 65.1513 313.551 64.0633C314.639 62.9593 315.975 62.4073 317.559 62.4073C319.191 62.4073 320.479 62.8873 321.423 63.8473C322.367 64.7913 322.839 66.2073 322.839 68.0953C322.839 68.4633 322.775 69.0953 322.647 69.9913H315.495C315.735 70.6633 316.151 71.1833 316.743 71.5513C317.335 71.9193 318.047 72.1033 318.879 72.1033C320.111 72.1033 321.183 71.7593 322.095 71.0713ZM333.931 74.6953L330.019 62.5273H333.643L334.699 66.5353C334.955 67.5433 335.171 68.4553 335.347 69.2713C335.523 70.0713 335.627 70.6233 335.659 70.9273L335.731 71.3833C335.843 70.4233 336.235 68.8073 336.907 66.5353L338.083 62.5273H341.107L342.259 66.5353C342.547 67.5593 342.787 68.4793 342.979 69.2953C343.171 70.0953 343.291 70.6473 343.339 70.9513L343.411 71.3833C343.523 70.4393 343.899 68.8233 344.539 66.5353L345.667 62.5273H349.123L345.235 74.6953H341.635L340.579 70.7113C340.355 69.8473 340.155 69.0393 339.979 68.2873C339.819 67.5353 339.715 66.9993 339.667 66.6793L339.595 66.1993C339.435 67.2713 339.099 68.7753 338.587 70.7113L337.531 74.6953H333.931ZM356.699 69.7033H355.571C354.979 69.7033 354.523 69.8313 354.203 70.0873C353.883 70.3433 353.723 70.6713 353.723 71.0713C353.723 71.8873 354.195 72.2953 355.139 72.2953C355.635 72.2953 356.019 72.1433 356.291 71.8393C356.563 71.5353 356.699 71.1193 356.699 70.5913V69.7033ZM351.011 66.2713V63.1273C351.971 62.5833 353.355 62.3113 355.163 62.3113C356.891 62.3113 358.179 62.6873 359.027 63.4393C359.875 64.1753 360.299 65.3273 360.299 66.8953V74.6953H356.867V73.2073C356.355 74.2473 355.347 74.7673 353.843 74.7673C352.659 74.7673 351.731 74.4313 351.059 73.7593C350.403 73.0873 350.075 72.2473 350.075 71.2393C350.075 70.0713 350.499 69.1673 351.347 68.5273C352.211 67.8713 353.483 67.5433 355.163 67.5433H356.699V66.7033C356.699 65.6793 356.019 65.1673 354.659 65.1673C353.347 65.1673 352.131 65.5353 351.011 66.2713ZM366.554 62.5273V64.5913C366.858 63.9193 367.322 63.3913 367.946 63.0073C368.586 62.6073 369.346 62.4073 370.226 62.4073C371.474 62.4073 372.45 62.7833 373.154 63.5353C373.858 64.2713 374.21 65.3593 374.21 66.7993V74.6953H370.706V67.4473C370.706 66.7273 370.538 66.1833 370.202 65.8153C369.866 65.4313 369.394 65.2393 368.786 65.2393C368.146 65.2393 367.61 65.4953 367.178 66.0073C366.762 66.5033 366.554 67.2553 366.554 68.2633V74.6953H363.05V62.5273H366.554ZM381.028 65.0953V70.6873C381.028 71.1193 381.148 71.4473 381.388 71.6713C381.644 71.8953 381.972 72.0073 382.372 72.0073C383.012 72.0073 383.58 71.8473 384.076 71.5273V74.4313C383.484 74.6873 382.684 74.8153 381.676 74.8153C378.908 74.8153 377.524 73.4313 377.524 70.6633V65.0953H375.772V62.5273H377.524V59.6473H381.028V62.5273H383.86V65.0953H381.028ZM396.286 65.0953V70.6873C396.286 71.1193 396.406 71.4473 396.646 71.6713C396.902 71.8953 397.23 72.0073 397.63 72.0073C398.27 72.0073 398.838 71.8473 399.334 71.5273V74.4313C398.742 74.6873 397.942 74.8153 396.934 74.8153C394.166 74.8153 392.782 73.4313 392.782 70.6633V65.0953H391.03V62.5273H392.782V59.6473H396.286V62.5273H399.118V65.0953H396.286ZM406.864 74.8873C404.96 74.8873 403.488 74.3193 402.448 73.1833C401.408 72.0313 400.888 70.5593 400.888 68.7673C400.888 66.8953 401.432 65.3593 402.52 64.1593C403.608 62.9433 405.056 62.3353 406.864 62.3353C408.752 62.3353 410.216 62.9193 411.256 64.0873C412.296 65.2553 412.816 66.7433 412.816 68.5513C412.816 70.3913 412.288 71.9113 411.232 73.1113C410.192 74.2953 408.736 74.8873 406.864 74.8873ZM406.84 65.0953C406.072 65.0953 405.496 65.4233 405.112 66.0793C404.728 66.7353 404.536 67.5833 404.536 68.6233C404.536 69.6633 404.728 70.5193 405.112 71.1913C405.512 71.8473 406.104 72.1753 406.888 72.1753C407.656 72.1753 408.224 71.8553 408.592 71.2153C408.976 70.5593 409.168 69.7113 409.168 68.6713C409.168 66.2873 408.392 65.0953 406.84 65.0953ZM265.625 105.911C266.361 105.911 266.985 105.615 267.497 105.023C268.009 104.415 268.265 103.623 268.265 102.647C268.265 101.591 268.009 100.767 267.497 100.175C267.001 99.5833 266.385 99.2873 265.649 99.2873C264.913 99.2873 264.273 99.5673 263.729 100.127C263.201 100.687 262.937 101.471 262.937 102.479C262.937 103.519 263.185 104.351 263.681 104.975C264.177 105.599 264.825 105.911 265.625 105.911ZM262.937 91.7273V98.3993C263.769 97.0553 264.977 96.3833 266.561 96.3833C268.081 96.3833 269.337 96.9353 270.329 98.0393C271.321 99.1433 271.817 100.655 271.817 102.575C271.817 104.287 271.337 105.759 270.377 106.991C269.433 108.223 268.169 108.839 266.585 108.839C264.969 108.839 263.753 108.159 262.937 106.799V108.695H259.433V91.7273H262.937ZM281.641 96.5273H285.145V108.695H281.641V106.751C281.001 108.111 279.769 108.791 277.945 108.791C276.697 108.791 275.721 108.447 275.017 107.759C274.329 107.055 273.985 106.023 273.985 104.663V96.5273H277.489V103.871C277.489 105.295 278.113 106.007 279.361 106.007C280.881 106.007 281.641 104.991 281.641 102.959V96.5273ZM288.147 108.695V96.5273H291.651V108.695H288.147ZM288.459 94.4393C288.059 94.0393 287.859 93.5593 287.859 92.9993C287.859 92.4393 288.059 91.9593 288.459 91.5593C288.859 91.1593 289.339 90.9593 289.899 90.9593C290.459 90.9593 290.939 91.1593 291.339 91.5593C291.739 91.9593 291.939 92.4393 291.939 92.9993C291.939 93.5593 291.739 94.0393 291.339 94.4393C290.939 94.8393 290.459 95.0393 289.899 95.0393C289.339 95.0393 288.859 94.8393 288.459 94.4393ZM294.78 108.695V91.7273H298.284V108.695H294.78ZM306.885 105.911C307.685 105.911 308.333 105.599 308.829 104.975C309.325 104.351 309.573 103.519 309.573 102.479C309.573 101.471 309.301 100.687 308.757 100.127C308.229 99.5673 307.597 99.2873 306.861 99.2873C306.125 99.2873 305.501 99.5833 304.989 100.175C304.493 100.767 304.245 101.591 304.245 102.647C304.245 103.623 304.501 104.415 305.013 105.023C305.525 105.615 306.149 105.911 306.885 105.911ZM309.573 91.7273H313.077V108.695H309.573V106.799C308.757 108.159 307.541 108.839 305.925 108.839C304.341 108.839 303.069 108.223 302.109 106.991C301.165 105.759 300.693 104.287 300.693 102.575C300.693 100.655 301.189 99.1433 302.181 98.0393C303.173 96.9353 304.429 96.3833 305.949 96.3833C307.533 96.3833 308.741 97.0553 309.573 98.3993V91.7273ZM329.308 91.6553V94.4873C328.86 94.3113 328.444 94.2233 328.06 94.2233C327.468 94.2233 327.028 94.3593 326.74 94.6313C326.452 94.9033 326.308 95.3833 326.308 96.0713V96.5273H328.588V99.0953H326.308V108.695H322.828V99.0953H321.244V96.5273H322.828V96.0713C322.828 94.5993 323.236 93.4553 324.052 92.6393C324.884 91.8233 326.028 91.4153 327.484 91.4153C328.236 91.4153 328.844 91.4953 329.308 91.6553ZM335.637 108.887C333.733 108.887 332.261 108.319 331.221 107.183C330.181 106.031 329.661 104.559 329.661 102.767C329.661 100.895 330.205 99.3593 331.293 98.1593C332.381 96.9433 333.829 96.3353 335.637 96.3353C337.525 96.3353 338.989 96.9193 340.029 98.0873C341.069 99.2553 341.589 100.743 341.589 102.551C341.589 104.391 341.061 105.911 340.005 107.111C338.965 108.295 337.509 108.887 335.637 108.887ZM335.613 99.0953C334.845 99.0953 334.269 99.4233 333.885 100.079C333.501 100.735 333.309 101.583 333.309 102.623C333.309 103.663 333.501 104.519 333.885 105.191C334.285 105.847 334.877 106.175 335.661 106.175C336.429 106.175 336.997 105.855 337.365 105.215C337.749 104.559 337.941 103.711 337.941 102.671C337.941 100.287 337.165 99.0953 335.613 99.0953ZM347.358 96.5273V98.7833C347.582 98.0793 347.95 97.5193 348.462 97.1033C348.99 96.6713 349.598 96.4553 350.286 96.4553C350.67 96.4553 350.974 96.4873 351.198 96.5513V99.8633C350.814 99.6873 350.374 99.5993 349.878 99.5993C349.126 99.5993 348.518 99.8793 348.054 100.439C347.59 100.983 347.358 101.711 347.358 102.623V108.695H343.854L343.878 96.5273H347.358ZM352.881 96.2873V92.9993C353.841 92.5513 355.065 92.3273 356.553 92.3273C358.057 92.3273 359.273 92.7273 360.201 93.5273C361.129 94.3113 361.593 95.3753 361.593 96.7193C361.593 97.4393 361.449 98.0953 361.161 98.6873C360.873 99.2633 360.513 99.7193 360.081 100.055C359.649 100.375 359.225 100.623 358.809 100.799C358.393 100.975 358.017 101.063 357.681 101.063L357.609 103.031H354.417L354.345 99.4073C356.809 99.4073 358.041 98.6553 358.041 97.1513C358.041 96.5753 357.865 96.1193 357.513 95.7833C357.177 95.4313 356.673 95.2553 356.001 95.2553C354.961 95.2553 353.921 95.5993 352.881 96.2873ZM354.417 108.263C354.001 107.831 353.793 107.311 353.793 106.703C353.793 106.095 354.001 105.583 354.417 105.167C354.849 104.735 355.369 104.519 355.977 104.519C356.585 104.519 357.097 104.735 357.513 105.167C357.945 105.583 358.161 106.095 358.161 106.703C358.161 107.311 357.945 107.831 357.513 108.263C357.097 108.679 356.585 108.887 355.977 108.887C355.369 108.887 354.849 108.679 354.417 108.263Z" fill="black"/>
</svg>
